<svg xmlns="http://www.w3.org/2000/svg" xmlns:xlink="http://www.w3.org/1999/xlink" width="600" height="400" viewBox="0 0 2400 1600">
<defs>
  <clipPath id="clip260">
    <rect x="0" y="0" width="2400" height="1600"></rect>
  </clipPath>
</defs>
<path clip-path="url(#clip260)" d="
M0 1600 L2400 1600 L2400 0 L0 0  Z
  " fill="#ffffff" fill-rule="evenodd" fill-opacity="1"></path>
<defs>
  <clipPath id="clip261">
    <rect x="480" y="0" width="1681" height="1600"></rect>
  </clipPath>
</defs>
<path clip-path="url(#clip260)" d="
M203.964 1423.18 L1505.99 1423.18 L1505.99 123.472 L203.964 123.472  Z
  " fill="#ffffff" fill-rule="evenodd" fill-opacity="1"></path>
<defs>
  <clipPath id="clip262">
    <rect x="203" y="123" width="1303" height="1301"></rect>
  </clipPath>
</defs>
<polyline clip-path="url(#clip262)" style="stroke:#000000; stroke-linecap:round; stroke-linejoin:round; stroke-width:2; stroke-opacity:0.1; fill:none" points="
  237.032,1423.18 237.032,123.472 
  "></polyline>
<polyline clip-path="url(#clip262)" style="stroke:#000000; stroke-linecap:round; stroke-linejoin:round; stroke-width:2; stroke-opacity:0.1; fill:none" points="
  458.544,1423.18 458.544,123.472 
  "></polyline>
<polyline clip-path="url(#clip262)" style="stroke:#000000; stroke-linecap:round; stroke-linejoin:round; stroke-width:2; stroke-opacity:0.1; fill:none" points="
  680.057,1423.18 680.057,123.472 
  "></polyline>
<polyline clip-path="url(#clip262)" style="stroke:#000000; stroke-linecap:round; stroke-linejoin:round; stroke-width:2; stroke-opacity:0.1; fill:none" points="
  901.569,1423.18 901.569,123.472 
  "></polyline>
<polyline clip-path="url(#clip262)" style="stroke:#000000; stroke-linecap:round; stroke-linejoin:round; stroke-width:2; stroke-opacity:0.1; fill:none" points="
  1123.08,1423.18 1123.08,123.472 
  "></polyline>
<polyline clip-path="url(#clip262)" style="stroke:#000000; stroke-linecap:round; stroke-linejoin:round; stroke-width:2; stroke-opacity:0.1; fill:none" points="
  1344.59,1423.18 1344.59,123.472 
  "></polyline>
<polyline clip-path="url(#clip260)" style="stroke:#000000; stroke-linecap:round; stroke-linejoin:round; stroke-width:4; stroke-opacity:1; fill:none" points="
  203.964,1423.18 1505.99,1423.18 
  "></polyline>
<polyline clip-path="url(#clip260)" style="stroke:#000000; stroke-linecap:round; stroke-linejoin:round; stroke-width:4; stroke-opacity:1; fill:none" points="
  237.032,1423.18 237.032,1404.28 
  "></polyline>
<polyline clip-path="url(#clip260)" style="stroke:#000000; stroke-linecap:round; stroke-linejoin:round; stroke-width:4; stroke-opacity:1; fill:none" points="
  458.544,1423.18 458.544,1404.28 
  "></polyline>
<polyline clip-path="url(#clip260)" style="stroke:#000000; stroke-linecap:round; stroke-linejoin:round; stroke-width:4; stroke-opacity:1; fill:none" points="
  680.057,1423.18 680.057,1404.28 
  "></polyline>
<polyline clip-path="url(#clip260)" style="stroke:#000000; stroke-linecap:round; stroke-linejoin:round; stroke-width:4; stroke-opacity:1; fill:none" points="
  901.569,1423.18 901.569,1404.28 
  "></polyline>
<polyline clip-path="url(#clip260)" style="stroke:#000000; stroke-linecap:round; stroke-linejoin:round; stroke-width:4; stroke-opacity:1; fill:none" points="
  1123.08,1423.18 1123.08,1404.28 
  "></polyline>
<polyline clip-path="url(#clip260)" style="stroke:#000000; stroke-linecap:round; stroke-linejoin:round; stroke-width:4; stroke-opacity:1; fill:none" points="
  1344.59,1423.18 1344.59,1404.28 
  "></polyline>
<path clip-path="url(#clip260)" d="M168.479 1468.75 L198.155 1468.75 L198.155 1472.69 L168.479 1472.69 L168.479 1468.75 Z" fill="#000000" fill-rule="evenodd" fill-opacity="1"></path><path clip-path="url(#clip260)" d="M222.414 1466.95 Q225.77 1467.66 227.645 1469.93 Q229.544 1472.2 229.544 1475.53 Q229.544 1480.65 226.025 1483.45 Q222.507 1486.25 216.025 1486.25 Q213.849 1486.25 211.534 1485.81 Q209.243 1485.39 206.789 1484.54 L206.789 1480.02 Q208.733 1481.16 211.048 1481.74 Q213.363 1482.32 215.886 1482.32 Q220.284 1482.32 222.576 1480.58 Q224.891 1478.84 224.891 1475.53 Q224.891 1472.48 222.738 1470.77 Q220.608 1469.03 216.789 1469.03 L212.761 1469.03 L212.761 1465.19 L216.974 1465.19 Q220.423 1465.19 222.252 1463.82 Q224.081 1462.43 224.081 1459.84 Q224.081 1457.18 222.182 1455.77 Q220.307 1454.33 216.789 1454.33 Q214.868 1454.33 212.669 1454.75 Q210.47 1455.16 207.831 1456.04 L207.831 1451.88 Q210.493 1451.14 212.808 1450.77 Q215.145 1450.39 217.206 1450.39 Q222.53 1450.39 225.632 1452.83 Q228.733 1455.23 228.733 1459.35 Q228.733 1462.22 227.09 1464.21 Q225.446 1466.18 222.414 1466.95 Z" fill="#000000" fill-rule="evenodd" fill-opacity="1"></path><path clip-path="url(#clip260)" d="M238.409 1479.7 L243.293 1479.7 L243.293 1485.58 L238.409 1485.58 L238.409 1479.7 Z" fill="#000000" fill-rule="evenodd" fill-opacity="1"></path><path clip-path="url(#clip260)" d="M263.479 1454.1 Q259.867 1454.1 258.039 1457.66 Q256.233 1461.2 256.233 1468.33 Q256.233 1475.44 258.039 1479.01 Q259.867 1482.55 263.479 1482.55 Q267.113 1482.55 268.918 1479.01 Q270.747 1475.44 270.747 1468.33 Q270.747 1461.2 268.918 1457.66 Q267.113 1454.1 263.479 1454.1 M263.479 1450.39 Q269.289 1450.39 272.344 1455 Q275.423 1459.58 275.423 1468.33 Q275.423 1477.06 272.344 1481.67 Q269.289 1486.25 263.479 1486.25 Q257.668 1486.25 254.59 1481.67 Q251.534 1477.06 251.534 1468.33 Q251.534 1459.58 254.59 1455 Q257.668 1450.39 263.479 1450.39 Z" fill="#000000" fill-rule="evenodd" fill-opacity="1"></path><path clip-path="url(#clip260)" d="M293.64 1454.1 Q290.029 1454.1 288.201 1457.66 Q286.395 1461.2 286.395 1468.33 Q286.395 1475.44 288.201 1479.01 Q290.029 1482.55 293.64 1482.55 Q297.275 1482.55 299.08 1479.01 Q300.909 1475.44 300.909 1468.33 Q300.909 1461.2 299.08 1457.66 Q297.275 1454.1 293.64 1454.1 M293.64 1450.39 Q299.451 1450.39 302.506 1455 Q305.585 1459.58 305.585 1468.33 Q305.585 1477.06 302.506 1481.67 Q299.451 1486.25 293.64 1486.25 Q287.83 1486.25 284.752 1481.67 Q281.696 1477.06 281.696 1468.33 Q281.696 1459.58 284.752 1455 Q287.83 1450.39 293.64 1450.39 Z" fill="#000000" fill-rule="evenodd" fill-opacity="1"></path><path clip-path="url(#clip260)" d="M390.489 1468.75 L420.165 1468.75 L420.165 1472.69 L390.489 1472.69 L390.489 1468.75 Z" fill="#000000" fill-rule="evenodd" fill-opacity="1"></path><path clip-path="url(#clip260)" d="M434.285 1481.64 L450.605 1481.64 L450.605 1485.58 L428.66 1485.58 L428.66 1481.64 Q431.322 1478.89 435.906 1474.26 Q440.512 1469.61 441.693 1468.27 Q443.938 1465.74 444.818 1464.01 Q445.72 1462.25 445.72 1460.56 Q445.72 1457.8 443.776 1456.07 Q441.855 1454.33 438.753 1454.33 Q436.554 1454.33 434.1 1455.09 Q431.669 1455.86 428.892 1457.41 L428.892 1452.69 Q431.716 1451.55 434.169 1450.97 Q436.623 1450.39 438.66 1450.39 Q444.031 1450.39 447.225 1453.08 Q450.419 1455.77 450.419 1460.26 Q450.419 1462.39 449.609 1464.31 Q448.822 1466.2 446.716 1468.8 Q446.137 1469.47 443.035 1472.69 Q439.933 1475.88 434.285 1481.64 Z" fill="#000000" fill-rule="evenodd" fill-opacity="1"></path><path clip-path="url(#clip260)" d="M460.419 1479.7 L465.304 1479.7 L465.304 1485.58 L460.419 1485.58 L460.419 1479.7 Z" fill="#000000" fill-rule="evenodd" fill-opacity="1"></path><path clip-path="url(#clip260)" d="M474.308 1451.02 L496.53 1451.02 L496.53 1453.01 L483.984 1485.58 L479.1 1485.58 L490.905 1454.96 L474.308 1454.96 L474.308 1451.02 Z" fill="#000000" fill-rule="evenodd" fill-opacity="1"></path><path clip-path="url(#clip260)" d="M505.697 1451.02 L524.053 1451.02 L524.053 1454.96 L509.979 1454.96 L509.979 1463.43 Q510.998 1463.08 512.016 1462.92 Q513.035 1462.73 514.053 1462.73 Q519.84 1462.73 523.22 1465.9 Q526.6 1469.08 526.6 1474.49 Q526.6 1480.07 523.127 1483.17 Q519.655 1486.25 513.336 1486.25 Q511.16 1486.25 508.891 1485.88 Q506.646 1485.51 504.239 1484.77 L504.239 1480.07 Q506.322 1481.2 508.544 1481.76 Q510.766 1482.32 513.243 1482.32 Q517.248 1482.32 519.586 1480.21 Q521.924 1478.1 521.924 1474.49 Q521.924 1470.88 519.586 1468.77 Q517.248 1466.67 513.243 1466.67 Q511.368 1466.67 509.493 1467.08 Q507.641 1467.5 505.697 1468.38 L505.697 1451.02 Z" fill="#000000" fill-rule="evenodd" fill-opacity="1"></path><path clip-path="url(#clip260)" d="M611.504 1468.75 L641.18 1468.75 L641.18 1472.69 L611.504 1472.69 L611.504 1468.75 Z" fill="#000000" fill-rule="evenodd" fill-opacity="1"></path><path clip-path="url(#clip260)" d="M655.3 1481.64 L671.619 1481.64 L671.619 1485.58 L649.675 1485.58 L649.675 1481.64 Q652.337 1478.89 656.92 1474.26 Q661.527 1469.61 662.707 1468.27 Q664.953 1465.74 665.832 1464.01 Q666.735 1462.25 666.735 1460.56 Q666.735 1457.8 664.791 1456.07 Q662.869 1454.33 659.768 1454.33 Q657.568 1454.33 655.115 1455.09 Q652.684 1455.86 649.906 1457.41 L649.906 1452.69 Q652.731 1451.55 655.184 1450.97 Q657.638 1450.39 659.675 1450.39 Q665.045 1450.39 668.24 1453.08 Q671.434 1455.77 671.434 1460.26 Q671.434 1462.39 670.624 1464.31 Q669.837 1466.2 667.73 1468.8 Q667.152 1469.47 664.05 1472.69 Q660.948 1475.88 655.3 1481.64 Z" fill="#000000" fill-rule="evenodd" fill-opacity="1"></path><path clip-path="url(#clip260)" d="M681.434 1479.7 L686.318 1479.7 L686.318 1485.58 L681.434 1485.58 L681.434 1479.7 Z" fill="#000000" fill-rule="evenodd" fill-opacity="1"></path><path clip-path="url(#clip260)" d="M696.55 1451.02 L714.906 1451.02 L714.906 1454.96 L700.832 1454.96 L700.832 1463.43 Q701.851 1463.08 702.869 1462.92 Q703.888 1462.73 704.906 1462.73 Q710.693 1462.73 714.073 1465.9 Q717.452 1469.08 717.452 1474.49 Q717.452 1480.07 713.98 1483.17 Q710.508 1486.25 704.189 1486.25 Q702.013 1486.25 699.744 1485.88 Q697.499 1485.51 695.091 1484.77 L695.091 1480.07 Q697.175 1481.2 699.397 1481.76 Q701.619 1482.32 704.096 1482.32 Q708.101 1482.32 710.439 1480.21 Q712.776 1478.1 712.776 1474.49 Q712.776 1470.88 710.439 1468.77 Q708.101 1466.67 704.096 1466.67 Q702.221 1466.67 700.346 1467.08 Q698.494 1467.5 696.55 1468.38 L696.55 1451.02 Z" fill="#000000" fill-rule="evenodd" fill-opacity="1"></path><path clip-path="url(#clip260)" d="M736.665 1454.1 Q733.054 1454.1 731.225 1457.66 Q729.42 1461.2 729.42 1468.33 Q729.42 1475.44 731.225 1479.01 Q733.054 1482.55 736.665 1482.55 Q740.299 1482.55 742.105 1479.01 Q743.934 1475.44 743.934 1468.33 Q743.934 1461.2 742.105 1457.66 Q740.299 1454.1 736.665 1454.1 M736.665 1450.39 Q742.475 1450.39 745.531 1455 Q748.61 1459.58 748.61 1468.33 Q748.61 1477.06 745.531 1481.67 Q742.475 1486.25 736.665 1486.25 Q730.855 1486.25 727.776 1481.67 Q724.721 1477.06 724.721 1468.33 Q724.721 1459.58 727.776 1455 Q730.855 1450.39 736.665 1450.39 Z" fill="#000000" fill-rule="evenodd" fill-opacity="1"></path><path clip-path="url(#clip260)" d="M833.514 1468.75 L863.19 1468.75 L863.19 1472.69 L833.514 1472.69 L833.514 1468.75 Z" fill="#000000" fill-rule="evenodd" fill-opacity="1"></path><path clip-path="url(#clip260)" d="M877.31 1481.64 L893.629 1481.64 L893.629 1485.58 L871.685 1485.58 L871.685 1481.64 Q874.347 1478.89 878.93 1474.26 Q883.537 1469.61 884.717 1468.27 Q886.963 1465.74 887.842 1464.01 Q888.745 1462.25 888.745 1460.56 Q888.745 1457.8 886.801 1456.07 Q884.879 1454.33 881.778 1454.33 Q879.579 1454.33 877.125 1455.09 Q874.694 1455.86 871.917 1457.41 L871.917 1452.69 Q874.741 1451.55 877.194 1450.97 Q879.648 1450.39 881.685 1450.39 Q887.055 1450.39 890.25 1453.08 Q893.444 1455.77 893.444 1460.26 Q893.444 1462.39 892.634 1464.31 Q891.847 1466.2 889.741 1468.8 Q889.162 1469.47 886.06 1472.69 Q882.958 1475.88 877.31 1481.64 Z" fill="#000000" fill-rule="evenodd" fill-opacity="1"></path><path clip-path="url(#clip260)" d="M903.444 1479.7 L908.328 1479.7 L908.328 1485.58 L903.444 1485.58 L903.444 1479.7 Z" fill="#000000" fill-rule="evenodd" fill-opacity="1"></path><path clip-path="url(#clip260)" d="M922.541 1481.64 L938.861 1481.64 L938.861 1485.58 L916.916 1485.58 L916.916 1481.64 Q919.578 1478.89 924.162 1474.26 Q928.768 1469.61 929.949 1468.27 Q932.194 1465.74 933.074 1464.01 Q933.976 1462.25 933.976 1460.56 Q933.976 1457.8 932.032 1456.07 Q930.111 1454.33 927.009 1454.33 Q924.81 1454.33 922.356 1455.09 Q919.926 1455.86 917.148 1457.41 L917.148 1452.69 Q919.972 1451.55 922.426 1450.97 Q924.879 1450.39 926.916 1450.39 Q932.287 1450.39 935.481 1453.08 Q938.675 1455.77 938.675 1460.26 Q938.675 1462.39 937.865 1464.31 Q937.078 1466.2 934.972 1468.8 Q934.393 1469.47 931.291 1472.69 Q928.189 1475.88 922.541 1481.64 Z" fill="#000000" fill-rule="evenodd" fill-opacity="1"></path><path clip-path="url(#clip260)" d="M948.722 1451.02 L967.078 1451.02 L967.078 1454.96 L953.004 1454.96 L953.004 1463.43 Q954.023 1463.08 955.041 1462.92 Q956.06 1462.73 957.078 1462.73 Q962.865 1462.73 966.245 1465.9 Q969.624 1469.08 969.624 1474.49 Q969.624 1480.07 966.152 1483.17 Q962.68 1486.25 956.361 1486.25 Q954.185 1486.25 951.916 1485.88 Q949.671 1485.51 947.263 1484.77 L947.263 1480.07 Q949.347 1481.2 951.569 1481.76 Q953.791 1482.32 956.268 1482.32 Q960.273 1482.32 962.611 1480.21 Q964.948 1478.1 964.948 1474.49 Q964.948 1470.88 962.611 1468.77 Q960.273 1466.67 956.268 1466.67 Q954.393 1466.67 952.518 1467.08 Q950.666 1467.5 948.722 1468.38 L948.722 1451.02 Z" fill="#000000" fill-rule="evenodd" fill-opacity="1"></path><path clip-path="url(#clip260)" d="M1054.53 1468.75 L1084.2 1468.75 L1084.2 1472.69 L1054.53 1472.69 L1054.53 1468.75 Z" fill="#000000" fill-rule="evenodd" fill-opacity="1"></path><path clip-path="url(#clip260)" d="M1098.32 1481.64 L1114.64 1481.64 L1114.64 1485.58 L1092.7 1485.58 L1092.7 1481.64 Q1095.36 1478.89 1099.95 1474.26 Q1104.55 1469.61 1105.73 1468.27 Q1107.98 1465.74 1108.86 1464.01 Q1109.76 1462.25 1109.76 1460.56 Q1109.76 1457.8 1107.82 1456.07 Q1105.89 1454.33 1102.79 1454.33 Q1100.59 1454.33 1098.14 1455.09 Q1095.71 1455.86 1092.93 1457.41 L1092.93 1452.69 Q1095.76 1451.55 1098.21 1450.97 Q1100.66 1450.39 1102.7 1450.39 Q1108.07 1450.39 1111.26 1453.08 Q1114.46 1455.77 1114.46 1460.26 Q1114.46 1462.39 1113.65 1464.31 Q1112.86 1466.2 1110.76 1468.8 Q1110.18 1469.47 1107.07 1472.69 Q1103.97 1475.88 1098.32 1481.64 Z" fill="#000000" fill-rule="evenodd" fill-opacity="1"></path><path clip-path="url(#clip260)" d="M1124.46 1479.7 L1129.34 1479.7 L1129.34 1485.58 L1124.46 1485.58 L1124.46 1479.7 Z" fill="#000000" fill-rule="evenodd" fill-opacity="1"></path><path clip-path="url(#clip260)" d="M1149.53 1454.1 Q1145.92 1454.1 1144.09 1457.66 Q1142.28 1461.2 1142.28 1468.33 Q1142.28 1475.44 1144.09 1479.01 Q1145.92 1482.55 1149.53 1482.55 Q1153.16 1482.55 1154.97 1479.01 Q1156.8 1475.44 1156.8 1468.33 Q1156.8 1461.2 1154.97 1457.66 Q1153.16 1454.1 1149.53 1454.1 M1149.53 1450.39 Q1155.34 1450.39 1158.39 1455 Q1161.47 1459.58 1161.47 1468.33 Q1161.47 1477.06 1158.39 1481.67 Q1155.34 1486.25 1149.53 1486.25 Q1143.72 1486.25 1140.64 1481.67 Q1137.58 1477.06 1137.58 1468.33 Q1137.58 1459.58 1140.64 1455 Q1143.72 1450.39 1149.53 1450.39 Z" fill="#000000" fill-rule="evenodd" fill-opacity="1"></path><path clip-path="url(#clip260)" d="M1179.69 1454.1 Q1176.08 1454.1 1174.25 1457.66 Q1172.44 1461.2 1172.44 1468.33 Q1172.44 1475.44 1174.25 1479.01 Q1176.08 1482.55 1179.69 1482.55 Q1183.32 1482.55 1185.13 1479.01 Q1186.96 1475.44 1186.96 1468.33 Q1186.96 1461.2 1185.13 1457.66 Q1183.32 1454.1 1179.69 1454.1 M1179.69 1450.39 Q1185.5 1450.39 1188.56 1455 Q1191.63 1459.58 1191.63 1468.33 Q1191.63 1477.06 1188.56 1481.67 Q1185.5 1486.25 1179.69 1486.25 Q1173.88 1486.25 1170.8 1481.67 Q1167.75 1477.06 1167.75 1468.33 Q1167.75 1459.58 1170.8 1455 Q1173.88 1450.39 1179.69 1450.39 Z" fill="#000000" fill-rule="evenodd" fill-opacity="1"></path><path clip-path="url(#clip260)" d="M1276.54 1468.75 L1306.21 1468.75 L1306.21 1472.69 L1276.54 1472.69 L1276.54 1468.75 Z" fill="#000000" fill-rule="evenodd" fill-opacity="1"></path><path clip-path="url(#clip260)" d="M1317.12 1481.64 L1324.76 1481.64 L1324.76 1455.28 L1316.45 1456.95 L1316.45 1452.69 L1324.71 1451.02 L1329.39 1451.02 L1329.39 1481.64 L1337.02 1481.64 L1337.02 1485.58 L1317.12 1485.58 L1317.12 1481.64 Z" fill="#000000" fill-rule="evenodd" fill-opacity="1"></path><path clip-path="url(#clip260)" d="M1346.47 1479.7 L1351.35 1479.7 L1351.35 1485.58 L1346.47 1485.58 L1346.47 1479.7 Z" fill="#000000" fill-rule="evenodd" fill-opacity="1"></path><path clip-path="url(#clip260)" d="M1360.36 1451.02 L1382.58 1451.02 L1382.58 1453.01 L1370.03 1485.58 L1365.15 1485.58 L1376.95 1454.96 L1360.36 1454.96 L1360.36 1451.02 Z" fill="#000000" fill-rule="evenodd" fill-opacity="1"></path><path clip-path="url(#clip260)" d="M1391.75 1451.02 L1410.1 1451.02 L1410.1 1454.96 L1396.03 1454.96 L1396.03 1463.43 Q1397.05 1463.08 1398.07 1462.92 Q1399.08 1462.73 1400.1 1462.73 Q1405.89 1462.73 1409.27 1465.9 Q1412.65 1469.08 1412.65 1474.49 Q1412.65 1480.07 1409.18 1483.17 Q1405.7 1486.25 1399.39 1486.25 Q1397.21 1486.25 1394.94 1485.88 Q1392.7 1485.51 1390.29 1484.77 L1390.29 1480.07 Q1392.37 1481.2 1394.59 1481.76 Q1396.82 1482.32 1399.29 1482.32 Q1403.3 1482.32 1405.64 1480.21 Q1407.97 1478.1 1407.97 1474.49 Q1407.97 1470.88 1405.64 1468.77 Q1403.3 1466.67 1399.29 1466.67 Q1397.42 1466.67 1395.54 1467.08 Q1393.69 1467.5 1391.75 1468.38 L1391.75 1451.02 Z" fill="#000000" fill-rule="evenodd" fill-opacity="1"></path><path clip-path="url(#clip260)" d="M647.279 1520.52 L653.708 1520.52 L653.708 1562.63 L676.848 1562.63 L676.848 1568.04 L647.279 1568.04 L647.279 1520.52 Z" fill="#000000" fill-rule="evenodd" fill-opacity="1"></path><path clip-path="url(#clip260)" d="M696.009 1536.5 Q691.298 1536.5 688.561 1540.19 Q685.823 1543.85 685.823 1550.25 Q685.823 1556.65 688.529 1560.34 Q691.266 1564 696.009 1564 Q700.687 1564 703.425 1560.31 Q706.162 1556.62 706.162 1550.25 Q706.162 1543.92 703.425 1540.23 Q700.687 1536.5 696.009 1536.5 M696.009 1531.54 Q703.647 1531.54 708.008 1536.5 Q712.368 1541.47 712.368 1550.25 Q712.368 1559 708.008 1564 Q703.647 1568.97 696.009 1568.97 Q688.338 1568.97 683.977 1564 Q679.649 1559 679.649 1550.25 Q679.649 1541.47 683.977 1536.5 Q688.338 1531.54 696.009 1531.54 Z" fill="#000000" fill-rule="evenodd" fill-opacity="1"></path><path clip-path="url(#clip260)" d="M745.534 1549.81 Q745.534 1543.44 742.892 1539.94 Q740.282 1536.44 735.54 1536.44 Q730.829 1536.44 728.187 1539.94 Q725.577 1543.44 725.577 1549.81 Q725.577 1556.14 728.187 1559.64 Q730.829 1563.14 735.54 1563.14 Q740.282 1563.14 742.892 1559.64 Q745.534 1556.14 745.534 1549.81 M751.39 1563.62 Q751.39 1572.72 747.348 1577.15 Q743.306 1581.6 734.967 1581.6 Q731.879 1581.6 729.142 1581.13 Q726.405 1580.68 723.827 1579.72 L723.827 1574.03 Q726.405 1575.43 728.919 1576.1 Q731.434 1576.76 734.044 1576.76 Q739.805 1576.76 742.669 1573.74 Q745.534 1570.75 745.534 1564.67 L745.534 1561.77 Q743.72 1564.92 740.887 1566.48 Q738.054 1568.04 734.107 1568.04 Q727.551 1568.04 723.54 1563.05 Q719.53 1558.05 719.53 1549.81 Q719.53 1541.53 723.54 1536.53 Q727.551 1531.54 734.107 1531.54 Q738.054 1531.54 740.887 1533.1 Q743.72 1534.66 745.534 1537.81 L745.534 1532.4 L751.39 1532.4 L751.39 1563.62 Z" fill="#000000" fill-rule="evenodd" fill-opacity="1"></path><path clip-path="url(#clip260)" d="M806.899 1533.45 L806.899 1538.98 Q804.417 1537.71 801.743 1537.07 Q799.069 1536.44 796.205 1536.44 Q791.844 1536.44 789.648 1537.77 Q787.484 1539.11 787.484 1541.79 Q787.484 1543.82 789.043 1545 Q790.603 1546.15 795.314 1547.2 L797.319 1547.64 Q803.557 1548.98 806.167 1551.43 Q808.809 1553.85 808.809 1558.21 Q808.809 1563.17 804.862 1566.07 Q800.947 1568.97 794.072 1568.97 Q791.208 1568.97 788.089 1568.39 Q785.001 1567.85 781.564 1566.74 L781.564 1560.69 Q784.81 1562.38 787.961 1563.24 Q791.112 1564.07 794.2 1564.07 Q798.337 1564.07 800.565 1562.66 Q802.793 1561.23 802.793 1558.65 Q802.793 1556.27 801.17 1554.99 Q799.579 1553.72 794.136 1552.54 L792.099 1552.07 Q786.656 1550.92 784.237 1548.56 Q781.818 1546.18 781.818 1542.04 Q781.818 1537.01 785.383 1534.27 Q788.948 1531.54 795.505 1531.54 Q798.751 1531.54 801.616 1532.01 Q804.48 1532.49 806.899 1533.45 Z" fill="#000000" fill-rule="evenodd" fill-opacity="1"></path><path clip-path="url(#clip260)" d="M823.927 1522.27 L823.927 1532.4 L835.99 1532.4 L835.99 1536.95 L823.927 1536.95 L823.927 1556.3 Q823.927 1560.66 825.105 1561.9 Q826.315 1563.14 829.975 1563.14 L835.99 1563.14 L835.99 1568.04 L829.975 1568.04 Q823.195 1568.04 820.617 1565.53 Q818.039 1562.98 818.039 1556.3 L818.039 1536.95 L813.742 1536.95 L813.742 1532.4 L818.039 1532.4 L818.039 1522.27 L823.927 1522.27 Z" fill="#000000" fill-rule="evenodd" fill-opacity="1"></path><path clip-path="url(#clip260)" d="M874.185 1548.76 L874.185 1551.62 L847.258 1551.62 Q847.64 1557.67 850.886 1560.85 Q854.165 1564 859.989 1564 Q863.363 1564 866.514 1563.17 Q869.697 1562.35 872.816 1560.69 L872.816 1566.23 Q869.665 1567.57 866.355 1568.27 Q863.045 1568.97 859.639 1568.97 Q851.109 1568.97 846.112 1564 Q841.147 1559.04 841.147 1550.57 Q841.147 1541.82 845.857 1536.69 Q850.6 1531.54 858.621 1531.54 Q865.814 1531.54 869.983 1536.18 Q874.185 1540.8 874.185 1548.76 M868.328 1547.04 Q868.265 1542.23 865.623 1539.37 Q863.013 1536.5 858.684 1536.5 Q853.783 1536.5 850.823 1539.27 Q847.894 1542.04 847.449 1547.07 L868.328 1547.04 Z" fill="#000000" fill-rule="evenodd" fill-opacity="1"></path><path clip-path="url(#clip260)" d="M889.462 1562.7 L889.462 1581.6 L883.574 1581.6 L883.574 1532.4 L889.462 1532.4 L889.462 1537.81 Q891.308 1534.62 894.109 1533.1 Q896.942 1531.54 900.857 1531.54 Q907.35 1531.54 911.392 1536.69 Q915.466 1541.85 915.466 1550.25 Q915.466 1558.65 911.392 1563.81 Q907.35 1568.97 900.857 1568.97 Q896.942 1568.97 894.109 1567.44 Q891.308 1565.88 889.462 1562.7 M909.387 1550.25 Q909.387 1543.79 906.713 1540.13 Q904.072 1536.44 899.425 1536.44 Q894.778 1536.44 892.104 1540.13 Q889.462 1543.79 889.462 1550.25 Q889.462 1556.71 892.104 1560.4 Q894.778 1564.07 899.425 1564.07 Q904.072 1564.07 906.713 1560.4 Q909.387 1556.71 909.387 1550.25 Z" fill="#000000" fill-rule="evenodd" fill-opacity="1"></path><path clip-path="url(#clip260)" d="M968.62 1533.45 L968.62 1538.98 Q966.137 1537.71 963.464 1537.07 Q960.79 1536.44 957.926 1536.44 Q953.565 1536.44 951.369 1537.77 Q949.205 1539.11 949.205 1541.79 Q949.205 1543.82 950.764 1545 Q952.324 1546.15 957.034 1547.2 L959.04 1547.64 Q965.278 1548.98 967.888 1551.43 Q970.53 1553.85 970.53 1558.21 Q970.53 1563.17 966.583 1566.07 Q962.668 1568.97 955.793 1568.97 Q952.928 1568.97 949.809 1568.39 Q946.722 1567.85 943.284 1566.74 L943.284 1560.69 Q946.531 1562.38 949.682 1563.24 Q952.833 1564.07 955.92 1564.07 Q960.058 1564.07 962.286 1562.66 Q964.514 1561.23 964.514 1558.65 Q964.514 1556.27 962.891 1554.99 Q961.299 1553.72 955.857 1552.54 L953.82 1552.07 Q948.377 1550.92 945.958 1548.56 Q943.539 1546.18 943.539 1542.04 Q943.539 1537.01 947.104 1534.27 Q950.669 1531.54 957.225 1531.54 Q960.472 1531.54 963.336 1532.01 Q966.201 1532.49 968.62 1533.45 Z" fill="#000000" fill-rule="evenodd" fill-opacity="1"></path><path clip-path="url(#clip260)" d="M979.855 1532.4 L985.712 1532.4 L985.712 1568.04 L979.855 1568.04 L979.855 1532.4 M979.855 1518.52 L985.712 1518.52 L985.712 1525.93 L979.855 1525.93 L979.855 1518.52 Z" fill="#000000" fill-rule="evenodd" fill-opacity="1"></path><path clip-path="url(#clip260)" d="M995.42 1532.4 L1023.24 1532.4 L1023.24 1537.74 L1001.21 1563.37 L1023.24 1563.37 L1023.24 1568.04 L994.624 1568.04 L994.624 1562.7 L1016.65 1537.07 L995.42 1537.07 L995.42 1532.4 Z" fill="#000000" fill-rule="evenodd" fill-opacity="1"></path><path clip-path="url(#clip260)" d="M1062.67 1548.76 L1062.67 1551.62 L1035.75 1551.62 Q1036.13 1557.67 1039.37 1560.85 Q1042.65 1564 1048.48 1564 Q1051.85 1564 1055 1563.17 Q1058.19 1562.35 1061.3 1560.69 L1061.3 1566.23 Q1058.15 1567.57 1054.84 1568.27 Q1051.53 1568.97 1048.13 1568.97 Q1039.6 1568.97 1034.6 1564 Q1029.64 1559.04 1029.64 1550.57 Q1029.64 1541.82 1034.35 1536.69 Q1039.09 1531.54 1047.11 1531.54 Q1054.3 1531.54 1058.47 1536.18 Q1062.67 1540.8 1062.67 1548.76 M1056.82 1547.04 Q1056.75 1542.23 1054.11 1539.37 Q1051.5 1536.5 1047.17 1536.5 Q1042.27 1536.5 1039.31 1539.27 Q1036.38 1542.04 1035.94 1547.07 L1056.82 1547.04 Z" fill="#000000" fill-rule="evenodd" fill-opacity="1"></path><polyline clip-path="url(#clip262)" style="stroke:#000000; stroke-linecap:round; stroke-linejoin:round; stroke-width:2; stroke-opacity:0.1; fill:none" points="
  203.964,1298.72 1505.99,1298.72 
  "></polyline>
<polyline clip-path="url(#clip262)" style="stroke:#000000; stroke-linecap:round; stroke-linejoin:round; stroke-width:2; stroke-opacity:0.1; fill:none" points="
  203.964,1049.28 1505.99,1049.28 
  "></polyline>
<polyline clip-path="url(#clip262)" style="stroke:#000000; stroke-linecap:round; stroke-linejoin:round; stroke-width:2; stroke-opacity:0.1; fill:none" points="
  203.964,799.832 1505.99,799.832 
  "></polyline>
<polyline clip-path="url(#clip262)" style="stroke:#000000; stroke-linecap:round; stroke-linejoin:round; stroke-width:2; stroke-opacity:0.1; fill:none" points="
  203.964,550.387 1505.99,550.387 
  "></polyline>
<polyline clip-path="url(#clip262)" style="stroke:#000000; stroke-linecap:round; stroke-linejoin:round; stroke-width:2; stroke-opacity:0.1; fill:none" points="
  203.964,300.943 1505.99,300.943 
  "></polyline>
<polyline clip-path="url(#clip260)" style="stroke:#000000; stroke-linecap:round; stroke-linejoin:round; stroke-width:4; stroke-opacity:1; fill:none" points="
  203.964,1423.18 203.964,123.472 
  "></polyline>
<polyline clip-path="url(#clip260)" style="stroke:#000000; stroke-linecap:round; stroke-linejoin:round; stroke-width:4; stroke-opacity:1; fill:none" points="
  203.964,1298.72 215.414,1298.72 
  "></polyline>
<polyline clip-path="url(#clip260)" style="stroke:#000000; stroke-linecap:round; stroke-linejoin:round; stroke-width:4; stroke-opacity:1; fill:none" points="
  203.964,1049.28 215.414,1049.28 
  "></polyline>
<polyline clip-path="url(#clip260)" style="stroke:#000000; stroke-linecap:round; stroke-linejoin:round; stroke-width:4; stroke-opacity:1; fill:none" points="
  203.964,799.832 215.414,799.832 
  "></polyline>
<polyline clip-path="url(#clip260)" style="stroke:#000000; stroke-linecap:round; stroke-linejoin:round; stroke-width:4; stroke-opacity:1; fill:none" points="
  203.964,550.387 215.414,550.387 
  "></polyline>
<polyline clip-path="url(#clip260)" style="stroke:#000000; stroke-linecap:round; stroke-linejoin:round; stroke-width:4; stroke-opacity:1; fill:none" points="
  203.964,300.943 215.414,300.943 
  "></polyline>
<path clip-path="url(#clip260)" d="M156.019 1284.52 Q152.408 1284.52 150.579 1288.08 Q148.774 1291.63 148.774 1298.76 Q148.774 1305.86 150.579 1309.43 Q152.408 1312.97 156.019 1312.97 Q159.653 1312.97 161.459 1309.43 Q163.288 1305.86 163.288 1298.76 Q163.288 1291.63 161.459 1288.08 Q159.653 1284.52 156.019 1284.52 M156.019 1280.82 Q161.829 1280.82 164.885 1285.42 Q167.964 1290.01 167.964 1298.76 Q167.964 1307.48 164.885 1312.09 Q161.829 1316.67 156.019 1316.67 Q150.209 1316.67 147.13 1312.09 Q144.075 1307.48 144.075 1298.76 Q144.075 1290.01 147.13 1285.42 Q150.209 1280.82 156.019 1280.82 Z" fill="#000000" fill-rule="evenodd" fill-opacity="1"></path><path clip-path="url(#clip260)" d="M147.061 1032 L165.417 1032 L165.417 1035.93 L151.343 1035.93 L151.343 1044.4 Q152.362 1044.06 153.38 1043.89 Q154.399 1043.71 155.417 1043.71 Q161.204 1043.71 164.584 1046.88 Q167.964 1050.05 167.964 1055.47 Q167.964 1061.05 164.491 1064.15 Q161.019 1067.23 154.7 1067.23 Q152.524 1067.23 150.255 1066.86 Q148.01 1066.49 145.603 1065.75 L145.603 1061.05 Q147.686 1062.18 149.908 1062.74 Q152.13 1063.29 154.607 1063.29 Q158.612 1063.29 160.95 1061.19 Q163.288 1059.08 163.288 1055.47 Q163.288 1051.86 160.95 1049.75 Q158.612 1047.64 154.607 1047.64 Q152.732 1047.64 150.857 1048.06 Q149.005 1048.48 147.061 1049.36 L147.061 1032 Z" fill="#000000" fill-rule="evenodd" fill-opacity="1"></path><path clip-path="url(#clip260)" d="M116.668 813.177 L124.306 813.177 L124.306 786.811 L115.996 788.478 L115.996 784.219 L124.26 782.552 L128.936 782.552 L128.936 813.177 L136.575 813.177 L136.575 817.112 L116.668 817.112 L116.668 813.177 Z" fill="#000000" fill-rule="evenodd" fill-opacity="1"></path><path clip-path="url(#clip260)" d="M156.019 785.631 Q152.408 785.631 150.579 789.195 Q148.774 792.737 148.774 799.867 Q148.774 806.973 150.579 810.538 Q152.408 814.08 156.019 814.08 Q159.653 814.08 161.459 810.538 Q163.288 806.973 163.288 799.867 Q163.288 792.737 161.459 789.195 Q159.653 785.631 156.019 785.631 M156.019 781.927 Q161.829 781.927 164.885 786.533 Q167.964 791.117 167.964 799.867 Q167.964 808.593 164.885 813.2 Q161.829 817.783 156.019 817.783 Q150.209 817.783 147.13 813.2 Q144.075 808.593 144.075 799.867 Q144.075 791.117 147.13 786.533 Q150.209 781.927 156.019 781.927 Z" fill="#000000" fill-rule="evenodd" fill-opacity="1"></path><path clip-path="url(#clip260)" d="M117.663 563.732 L125.302 563.732 L125.302 537.367 L116.992 539.033 L116.992 534.774 L125.255 533.107 L129.931 533.107 L129.931 563.732 L137.57 563.732 L137.57 567.667 L117.663 567.667 L117.663 563.732 Z" fill="#000000" fill-rule="evenodd" fill-opacity="1"></path><path clip-path="url(#clip260)" d="M147.061 533.107 L165.417 533.107 L165.417 537.043 L151.343 537.043 L151.343 545.515 Q152.362 545.168 153.38 545.006 Q154.399 544.82 155.417 544.82 Q161.204 544.82 164.584 547.992 Q167.964 551.163 167.964 556.58 Q167.964 562.158 164.491 565.26 Q161.019 568.339 154.7 568.339 Q152.524 568.339 150.255 567.968 Q148.01 567.598 145.603 566.857 L145.603 562.158 Q147.686 563.292 149.908 563.848 Q152.13 564.404 154.607 564.404 Q158.612 564.404 160.95 562.297 Q163.288 560.191 163.288 556.58 Q163.288 552.968 160.95 550.862 Q158.612 548.755 154.607 548.755 Q152.732 548.755 150.857 549.172 Q149.005 549.589 147.061 550.468 L147.061 533.107 Z" fill="#000000" fill-rule="evenodd" fill-opacity="1"></path><path clip-path="url(#clip260)" d="M119.885 314.288 L136.204 314.288 L136.204 318.223 L114.26 318.223 L114.26 314.288 Q116.922 311.533 121.505 306.904 Q126.112 302.251 127.292 300.908 Q129.538 298.385 130.417 296.649 Q131.32 294.89 131.32 293.2 Q131.32 290.445 129.376 288.709 Q127.455 286.973 124.353 286.973 Q122.154 286.973 119.7 287.737 Q117.269 288.501 114.492 290.052 L114.492 285.33 Q117.316 284.195 119.769 283.617 Q122.223 283.038 124.26 283.038 Q129.63 283.038 132.825 285.723 Q136.019 288.408 136.019 292.899 Q136.019 295.029 135.209 296.95 Q134.422 298.848 132.316 301.441 Q131.737 302.112 128.635 305.329 Q125.533 308.524 119.885 314.288 Z" fill="#000000" fill-rule="evenodd" fill-opacity="1"></path><path clip-path="url(#clip260)" d="M156.019 286.742 Q152.408 286.742 150.579 290.306 Q148.774 293.848 148.774 300.978 Q148.774 308.084 150.579 311.649 Q152.408 315.191 156.019 315.191 Q159.653 315.191 161.459 311.649 Q163.288 308.084 163.288 300.978 Q163.288 293.848 161.459 290.306 Q159.653 286.742 156.019 286.742 M156.019 283.038 Q161.829 283.038 164.885 287.644 Q167.964 292.228 167.964 300.978 Q167.964 309.704 164.885 314.311 Q161.829 318.894 156.019 318.894 Q150.209 318.894 147.13 314.311 Q144.075 309.704 144.075 300.978 Q144.075 292.228 147.13 287.644 Q150.209 283.038 156.019 283.038 Z" fill="#000000" fill-rule="evenodd" fill-opacity="1"></path><path clip-path="url(#clip260)" d="M57.2247 989.633 L44.4614 989.633 L44.4614 1000.14 L39.1779 1000.14 L39.1779 983.267 L59.58 983.267 Q62.2218 986.991 63.5904 991.479 Q64.9272 995.967 64.9272 1001.06 Q64.9272 1012.2 58.4342 1018.5 Q51.9093 1024.77 40.2919 1024.77 Q28.6427 1024.77 22.1496 1018.5 Q15.6248 1012.2 15.6248 1001.06 Q15.6248 996.412 16.7706 992.243 Q17.9164 988.041 20.1444 984.508 L26.9876 984.508 Q23.9639 988.073 22.4361 992.083 Q20.9083 996.094 20.9083 1000.52 Q20.9083 1009.24 25.7781 1013.63 Q30.6479 1017.99 40.2919 1017.99 Q49.9041 1017.99 54.7739 1013.63 Q59.6436 1009.24 59.6436 1000.52 Q59.6436 997.112 59.0707 994.439 Q58.466 991.765 57.2247 989.633 Z" fill="#000000" fill-rule="evenodd" fill-opacity="1"></path><path clip-path="url(#clip260)" d="M14.479 971.777 L14.479 965.92 L64.0042 965.92 L64.0042 971.777 L14.479 971.777 Z" fill="#000000" fill-rule="evenodd" fill-opacity="1"></path><path clip-path="url(#clip260)" d="M32.4621 939.853 Q32.4621 944.563 36.1542 947.301 Q39.8145 950.038 46.212 950.038 Q52.6095 950.038 56.3017 947.333 Q59.9619 944.595 59.9619 939.853 Q59.9619 935.174 56.2698 932.437 Q52.5777 929.7 46.212 929.7 Q39.8781 929.7 36.186 932.437 Q32.4621 935.174 32.4621 939.853 M27.4968 939.853 Q27.4968 932.214 32.4621 927.854 Q37.4273 923.493 46.212 923.493 Q54.9649 923.493 59.9619 927.854 Q64.9272 932.214 64.9272 939.853 Q64.9272 947.524 59.9619 951.884 Q54.9649 956.213 46.212 956.213 Q37.4273 956.213 32.4621 951.884 Q27.4968 947.524 27.4968 939.853 Z" fill="#000000" fill-rule="evenodd" fill-opacity="1"></path><path clip-path="url(#clip260)" d="M46.212 888.195 Q39.7508 888.195 36.0905 890.869 Q32.3984 893.511 32.3984 898.157 Q32.3984 902.804 36.0905 905.478 Q39.7508 908.12 46.212 908.12 Q52.6732 908.12 56.3653 905.478 Q60.0256 902.804 60.0256 898.157 Q60.0256 893.511 56.3653 890.869 Q52.6732 888.195 46.212 888.195 M33.7671 908.12 Q30.5842 906.274 29.0564 903.473 Q27.4968 900.64 27.4968 896.725 Q27.4968 890.232 32.6531 886.19 Q37.8093 882.116 46.212 882.116 Q54.6147 882.116 59.771 886.19 Q64.9272 890.232 64.9272 896.725 Q64.9272 900.64 63.3994 903.473 Q61.8398 906.274 58.657 908.12 L64.0042 908.12 L64.0042 914.008 L14.479 914.008 L14.479 908.12 L33.7671 908.12 Z" fill="#000000" fill-rule="evenodd" fill-opacity="1"></path><path clip-path="url(#clip260)" d="M46.0847 856.207 Q46.0847 863.305 47.7079 866.043 Q49.3312 868.78 53.2461 868.78 Q56.3653 868.78 58.2114 866.743 Q60.0256 864.674 60.0256 861.141 Q60.0256 856.271 56.5881 853.343 Q53.1188 850.383 47.3897 850.383 L46.0847 850.383 L46.0847 856.207 M43.6657 844.526 L64.0042 844.526 L64.0042 850.383 L58.5933 850.383 Q61.8398 852.388 63.3994 855.38 Q64.9272 858.372 64.9272 862.701 Q64.9272 868.175 61.8716 871.422 Q58.7843 874.636 53.6281 874.636 Q47.6125 874.636 44.5569 870.626 Q41.5014 866.584 41.5014 858.595 L41.5014 850.383 L40.9285 850.383 Q36.8862 850.383 34.6901 853.056 Q32.4621 855.698 32.4621 860.504 Q32.4621 863.56 33.1941 866.456 Q33.9262 869.353 35.3903 872.026 L29.9795 872.026 Q28.7381 868.812 28.1334 865.788 Q27.4968 862.764 27.4968 859.9 Q27.4968 852.165 31.5072 848.346 Q35.5176 844.526 43.6657 844.526 Z" fill="#000000" fill-rule="evenodd" fill-opacity="1"></path><path clip-path="url(#clip260)" d="M14.479 832.463 L14.479 826.607 L64.0042 826.607 L64.0042 832.463 L14.479 832.463 Z" fill="#000000" fill-rule="evenodd" fill-opacity="1"></path><path clip-path="url(#clip260)" d="M14.479 793.633 L14.479 787.776 L64.0042 787.776 L64.0042 793.633 L14.479 793.633 Z" fill="#000000" fill-rule="evenodd" fill-opacity="1"></path><path clip-path="url(#clip260)" d="M32.4621 761.709 Q32.4621 766.419 36.1542 769.156 Q39.8145 771.894 46.212 771.894 Q52.6095 771.894 56.3017 769.188 Q59.9619 766.451 59.9619 761.709 Q59.9619 757.03 56.2698 754.293 Q52.5777 751.555 46.212 751.555 Q39.8781 751.555 36.186 754.293 Q32.4621 757.03 32.4621 761.709 M27.4968 761.709 Q27.4968 754.07 32.4621 749.709 Q37.4273 745.349 46.212 745.349 Q54.9649 745.349 59.9619 749.709 Q64.9272 754.07 64.9272 761.709 Q64.9272 769.379 59.9619 773.74 Q54.9649 778.068 46.212 778.068 Q37.4273 778.068 32.4621 773.74 Q27.4968 769.379 27.4968 761.709 Z" fill="#000000" fill-rule="evenodd" fill-opacity="1"></path><path clip-path="url(#clip260)" d="M45.7664 712.183 Q39.4007 712.183 35.8996 714.825 Q32.3984 717.435 32.3984 722.178 Q32.3984 726.888 35.8996 729.53 Q39.4007 732.14 45.7664 732.14 Q52.1003 732.14 55.6014 729.53 Q59.1026 726.888 59.1026 722.178 Q59.1026 717.435 55.6014 714.825 Q52.1003 712.183 45.7664 712.183 M59.58 706.327 Q68.683 706.327 73.1071 710.369 Q77.5631 714.411 77.5631 722.75 Q77.5631 725.838 77.0857 728.575 Q76.6401 731.312 75.6852 733.89 L69.9879 733.89 Q71.3884 731.312 72.0568 728.798 Q72.7252 726.283 72.7252 723.673 Q72.7252 717.913 69.7015 715.048 Q66.7096 712.183 60.6303 712.183 L57.7339 712.183 Q60.885 713.998 62.4446 716.83 Q64.0042 719.663 64.0042 723.61 Q64.0042 730.166 59.0071 734.177 Q54.01 738.187 45.7664 738.187 Q37.491 738.187 32.4939 734.177 Q27.4968 730.166 27.4968 723.61 Q27.4968 719.663 29.0564 716.83 Q30.616 713.998 33.7671 712.183 L28.3562 712.183 L28.3562 706.327 L59.58 706.327 Z" fill="#000000" fill-rule="evenodd" fill-opacity="1"></path><path clip-path="url(#clip260)" d="M44.7161 643.052 L47.5806 643.052 L47.5806 669.979 Q53.6281 669.597 56.8109 666.35 Q59.9619 663.072 59.9619 657.247 Q59.9619 653.873 59.1344 650.722 Q58.3069 647.54 56.6518 644.42 L62.1899 644.42 Q63.5267 647.571 64.227 650.882 Q64.9272 654.192 64.9272 657.597 Q64.9272 666.127 59.9619 671.125 Q54.9967 676.09 46.5303 676.09 Q37.7774 676.09 32.6531 671.379 Q27.4968 666.637 27.4968 658.616 Q27.4968 651.423 32.1438 647.253 Q36.7589 643.052 44.7161 643.052 M42.9973 648.908 Q38.1912 648.972 35.3266 651.614 Q32.4621 654.224 32.4621 658.552 Q32.4621 663.454 35.2312 666.414 Q38.0002 669.342 43.0292 669.788 L42.9973 648.908 Z" fill="#000000" fill-rule="evenodd" fill-opacity="1"></path><path clip-path="url(#clip260)" d="M33.8307 612.783 Q33.2578 613.77 33.0032 614.947 Q32.7167 616.093 32.7167 617.493 Q32.7167 622.459 35.9632 625.132 Q39.1779 627.774 45.2253 627.774 L64.0042 627.774 L64.0042 633.662 L28.3562 633.662 L28.3562 627.774 L33.8944 627.774 Q30.6479 625.928 29.0883 622.968 Q27.4968 620.008 27.4968 615.775 Q27.4968 615.17 27.5923 614.438 Q27.656 613.706 27.8151 612.815 L33.8307 612.783 Z" fill="#000000" fill-rule="evenodd" fill-opacity="1"></path><path clip-path="url(#clip260)" d="M33.8307 587.129 Q33.2578 588.116 33.0032 589.293 Q32.7167 590.439 32.7167 591.84 Q32.7167 596.805 35.9632 599.479 Q39.1779 602.12 45.2253 602.12 L64.0042 602.12 L64.0042 608.009 L28.3562 608.009 L28.3562 602.12 L33.8944 602.12 Q30.6479 600.274 29.0883 597.314 Q27.4968 594.354 27.4968 590.121 Q27.4968 589.516 27.5923 588.784 Q27.656 588.052 27.8151 587.161 L33.8307 587.129 Z" fill="#000000" fill-rule="evenodd" fill-opacity="1"></path><path clip-path="url(#clip260)" d="M32.4621 568.605 Q32.4621 573.315 36.1542 576.053 Q39.8145 578.79 46.212 578.79 Q52.6095 578.79 56.3017 576.085 Q59.9619 573.347 59.9619 568.605 Q59.9619 563.926 56.2698 561.189 Q52.5777 558.452 46.212 558.452 Q39.8781 558.452 36.186 561.189 Q32.4621 563.926 32.4621 568.605 M27.4968 568.605 Q27.4968 560.966 32.4621 556.606 Q37.4273 552.245 46.212 552.245 Q54.9649 552.245 59.9619 556.606 Q64.9272 560.966 64.9272 568.605 Q64.9272 576.276 59.9619 580.636 Q54.9649 584.965 46.212 584.965 Q37.4273 584.965 32.4621 580.636 Q27.4968 576.276 27.4968 568.605 Z" fill="#000000" fill-rule="evenodd" fill-opacity="1"></path><path clip-path="url(#clip260)" d="M33.8307 521.881 Q33.2578 522.867 33.0032 524.045 Q32.7167 525.191 32.7167 526.591 Q32.7167 531.556 35.9632 534.23 Q39.1779 536.872 45.2253 536.872 L64.0042 536.872 L64.0042 542.76 L28.3562 542.76 L28.3562 536.872 L33.8944 536.872 Q30.6479 535.026 29.0883 532.066 Q27.4968 529.106 27.4968 524.872 Q27.4968 524.268 27.5923 523.536 Q27.656 522.804 27.8151 521.912 L33.8307 521.881 Z" fill="#000000" fill-rule="evenodd" fill-opacity="1"></path><path clip-path="url(#clip260)" d="M157.917 16.7545 L157.917 25.383 Q153.785 21.5346 149.086 19.6307 Q144.427 17.7268 139.161 17.7268 Q128.791 17.7268 123.282 24.0867 Q117.772 30.4061 117.772 42.3968 Q117.772 54.3469 123.282 60.7069 Q128.791 67.0263 139.161 67.0263 Q144.427 67.0263 149.086 65.1223 Q153.785 63.2184 157.917 59.3701 L157.917 67.9175 Q153.623 70.8341 148.802 72.2924 Q144.022 73.7508 138.675 73.7508 Q124.942 73.7508 117.043 65.3654 Q109.144 56.9395 109.144 42.3968 Q109.144 27.8135 117.043 19.4281 Q124.942 11.0023 138.675 11.0023 Q144.103 11.0023 148.883 12.4606 Q153.704 13.8784 157.917 16.7545 Z" fill="#000000" fill-rule="evenodd" fill-opacity="1"></path><path clip-path="url(#clip260)" d="M187.813 32.4315 Q181.817 32.4315 178.333 37.1306 Q174.85 41.7891 174.85 49.9314 Q174.85 58.0738 178.293 62.7728 Q181.777 67.4314 187.813 67.4314 Q193.767 67.4314 197.251 62.7323 Q200.735 58.0333 200.735 49.9314 Q200.735 41.8701 197.251 37.1711 Q193.767 32.4315 187.813 32.4315 M187.813 26.1121 Q197.535 26.1121 203.084 32.4315 Q208.634 38.7509 208.634 49.9314 Q208.634 61.0714 203.084 67.4314 Q197.535 73.7508 187.813 73.7508 Q178.05 73.7508 172.5 67.4314 Q166.991 61.0714 166.991 49.9314 Q166.991 38.7509 172.5 32.4315 Q178.05 26.1121 187.813 26.1121 Z" fill="#000000" fill-rule="evenodd" fill-opacity="1"></path><path clip-path="url(#clip260)" d="M258.703 45.1919 L258.703 72.576 L251.25 72.576 L251.25 45.4349 Q251.25 38.994 248.738 35.7938 Q246.227 32.5936 241.203 32.5936 Q235.168 32.5936 231.684 36.4419 Q228.2 40.2903 228.2 46.9338 L228.2 72.576 L220.706 72.576 L220.706 27.2059 L228.2 27.2059 L228.2 34.2544 Q230.874 30.163 234.479 28.1376 Q238.125 26.1121 242.864 26.1121 Q250.683 26.1121 254.693 30.9732 Q258.703 35.7938 258.703 45.1919 Z" fill="#000000" fill-rule="evenodd" fill-opacity="1"></path><path clip-path="url(#clip260)" d="M268.223 27.2059 L276.122 27.2059 L290.3 65.2844 L304.479 27.2059 L312.378 27.2059 L295.364 72.576 L285.237 72.576 L268.223 27.2059 Z" fill="#000000" fill-rule="evenodd" fill-opacity="1"></path><path clip-path="url(#clip260)" d="M361.475 48.0275 L361.475 51.6733 L327.204 51.6733 Q327.69 59.3701 331.822 63.421 Q335.995 67.4314 343.408 67.4314 Q347.702 67.4314 351.712 66.3781 Q355.763 65.3249 359.733 63.2184 L359.733 70.267 Q355.722 71.9684 351.51 72.8596 Q347.297 73.7508 342.962 73.7508 Q332.106 73.7508 325.746 67.4314 Q319.426 61.1119 319.426 50.3365 Q319.426 39.1965 325.422 32.6746 Q331.458 26.1121 341.666 26.1121 Q350.821 26.1121 356.128 32.0264 Q361.475 37.9003 361.475 48.0275 M354.021 45.84 Q353.94 39.7232 350.578 36.0774 Q347.256 32.4315 341.747 32.4315 Q335.508 32.4315 331.741 35.9558 Q328.014 39.4801 327.447 45.8805 L354.021 45.84 Z" fill="#000000" fill-rule="evenodd" fill-opacity="1"></path><path clip-path="url(#clip260)" d="M399.999 34.1734 Q398.743 33.4443 397.244 33.1202 Q395.786 32.7556 394.004 32.7556 Q387.684 32.7556 384.281 36.8875 Q380.919 40.9789 380.919 48.6757 L380.919 72.576 L373.425 72.576 L373.425 27.2059 L380.919 27.2059 L380.919 34.2544 Q383.269 30.1225 387.036 28.1376 Q390.803 26.1121 396.191 26.1121 Q396.961 26.1121 397.892 26.2337 Q398.824 26.3147 399.958 26.5172 L399.999 34.1734 Z" fill="#000000" fill-rule="evenodd" fill-opacity="1"></path><path clip-path="url(#clip260)" d="M436.214 49.3643 Q436.214 41.2625 432.852 36.8065 Q429.53 32.3505 423.494 32.3505 Q417.499 32.3505 414.137 36.8065 Q410.815 41.2625 410.815 49.3643 Q410.815 57.4256 414.137 61.8816 Q417.499 66.3376 423.494 66.3376 Q429.53 66.3376 432.852 61.8816 Q436.214 57.4256 436.214 49.3643 M443.668 66.9452 Q443.668 78.5308 438.523 84.1616 Q433.378 89.8329 422.765 89.8329 Q418.836 89.8329 415.352 89.2252 Q411.868 88.6581 408.587 87.4428 L408.587 80.1917 Q411.868 81.9741 415.068 82.8248 Q418.268 83.6755 421.59 83.6755 Q428.922 83.6755 432.568 79.8271 Q436.214 76.0193 436.214 68.282 L436.214 64.5957 Q433.905 68.6061 430.3 70.5911 Q426.694 72.576 421.671 72.576 Q413.326 72.576 408.222 66.2161 Q403.118 59.8562 403.118 49.3643 Q403.118 38.832 408.222 32.472 Q413.326 26.1121 421.671 26.1121 Q426.694 26.1121 430.3 28.0971 Q433.905 30.082 436.214 34.0924 L436.214 27.2059 L443.668 27.2059 L443.668 66.9452 Z" fill="#000000" fill-rule="evenodd" fill-opacity="1"></path><path clip-path="url(#clip260)" d="M497.828 48.0275 L497.828 51.6733 L463.558 51.6733 Q464.044 59.3701 468.176 63.421 Q472.348 67.4314 479.761 67.4314 Q484.055 67.4314 488.066 66.3781 Q492.116 65.3249 496.086 63.2184 L496.086 70.267 Q492.076 71.9684 487.863 72.8596 Q483.65 73.7508 479.316 73.7508 Q468.459 73.7508 462.099 67.4314 Q455.78 61.1119 455.78 50.3365 Q455.78 39.1965 461.775 32.6746 Q467.811 26.1121 478.019 26.1121 Q487.174 26.1121 492.481 32.0264 Q497.828 37.9003 497.828 48.0275 M490.375 45.84 Q490.294 39.7232 486.931 36.0774 Q483.61 32.4315 478.1 32.4315 Q471.862 32.4315 468.095 35.9558 Q464.368 39.4801 463.801 45.8805 L490.375 45.84 Z" fill="#000000" fill-rule="evenodd" fill-opacity="1"></path><path clip-path="url(#clip260)" d="M547.776 45.1919 L547.776 72.576 L540.322 72.576 L540.322 45.4349 Q540.322 38.994 537.811 35.7938 Q535.299 32.5936 530.276 32.5936 Q524.24 32.5936 520.756 36.4419 Q517.273 40.2903 517.273 46.9338 L517.273 72.576 L509.778 72.576 L509.778 27.2059 L517.273 27.2059 L517.273 34.2544 Q519.946 30.163 523.551 28.1376 Q527.197 26.1121 531.937 26.1121 Q539.755 26.1121 543.765 30.9732 Q547.776 35.7938 547.776 45.1919 Z" fill="#000000" fill-rule="evenodd" fill-opacity="1"></path><path clip-path="url(#clip260)" d="M595.293 28.9478 L595.293 35.9153 Q592.133 34.1734 588.933 33.3227 Q585.773 32.4315 582.533 32.4315 Q575.281 32.4315 571.271 37.0496 Q567.261 41.6271 567.261 49.9314 Q567.261 58.2358 571.271 62.8538 Q575.281 67.4314 582.533 67.4314 Q585.773 67.4314 588.933 66.5807 Q592.133 65.6895 595.293 63.9476 L595.293 70.8341 Q592.174 72.2924 588.812 73.0216 Q585.49 73.7508 581.722 73.7508 Q571.474 73.7508 565.438 67.3098 Q559.402 60.8689 559.402 49.9314 Q559.402 38.832 565.478 32.472 Q571.595 26.1121 582.209 26.1121 Q585.652 26.1121 588.933 26.8413 Q592.214 27.5299 595.293 28.9478 Z" fill="#000000" fill-rule="evenodd" fill-opacity="1"></path><path clip-path="url(#clip260)" d="M647.064 48.0275 L647.064 51.6733 L612.793 51.6733 Q613.279 59.3701 617.411 63.421 Q621.583 67.4314 628.996 67.4314 Q633.29 67.4314 637.301 66.3781 Q641.352 65.3249 645.322 63.2184 L645.322 70.267 Q641.311 71.9684 637.098 72.8596 Q632.885 73.7508 628.551 73.7508 Q617.694 73.7508 611.335 67.4314 Q605.015 61.1119 605.015 50.3365 Q605.015 39.1965 611.01 32.6746 Q617.046 26.1121 627.255 26.1121 Q636.41 26.1121 641.716 32.0264 Q647.064 37.9003 647.064 48.0275 M639.61 45.84 Q639.529 39.7232 636.167 36.0774 Q632.845 32.4315 627.336 32.4315 Q621.097 32.4315 617.33 35.9558 Q613.603 39.4801 613.036 45.8805 L639.61 45.84 Z" fill="#000000" fill-rule="evenodd" fill-opacity="1"></path><path clip-path="url(#clip260)" d="M692.879 65.7705 L692.879 89.8329 L685.385 89.8329 L685.385 27.2059 L692.879 27.2059 L692.879 34.0924 Q695.229 30.0415 698.794 28.0971 Q702.399 26.1121 707.381 26.1121 Q715.645 26.1121 720.79 32.6746 Q725.975 39.2371 725.975 49.9314 Q725.975 60.6258 720.79 67.1883 Q715.645 73.7508 707.381 73.7508 Q702.399 73.7508 698.794 71.8063 Q695.229 69.8214 692.879 65.7705 M718.238 49.9314 Q718.238 41.7081 714.835 37.0496 Q711.473 32.3505 705.559 32.3505 Q699.644 32.3505 696.241 37.0496 Q692.879 41.7081 692.879 49.9314 Q692.879 58.1548 696.241 62.8538 Q699.644 67.5124 705.559 67.5124 Q711.473 67.5124 714.835 62.8538 Q718.238 58.1548 718.238 49.9314 Z" fill="#000000" fill-rule="evenodd" fill-opacity="1"></path><path clip-path="url(#clip260)" d="M738.33 9.54393 L745.784 9.54393 L745.784 72.576 L738.33 72.576 L738.33 9.54393 Z" fill="#000000" fill-rule="evenodd" fill-opacity="1"></path><path clip-path="url(#clip260)" d="M778.961 32.4315 Q772.966 32.4315 769.482 37.1306 Q765.998 41.7891 765.998 49.9314 Q765.998 58.0738 769.441 62.7728 Q772.925 67.4314 778.961 67.4314 Q784.916 67.4314 788.4 62.7323 Q791.883 58.0333 791.883 49.9314 Q791.883 41.8701 788.4 37.1711 Q784.916 32.4315 778.961 32.4315 M778.961 26.1121 Q788.683 26.1121 794.233 32.4315 Q799.783 38.7509 799.783 49.9314 Q799.783 61.0714 794.233 67.4314 Q788.683 73.7508 778.961 73.7508 Q769.198 73.7508 763.649 67.4314 Q758.139 61.0714 758.139 49.9314 Q758.139 38.7509 763.649 32.4315 Q769.198 26.1121 778.961 26.1121 Z" fill="#000000" fill-rule="evenodd" fill-opacity="1"></path><path clip-path="url(#clip260)" d="M819.511 14.324 L819.511 27.2059 L834.863 27.2059 L834.863 32.9987 L819.511 32.9987 L819.511 57.6282 Q819.511 63.1779 821.009 64.7578 Q822.549 66.3376 827.207 66.3376 L834.863 66.3376 L834.863 72.576 L827.207 72.576 Q818.579 72.576 815.298 69.3758 Q812.016 66.1351 812.016 57.6282 L812.016 32.9987 L806.548 32.9987 L806.548 27.2059 L812.016 27.2059 L812.016 14.324 L819.511 14.324 Z" fill="#000000" fill-rule="evenodd" fill-opacity="1"></path><path clip-path="url(#clip260)" d="M866.704 27.2059 L874.157 27.2059 L883.474 62.6108 L892.751 27.2059 L901.541 27.2059 L910.858 62.6108 L920.135 27.2059 L927.589 27.2059 L915.719 72.576 L906.929 72.576 L897.166 35.3887 L887.363 72.576 L878.573 72.576 L866.704 27.2059 Z" fill="#000000" fill-rule="evenodd" fill-opacity="1"></path><path clip-path="url(#clip260)" d="M938.891 27.2059 L946.344 27.2059 L946.344 72.576 L938.891 72.576 L938.891 27.2059 M938.891 9.54393 L946.344 9.54393 L946.344 18.9825 L938.891 18.9825 L938.891 9.54393 Z" fill="#000000" fill-rule="evenodd" fill-opacity="1"></path><path clip-path="url(#clip260)" d="M969.313 14.324 L969.313 27.2059 L984.666 27.2059 L984.666 32.9987 L969.313 32.9987 L969.313 57.6282 Q969.313 63.1779 970.812 64.7578 Q972.351 66.3376 977.01 66.3376 L984.666 66.3376 L984.666 72.576 L977.01 72.576 Q968.381 72.576 965.1 69.3758 Q961.819 66.1351 961.819 57.6282 L961.819 32.9987 L956.35 32.9987 L956.35 27.2059 L961.819 27.2059 L961.819 14.324 L969.313 14.324 Z" fill="#000000" fill-rule="evenodd" fill-opacity="1"></path><path clip-path="url(#clip260)" d="M1032.18 45.1919 L1032.18 72.576 L1024.73 72.576 L1024.73 45.4349 Q1024.73 38.994 1022.22 35.7938 Q1019.71 32.5936 1014.68 32.5936 Q1008.65 32.5936 1005.16 36.4419 Q1001.68 40.2903 1001.68 46.9338 L1001.68 72.576 L994.185 72.576 L994.185 9.54393 L1001.68 9.54393 L1001.68 34.2544 Q1004.35 30.163 1007.96 28.1376 Q1011.6 26.1121 1016.34 26.1121 Q1024.16 26.1121 1028.17 30.9732 Q1032.18 35.7938 1032.18 45.1919 Z" fill="#000000" fill-rule="evenodd" fill-opacity="1"></path><path clip-path="url(#clip260)" d="M1096.96 19.2256 L1076.3 51.5113 L1096.96 51.5113 L1096.96 19.2256 M1094.81 12.096 L1105.1 12.096 L1105.1 51.5113 L1113.73 51.5113 L1113.73 58.3168 L1105.1 58.3168 L1105.1 72.576 L1096.96 72.576 L1096.96 58.3168 L1069.65 58.3168 L1069.65 50.4176 L1094.81 12.096 Z" fill="#000000" fill-rule="evenodd" fill-opacity="1"></path><path clip-path="url(#clip260)" d="M1185.23 28.9478 L1185.23 35.9153 Q1182.07 34.1734 1178.87 33.3227 Q1175.71 32.4315 1172.47 32.4315 Q1165.21 32.4315 1161.2 37.0496 Q1157.19 41.6271 1157.19 49.9314 Q1157.19 58.2358 1161.2 62.8538 Q1165.21 67.4314 1172.47 67.4314 Q1175.71 67.4314 1178.87 66.5807 Q1182.07 65.6895 1185.23 63.9476 L1185.23 70.8341 Q1182.11 72.2924 1178.74 73.0216 Q1175.42 73.7508 1171.66 73.7508 Q1161.41 73.7508 1155.37 67.3098 Q1149.34 60.8689 1149.34 49.9314 Q1149.34 38.832 1155.41 32.472 Q1161.53 26.1121 1172.14 26.1121 Q1175.58 26.1121 1178.87 26.8413 Q1182.15 27.5299 1185.23 28.9478 Z" fill="#000000" fill-rule="evenodd" fill-opacity="1"></path><path clip-path="url(#clip260)" d="M1215.77 32.4315 Q1209.77 32.4315 1206.29 37.1306 Q1202.81 41.7891 1202.81 49.9314 Q1202.81 58.0738 1206.25 62.7728 Q1209.73 67.4314 1215.77 67.4314 Q1221.72 67.4314 1225.21 62.7323 Q1228.69 58.0333 1228.69 49.9314 Q1228.69 41.8701 1225.21 37.1711 Q1221.72 32.4315 1215.77 32.4315 M1215.77 26.1121 Q1225.49 26.1121 1231.04 32.4315 Q1236.59 38.7509 1236.59 49.9314 Q1236.59 61.0714 1231.04 67.4314 Q1225.49 73.7508 1215.77 73.7508 Q1206.01 73.7508 1200.46 67.4314 Q1194.95 61.0714 1194.95 49.9314 Q1194.95 38.7509 1200.46 32.4315 Q1206.01 26.1121 1215.77 26.1121 Z" fill="#000000" fill-rule="evenodd" fill-opacity="1"></path><path clip-path="url(#clip260)" d="M1275.24 34.1734 Q1273.98 33.4443 1272.48 33.1202 Q1271.02 32.7556 1269.24 32.7556 Q1262.92 32.7556 1259.52 36.8875 Q1256.16 40.9789 1256.16 48.6757 L1256.16 72.576 L1248.66 72.576 L1248.66 27.2059 L1256.16 27.2059 L1256.16 34.2544 Q1258.51 30.1225 1262.27 28.1376 Q1266.04 26.1121 1271.43 26.1121 Q1272.2 26.1121 1273.13 26.2337 Q1274.06 26.3147 1275.2 26.5172 L1275.24 34.1734 Z" fill="#000000" fill-rule="evenodd" fill-opacity="1"></path><path clip-path="url(#clip260)" d="M1307.89 34.1734 Q1306.63 33.4443 1305.13 33.1202 Q1303.67 32.7556 1301.89 32.7556 Q1295.57 32.7556 1292.17 36.8875 Q1288.81 40.9789 1288.81 48.6757 L1288.81 72.576 L1281.31 72.576 L1281.31 27.2059 L1288.81 27.2059 L1288.81 34.2544 Q1291.16 30.1225 1294.92 28.1376 Q1298.69 26.1121 1304.08 26.1121 Q1304.85 26.1121 1305.78 26.2337 Q1306.71 26.3147 1307.85 26.5172 L1307.89 34.1734 Z" fill="#000000" fill-rule="evenodd" fill-opacity="1"></path><path clip-path="url(#clip260)" d="M1352.69 48.0275 L1352.69 51.6733 L1318.42 51.6733 Q1318.91 59.3701 1323.04 63.421 Q1327.21 67.4314 1334.62 67.4314 Q1338.92 67.4314 1342.93 66.3781 Q1346.98 65.3249 1350.95 63.2184 L1350.95 70.267 Q1346.94 71.9684 1342.73 72.8596 Q1338.51 73.7508 1334.18 73.7508 Q1323.32 73.7508 1316.96 67.4314 Q1310.64 61.1119 1310.64 50.3365 Q1310.64 39.1965 1316.64 32.6746 Q1322.67 26.1121 1332.88 26.1121 Q1342.04 26.1121 1347.34 32.0264 Q1352.69 37.9003 1352.69 48.0275 M1345.24 45.84 Q1345.16 39.7232 1341.79 36.0774 Q1338.47 32.4315 1332.96 32.4315 Q1326.72 32.4315 1322.96 35.9558 Q1319.23 39.4801 1318.66 45.8805 L1345.24 45.84 Z" fill="#000000" fill-rule="evenodd" fill-opacity="1"></path><path clip-path="url(#clip260)" d="M1397.57 28.9478 L1397.57 35.9153 Q1394.41 34.1734 1391.21 33.3227 Q1388.05 32.4315 1384.81 32.4315 Q1377.56 32.4315 1373.55 37.0496 Q1369.54 41.6271 1369.54 49.9314 Q1369.54 58.2358 1373.55 62.8538 Q1377.56 67.4314 1384.81 67.4314 Q1388.05 67.4314 1391.21 66.5807 Q1394.41 65.6895 1397.57 63.9476 L1397.57 70.8341 Q1394.46 72.2924 1391.09 73.0216 Q1387.77 73.7508 1384 73.7508 Q1373.76 73.7508 1367.72 67.3098 Q1361.68 60.8689 1361.68 49.9314 Q1361.68 38.832 1367.76 32.472 Q1373.88 26.1121 1384.49 26.1121 Q1387.93 26.1121 1391.21 26.8413 Q1394.5 27.5299 1397.57 28.9478 Z" fill="#000000" fill-rule="evenodd" fill-opacity="1"></path><path clip-path="url(#clip260)" d="M1417.91 14.324 L1417.91 27.2059 L1433.26 27.2059 L1433.26 32.9987 L1417.91 32.9987 L1417.91 57.6282 Q1417.91 63.1779 1419.41 64.7578 Q1420.95 66.3376 1425.61 66.3376 L1433.26 66.3376 L1433.26 72.576 L1425.61 72.576 Q1416.98 72.576 1413.7 69.3758 Q1410.42 66.1351 1410.42 57.6282 L1410.42 32.9987 L1404.95 32.9987 L1404.95 27.2059 L1410.42 27.2059 L1410.42 14.324 L1417.91 14.324 Z" fill="#000000" fill-rule="evenodd" fill-opacity="1"></path><path clip-path="url(#clip260)" d="M1443.07 27.2059 L1450.52 27.2059 L1450.52 72.576 L1443.07 72.576 L1443.07 27.2059 M1443.07 9.54393 L1450.52 9.54393 L1450.52 18.9825 L1443.07 18.9825 L1443.07 9.54393 Z" fill="#000000" fill-rule="evenodd" fill-opacity="1"></path><path clip-path="url(#clip260)" d="M1483.7 32.4315 Q1477.7 32.4315 1474.22 37.1306 Q1470.73 41.7891 1470.73 49.9314 Q1470.73 58.0738 1474.18 62.7728 Q1477.66 67.4314 1483.7 67.4314 Q1489.65 67.4314 1493.14 62.7323 Q1496.62 58.0333 1496.62 49.9314 Q1496.62 41.8701 1493.14 37.1711 Q1489.65 32.4315 1483.7 32.4315 M1483.7 26.1121 Q1493.42 26.1121 1498.97 32.4315 Q1504.52 38.7509 1504.52 49.9314 Q1504.52 61.0714 1498.97 67.4314 Q1493.42 73.7508 1483.7 73.7508 Q1473.93 73.7508 1468.38 67.4314 Q1462.88 61.0714 1462.88 49.9314 Q1462.88 38.7509 1468.38 32.4315 Q1473.93 26.1121 1483.7 26.1121 Z" fill="#000000" fill-rule="evenodd" fill-opacity="1"></path><path clip-path="url(#clip260)" d="M1554.59 45.1919 L1554.59 72.576 L1547.13 72.576 L1547.13 45.4349 Q1547.13 38.994 1544.62 35.7938 Q1542.11 32.5936 1537.09 32.5936 Q1531.05 32.5936 1527.57 36.4419 Q1524.08 40.2903 1524.08 46.9338 L1524.08 72.576 L1516.59 72.576 L1516.59 27.2059 L1524.08 27.2059 L1524.08 34.2544 Q1526.76 30.163 1530.36 28.1376 Q1534.01 26.1121 1538.75 26.1121 Q1546.57 26.1121 1550.58 30.9732 Q1554.59 35.7938 1554.59 45.1919 Z" fill="#000000" fill-rule="evenodd" fill-opacity="1"></path><path clip-path="url(#clip260)" d="M1598.38 28.5427 L1598.38 35.5912 Q1595.22 33.9709 1591.82 33.1607 Q1588.41 32.3505 1584.77 32.3505 Q1579.22 32.3505 1576.42 34.0519 Q1573.67 35.7533 1573.67 39.156 Q1573.67 41.7486 1575.65 43.2475 Q1577.64 44.7058 1583.63 46.0426 L1586.18 46.6097 Q1594.12 48.3111 1597.45 51.4303 Q1600.81 54.509 1600.81 60.0587 Q1600.81 66.3781 1595.79 70.0644 Q1590.8 73.7508 1582.05 73.7508 Q1578.41 73.7508 1574.44 73.0216 Q1570.51 72.3329 1566.13 70.9151 L1566.13 63.2184 Q1570.26 65.3654 1574.27 66.4591 Q1578.29 67.5124 1582.21 67.5124 Q1587.48 67.5124 1590.32 65.73 Q1593.15 63.9071 1593.15 60.6258 Q1593.15 57.5877 1591.09 55.9673 Q1589.06 54.3469 1582.13 52.8481 L1579.54 52.2405 Q1572.61 50.7821 1569.54 47.7845 Q1566.46 44.7463 1566.46 39.4801 Q1566.46 33.0797 1570.99 29.5959 Q1575.53 26.1121 1583.88 26.1121 Q1588.01 26.1121 1591.65 26.7198 Q1595.3 27.3274 1598.38 28.5427 Z" fill="#000000" fill-rule="evenodd" fill-opacity="1"></path><polyline clip-path="url(#clip262)" style="stroke:#009af9; stroke-linecap:round; stroke-linejoin:round; stroke-width:4; stroke-opacity:1; fill:none" stroke-dasharray="16, 10" points="
  240.813,1336.51 253.097,1335.82 265.38,1335.12 277.663,1334.43 289.946,1333.74 302.23,1333.05 314.513,1332.36 326.796,1331.67 339.079,1330.97 351.363,1330.28 
  363.646,1329.59 375.929,1328.9 388.212,1328.21 400.496,1327.52 412.779,1326.82 425.062,1326.13 437.345,1325.44 449.629,1324.75 461.912,1324.06 474.195,1323.37 
  486.478,1322.67 498.762,1321.98 511.045,1321.29 523.328,1320.6 535.612,1319.91 547.895,1319.22 560.178,1318.52 572.461,1317.83 584.745,1317.14 597.028,1316.45 
  609.311,1315.76 621.594,1315.07 633.878,1314.38 646.161,1313.68 658.444,1312.99 670.727,1312.3 683.011,1311.61 695.294,1310.92 707.577,1310.23 719.86,1309.53 
  732.144,1308.84 744.427,1308.15 756.71,1307.46 768.993,1306.77 781.277,1306.08 793.56,1305.38 805.843,1304.69 818.126,1304 830.41,1303.31 842.693,1302.62 
  854.976,1301.93 867.259,1301.23 879.543,1300.54 891.826,1299.85 904.109,1299.16 916.392,1298.47 928.676,1297.78 940.959,1297.09 953.242,1296.39 965.525,1295.7 
  977.809,1295.01 990.092,1294.32 1002.38,1293.63 1014.66,1292.94 1026.94,1292.24 1039.23,1291.55 1051.51,1290.86 1063.79,1290.17 1076.07,1289.48 1088.36,1288.79 
  1100.64,1288.09 1112.92,1287.4 1125.21,1286.71 1137.49,1286.02 1149.77,1285.33 1162.06,1284.64 1174.34,1283.94 1186.62,1283.25 1198.91,1282.56 1211.19,1281.87 
  1223.47,1281.18 1235.76,1280.49 1248.04,1279.79 1260.32,1279.1 1272.61,1278.41 1284.89,1277.72 1297.17,1277.03 1309.46,1276.34 1321.74,1275.65 1334.02,1274.95 
  1346.31,1274.26 1358.59,1273.57 1370.87,1272.88 1383.16,1272.19 1395.44,1271.5 1407.72,1270.8 1420.01,1270.11 1432.29,1269.42 1444.57,1268.73 1456.86,1268.04 
  1469.14,1267.35 
  "></polyline>
<polyline clip-path="url(#clip262)" style="stroke:#e26f46; stroke-linecap:round; stroke-linejoin:round; stroke-width:4; stroke-opacity:1; fill:none" stroke-dasharray="16, 10" points="
  240.813,1336.51 253.097,1322.67 265.38,1308.84 277.663,1295.01 289.946,1281.18 302.23,1267.35 314.513,1253.51 326.796,1239.68 339.079,1225.85 351.363,1212.02 
  363.646,1198.19 375.929,1184.35 388.212,1170.52 400.496,1156.69 412.779,1142.86 425.062,1129.02 437.345,1115.19 449.629,1101.36 461.912,1087.53 474.195,1073.7 
  486.478,1059.86 498.762,1046.03 511.045,1032.2 523.328,1018.37 535.612,1004.54 547.895,990.703 560.178,976.871 572.461,963.039 584.745,949.207 597.028,935.375 
  609.311,921.543 621.594,907.71 633.878,893.878 646.161,880.046 658.444,866.214 670.727,852.382 683.011,838.55 695.294,824.718 707.577,810.885 719.86,797.053 
  732.144,783.221 744.427,769.389 756.71,755.557 768.993,741.725 781.277,727.893 793.56,714.06 805.843,700.228 818.126,686.396 830.41,672.564 842.693,658.732 
  854.976,644.9 867.259,631.068 879.543,617.235 891.826,603.403 904.109,589.571 916.392,575.739 928.676,561.907 940.959,548.075 953.242,534.243 965.525,520.411 
  977.809,506.578 990.092,492.746 1002.38,478.914 1014.66,465.082 1026.94,451.25 1039.23,437.418 1051.51,423.586 1063.79,409.753 1076.07,395.921 1088.36,382.089 
  1100.64,368.257 1112.92,354.425 1125.21,340.593 1137.49,326.761 1149.77,312.928 1162.06,299.096 1174.34,285.264 1186.62,271.432 1198.91,257.6 1211.19,243.768 
  1223.47,229.936 1235.76,216.103 1248.04,202.271 1260.32,188.439 1272.61,174.607 1284.89,160.775 1297.17,146.943 1309.46,133.111 1321.74,119.278 1334.02,105.446 
  1346.31,91.6142 1358.59,77.782 1370.87,63.9499 1383.16,50.1178 1395.44,36.2856 1407.72,22.4535 1420.01,8.62134 1432.29,-5.2108 1444.57,-19.0429 1456.86,-32.8751 
  1469.14,-46.7072 
  "></polyline>
<polyline clip-path="url(#clip262)" style="stroke:#3da44d; stroke-linecap:round; stroke-linejoin:round; stroke-width:4; stroke-opacity:1; fill:none" points="
  1469.14,160.256 1307.59,191.335 1171.01,262.036 1052.69,409.783 948.331,589.774 854.976,731.953 770.527,812.901 693.43,900.446 622.508,997.771 556.845,1078.58 
  495.714,1143.82 438.53,1201.45 384.813,1254.44 334.168,1301.64 286.262,1346.53 240.813,1386.4 
  "></polyline>
<polyline clip-path="url(#clip262)" style="stroke:#c271d2; stroke-linecap:round; stroke-linejoin:round; stroke-width:4; stroke-opacity:1; fill:none" points="
  -936.65,2722.89 2545.92,-1176.24 
  "></polyline>
<path clip-path="url(#clip260)" d="
M1577.62 425.996 L2352.76 425.996 L2352.76 166.796 L1577.62 166.796  Z
  " fill="#ffffff" fill-rule="evenodd" fill-opacity="1"></path>
<polyline clip-path="url(#clip260)" style="stroke:#000000; stroke-linecap:round; stroke-linejoin:round; stroke-width:4; stroke-opacity:1; fill:none" points="
  1577.62,425.996 2352.76,425.996 2352.76,166.796 1577.62,166.796 1577.62,425.996 
  "></polyline>
<polyline clip-path="url(#clip260)" style="stroke:#009af9; stroke-linecap:round; stroke-linejoin:round; stroke-width:4; stroke-opacity:1; fill:none" stroke-dasharray="16, 10" points="
  1601.49,218.636 1744.74,218.636 
  "></polyline>
<path clip-path="url(#clip260)" d="M1784.64 204.527 Q1779.54 204.527 1776.54 208.323 Q1773.55 212.12 1773.55 218.67 Q1773.55 225.198 1776.54 228.994 Q1779.54 232.791 1784.64 232.791 Q1789.73 232.791 1792.69 228.994 Q1795.68 225.198 1795.68 218.67 Q1795.68 212.12 1792.69 208.323 Q1789.73 204.527 1784.64 204.527 M1784.64 200.731 Q1791.91 200.731 1796.26 205.615 Q1800.61 210.476 1800.61 218.67 Q1800.61 226.842 1796.26 231.726 Q1791.91 236.587 1784.64 236.587 Q1777.35 236.587 1772.97 231.726 Q1768.62 226.865 1768.62 218.67 Q1768.62 210.476 1772.97 205.615 Q1777.35 200.731 1784.64 200.731 Z" fill="#000000" fill-rule="evenodd" fill-opacity="1"></path><path clip-path="url(#clip260)" d="M1822.76 213.971 Q1822.04 213.555 1821.19 213.37 Q1820.35 213.161 1819.34 213.161 Q1815.73 213.161 1813.78 215.522 Q1811.86 217.86 1811.86 222.258 L1811.86 235.916 L1807.58 235.916 L1807.58 209.99 L1811.86 209.99 L1811.86 214.018 Q1813.2 211.657 1815.35 210.522 Q1817.51 209.365 1820.59 209.365 Q1821.03 209.365 1821.56 209.434 Q1822.09 209.481 1822.74 209.596 L1822.76 213.971 Z" fill="#000000" fill-rule="evenodd" fill-opacity="1"></path><path clip-path="url(#clip260)" d="M1843.46 213.925 L1843.46 199.897 L1847.72 199.897 L1847.72 235.916 L1843.46 235.916 L1843.46 232.027 Q1842.11 234.342 1840.05 235.476 Q1838.02 236.587 1835.15 236.587 Q1830.45 236.587 1827.48 232.837 Q1824.54 229.087 1824.54 222.976 Q1824.54 216.865 1827.48 213.115 Q1830.45 209.365 1835.15 209.365 Q1838.02 209.365 1840.05 210.499 Q1842.11 211.61 1843.46 213.925 M1828.94 222.976 Q1828.94 227.675 1830.86 230.36 Q1832.81 233.022 1836.19 233.022 Q1839.57 233.022 1841.51 230.36 Q1843.46 227.675 1843.46 222.976 Q1843.46 218.277 1841.51 215.615 Q1839.57 212.93 1836.19 212.93 Q1832.81 212.93 1830.86 215.615 Q1828.94 218.277 1828.94 222.976 Z" fill="#000000" fill-rule="evenodd" fill-opacity="1"></path><path clip-path="url(#clip260)" d="M1878.66 221.888 L1878.66 223.971 L1859.08 223.971 Q1859.36 228.369 1861.72 230.684 Q1864.1 232.976 1868.34 232.976 Q1870.79 232.976 1873.09 232.374 Q1875.4 231.772 1877.67 230.569 L1877.67 234.596 Q1875.38 235.568 1872.97 236.078 Q1870.56 236.587 1868.09 236.587 Q1861.88 236.587 1858.25 232.976 Q1854.64 229.365 1854.64 223.207 Q1854.64 216.842 1858.06 213.115 Q1861.51 209.365 1867.35 209.365 Q1872.58 209.365 1875.61 212.745 Q1878.66 216.101 1878.66 221.888 M1874.41 220.638 Q1874.36 217.143 1872.44 215.059 Q1870.54 212.976 1867.39 212.976 Q1863.83 212.976 1861.67 214.99 Q1859.54 217.004 1859.22 220.661 L1874.41 220.638 Z" fill="#000000" fill-rule="evenodd" fill-opacity="1"></path><path clip-path="url(#clip260)" d="M1900.68 213.971 Q1899.96 213.555 1899.1 213.37 Q1898.27 213.161 1897.25 213.161 Q1893.64 213.161 1891.7 215.522 Q1889.78 217.86 1889.78 222.258 L1889.78 235.916 L1885.49 235.916 L1885.49 209.99 L1889.78 209.99 L1889.78 214.018 Q1891.12 211.657 1893.27 210.522 Q1895.42 209.365 1898.5 209.365 Q1898.94 209.365 1899.47 209.434 Q1900.01 209.481 1900.66 209.596 L1900.68 213.971 Z" fill="#000000" fill-rule="evenodd" fill-opacity="1"></path><path clip-path="url(#clip260)" d="M1921.63 231.981 L1929.27 231.981 L1929.27 205.615 L1920.96 207.282 L1920.96 203.022 L1929.22 201.356 L1933.9 201.356 L1933.9 231.981 L1941.53 231.981 L1941.53 235.916 L1921.63 235.916 L1921.63 231.981 Z" fill="#000000" fill-rule="evenodd" fill-opacity="1"></path><path clip-path="url(#clip260)" d="M1969.66 202.629 L1969.66 209.99 L1978.43 209.99 L1978.43 213.3 L1969.66 213.3 L1969.66 227.374 Q1969.66 230.545 1970.52 231.448 Q1971.4 232.351 1974.06 232.351 L1978.43 232.351 L1978.43 235.916 L1974.06 235.916 Q1969.13 235.916 1967.25 234.087 Q1965.38 232.235 1965.38 227.374 L1965.38 213.3 L1962.25 213.3 L1962.25 209.99 L1965.38 209.99 L1965.38 202.629 L1969.66 202.629 Z" fill="#000000" fill-rule="evenodd" fill-opacity="1"></path><path clip-path="url(#clip260)" d="M2006.21 221.888 L2006.21 223.971 L1986.63 223.971 Q1986.9 228.369 1989.27 230.684 Q1991.65 232.976 1995.89 232.976 Q1998.34 232.976 2000.63 232.374 Q2002.95 231.772 2005.21 230.569 L2005.21 234.596 Q2002.92 235.568 2000.52 236.078 Q1998.11 236.587 1995.63 236.587 Q1989.43 236.587 1985.79 232.976 Q1982.18 229.365 1982.18 223.207 Q1982.18 216.842 1985.61 213.115 Q1989.06 209.365 1994.89 209.365 Q2000.12 209.365 2003.15 212.745 Q2006.21 216.101 2006.21 221.888 M2001.95 220.638 Q2001.9 217.143 1999.98 215.059 Q1998.09 212.976 1994.94 212.976 Q1991.37 212.976 1989.22 214.99 Q1987.09 217.004 1986.77 220.661 L2001.95 220.638 Z" fill="#000000" fill-rule="evenodd" fill-opacity="1"></path><path clip-path="url(#clip260)" d="M2029.73 210.754 L2029.73 214.782 Q2027.92 213.856 2025.98 213.393 Q2024.03 212.93 2021.95 212.93 Q2018.78 212.93 2017.18 213.902 Q2015.61 214.874 2015.61 216.819 Q2015.61 218.3 2016.74 219.157 Q2017.88 219.99 2021.3 220.754 L2022.76 221.078 Q2027.3 222.05 2029.2 223.832 Q2031.12 225.592 2031.12 228.763 Q2031.12 232.374 2028.25 234.481 Q2025.4 236.587 2020.4 236.587 Q2018.32 236.587 2016.05 236.17 Q2013.8 235.777 2011.3 234.967 L2011.3 230.569 Q2013.66 231.795 2015.96 232.42 Q2018.25 233.022 2020.49 233.022 Q2023.5 233.022 2025.12 232.004 Q2026.74 230.962 2026.74 229.087 Q2026.74 227.351 2025.56 226.425 Q2024.4 225.499 2020.45 224.643 L2018.96 224.295 Q2015.01 223.462 2013.25 221.749 Q2011.49 220.013 2011.49 217.004 Q2011.49 213.346 2014.08 211.356 Q2016.67 209.365 2021.44 209.365 Q2023.8 209.365 2025.89 209.712 Q2027.97 210.059 2029.73 210.754 Z" fill="#000000" fill-rule="evenodd" fill-opacity="1"></path><path clip-path="url(#clip260)" d="M2042.11 202.629 L2042.11 209.99 L2050.89 209.99 L2050.89 213.3 L2042.11 213.3 L2042.11 227.374 Q2042.11 230.545 2042.97 231.448 Q2043.85 232.351 2046.51 232.351 L2050.89 232.351 L2050.89 235.916 L2046.51 235.916 Q2041.58 235.916 2039.71 234.087 Q2037.83 232.235 2037.83 227.374 L2037.83 213.3 L2034.71 213.3 L2034.71 209.99 L2037.83 209.99 L2037.83 202.629 L2042.11 202.629 Z" fill="#000000" fill-rule="evenodd" fill-opacity="1"></path><path clip-path="url(#clip260)" d="M2071.56 199.897 L2075.82 199.897 L2075.82 235.916 L2071.56 235.916 L2071.56 199.897 Z" fill="#000000" fill-rule="evenodd" fill-opacity="1"></path><path clip-path="url(#clip260)" d="M2084.73 209.99 L2088.99 209.99 L2088.99 235.916 L2084.73 235.916 L2084.73 209.99 M2084.73 199.897 L2088.99 199.897 L2088.99 205.291 L2084.73 205.291 L2084.73 199.897 Z" fill="#000000" fill-rule="evenodd" fill-opacity="1"></path><path clip-path="url(#clip260)" d="M2119.45 220.268 L2119.45 235.916 L2115.19 235.916 L2115.19 220.407 Q2115.19 216.726 2113.76 214.897 Q2112.32 213.069 2109.45 213.069 Q2106 213.069 2104.01 215.268 Q2102.02 217.467 2102.02 221.263 L2102.02 235.916 L2097.74 235.916 L2097.74 209.99 L2102.02 209.99 L2102.02 214.018 Q2103.55 211.68 2105.61 210.522 Q2107.69 209.365 2110.4 209.365 Q2114.87 209.365 2117.16 212.143 Q2119.45 214.897 2119.45 220.268 Z" fill="#000000" fill-rule="evenodd" fill-opacity="1"></path><path clip-path="url(#clip260)" d="M2150.12 221.888 L2150.12 223.971 L2130.54 223.971 Q2130.82 228.369 2133.18 230.684 Q2135.56 232.976 2139.8 232.976 Q2142.25 232.976 2144.54 232.374 Q2146.86 231.772 2149.13 230.569 L2149.13 234.596 Q2146.83 235.568 2144.43 236.078 Q2142.02 236.587 2139.54 236.587 Q2133.34 236.587 2129.7 232.976 Q2126.09 229.365 2126.09 223.207 Q2126.09 216.842 2129.52 213.115 Q2132.97 209.365 2138.8 209.365 Q2144.03 209.365 2147.07 212.745 Q2150.12 216.101 2150.12 221.888 M2145.86 220.638 Q2145.82 217.143 2143.89 215.059 Q2142 212.976 2138.85 212.976 Q2135.28 212.976 2133.13 214.99 Q2131 217.004 2130.68 220.661 L2145.86 220.638 Z" fill="#000000" fill-rule="evenodd" fill-opacity="1"></path><polyline clip-path="url(#clip260)" style="stroke:#e26f46; stroke-linecap:round; stroke-linejoin:round; stroke-width:4; stroke-opacity:1; fill:none" stroke-dasharray="16, 10" points="
  1601.49,270.476 1744.74,270.476 
  "></polyline>
<path clip-path="url(#clip260)" d="M1784.64 256.367 Q1779.54 256.367 1776.54 260.163 Q1773.55 263.96 1773.55 270.51 Q1773.55 277.038 1776.54 280.834 Q1779.54 284.631 1784.64 284.631 Q1789.73 284.631 1792.69 280.834 Q1795.68 277.038 1795.68 270.51 Q1795.68 263.96 1792.69 260.163 Q1789.73 256.367 1784.64 256.367 M1784.64 252.571 Q1791.91 252.571 1796.26 257.455 Q1800.61 262.316 1800.61 270.51 Q1800.61 278.682 1796.26 283.566 Q1791.91 288.427 1784.64 288.427 Q1777.35 288.427 1772.97 283.566 Q1768.62 278.705 1768.62 270.51 Q1768.62 262.316 1772.97 257.455 Q1777.35 252.571 1784.64 252.571 Z" fill="#000000" fill-rule="evenodd" fill-opacity="1"></path><path clip-path="url(#clip260)" d="M1822.76 265.811 Q1822.04 265.395 1821.19 265.21 Q1820.35 265.001 1819.34 265.001 Q1815.73 265.001 1813.78 267.362 Q1811.86 269.7 1811.86 274.098 L1811.86 287.756 L1807.58 287.756 L1807.58 261.83 L1811.86 261.83 L1811.86 265.858 Q1813.2 263.497 1815.35 262.362 Q1817.51 261.205 1820.59 261.205 Q1821.03 261.205 1821.56 261.274 Q1822.09 261.321 1822.74 261.436 L1822.76 265.811 Z" fill="#000000" fill-rule="evenodd" fill-opacity="1"></path><path clip-path="url(#clip260)" d="M1843.46 265.765 L1843.46 251.737 L1847.72 251.737 L1847.72 287.756 L1843.46 287.756 L1843.46 283.867 Q1842.11 286.182 1840.05 287.316 Q1838.02 288.427 1835.15 288.427 Q1830.45 288.427 1827.48 284.677 Q1824.54 280.927 1824.54 274.816 Q1824.54 268.705 1827.48 264.955 Q1830.45 261.205 1835.15 261.205 Q1838.02 261.205 1840.05 262.339 Q1842.11 263.45 1843.46 265.765 M1828.94 274.816 Q1828.94 279.515 1830.86 282.2 Q1832.81 284.862 1836.19 284.862 Q1839.57 284.862 1841.51 282.2 Q1843.46 279.515 1843.46 274.816 Q1843.46 270.117 1841.51 267.455 Q1839.57 264.77 1836.19 264.77 Q1832.81 264.77 1830.86 267.455 Q1828.94 270.117 1828.94 274.816 Z" fill="#000000" fill-rule="evenodd" fill-opacity="1"></path><path clip-path="url(#clip260)" d="M1878.66 273.728 L1878.66 275.811 L1859.08 275.811 Q1859.36 280.209 1861.72 282.524 Q1864.1 284.816 1868.34 284.816 Q1870.79 284.816 1873.09 284.214 Q1875.4 283.612 1877.67 282.409 L1877.67 286.436 Q1875.38 287.408 1872.97 287.918 Q1870.56 288.427 1868.09 288.427 Q1861.88 288.427 1858.25 284.816 Q1854.64 281.205 1854.64 275.047 Q1854.64 268.682 1858.06 264.955 Q1861.51 261.205 1867.35 261.205 Q1872.58 261.205 1875.61 264.585 Q1878.66 267.941 1878.66 273.728 M1874.41 272.478 Q1874.36 268.983 1872.44 266.899 Q1870.54 264.816 1867.39 264.816 Q1863.83 264.816 1861.67 266.83 Q1859.54 268.844 1859.22 272.501 L1874.41 272.478 Z" fill="#000000" fill-rule="evenodd" fill-opacity="1"></path><path clip-path="url(#clip260)" d="M1900.68 265.811 Q1899.96 265.395 1899.1 265.21 Q1898.27 265.001 1897.25 265.001 Q1893.64 265.001 1891.7 267.362 Q1889.78 269.7 1889.78 274.098 L1889.78 287.756 L1885.49 287.756 L1885.49 261.83 L1889.78 261.83 L1889.78 265.858 Q1891.12 263.497 1893.27 262.362 Q1895.42 261.205 1898.5 261.205 Q1898.94 261.205 1899.47 261.274 Q1900.01 261.321 1900.66 261.436 L1900.68 265.811 Z" fill="#000000" fill-rule="evenodd" fill-opacity="1"></path><path clip-path="url(#clip260)" d="M1924.84 283.821 L1941.16 283.821 L1941.16 287.756 L1919.22 287.756 L1919.22 283.821 Q1921.88 281.066 1926.47 276.436 Q1931.07 271.784 1932.25 270.441 Q1934.5 267.918 1935.38 266.182 Q1936.28 264.423 1936.28 262.733 Q1936.28 259.978 1934.34 258.242 Q1932.41 256.506 1929.31 256.506 Q1927.11 256.506 1924.66 257.27 Q1922.23 258.034 1919.45 259.585 L1919.45 254.862 Q1922.28 253.728 1924.73 253.149 Q1927.18 252.571 1929.22 252.571 Q1934.59 252.571 1937.78 255.256 Q1940.98 257.941 1940.98 262.432 Q1940.98 264.561 1940.17 266.483 Q1939.38 268.381 1937.28 270.973 Q1936.7 271.645 1933.59 274.862 Q1930.49 278.057 1924.84 283.821 Z" fill="#000000" fill-rule="evenodd" fill-opacity="1"></path><path clip-path="url(#clip260)" d="M1960.98 256.274 Q1957.37 256.274 1955.54 259.839 Q1953.73 263.381 1953.73 270.51 Q1953.73 277.617 1955.54 281.182 Q1957.37 284.723 1960.98 284.723 Q1964.61 284.723 1966.42 281.182 Q1968.25 277.617 1968.25 270.51 Q1968.25 263.381 1966.42 259.839 Q1964.61 256.274 1960.98 256.274 M1960.98 252.571 Q1966.79 252.571 1969.84 257.177 Q1972.92 261.76 1972.92 270.51 Q1972.92 279.237 1969.84 283.844 Q1966.79 288.427 1960.98 288.427 Q1955.17 288.427 1952.09 283.844 Q1949.03 279.237 1949.03 270.51 Q1949.03 261.76 1952.09 257.177 Q1955.17 252.571 1960.98 252.571 Z" fill="#000000" fill-rule="evenodd" fill-opacity="1"></path><path clip-path="url(#clip260)" d="M1999.82 254.469 L1999.82 261.83 L2008.59 261.83 L2008.59 265.14 L1999.82 265.14 L1999.82 279.214 Q1999.82 282.385 2000.68 283.288 Q2001.56 284.191 2004.22 284.191 L2008.59 284.191 L2008.59 287.756 L2004.22 287.756 Q1999.29 287.756 1997.41 285.927 Q1995.54 284.075 1995.54 279.214 L1995.54 265.14 L1992.41 265.14 L1992.41 261.83 L1995.54 261.83 L1995.54 254.469 L1999.82 254.469 Z" fill="#000000" fill-rule="evenodd" fill-opacity="1"></path><path clip-path="url(#clip260)" d="M2036.37 273.728 L2036.37 275.811 L2016.79 275.811 Q2017.07 280.209 2019.43 282.524 Q2021.81 284.816 2026.05 284.816 Q2028.5 284.816 2030.79 284.214 Q2033.11 283.612 2035.38 282.409 L2035.38 286.436 Q2033.09 287.408 2030.68 287.918 Q2028.27 288.427 2025.79 288.427 Q2019.59 288.427 2015.96 284.816 Q2012.34 281.205 2012.34 275.047 Q2012.34 268.682 2015.77 264.955 Q2019.22 261.205 2025.05 261.205 Q2030.28 261.205 2033.32 264.585 Q2036.37 267.941 2036.37 273.728 M2032.11 272.478 Q2032.07 268.983 2030.15 266.899 Q2028.25 264.816 2025.1 264.816 Q2021.53 264.816 2019.38 266.83 Q2017.25 268.844 2016.93 272.501 L2032.11 272.478 Z" fill="#000000" fill-rule="evenodd" fill-opacity="1"></path><path clip-path="url(#clip260)" d="M2059.89 262.594 L2059.89 266.622 Q2058.08 265.696 2056.14 265.233 Q2054.2 264.77 2052.11 264.77 Q2048.94 264.77 2047.34 265.742 Q2045.77 266.714 2045.77 268.659 Q2045.77 270.14 2046.9 270.997 Q2048.04 271.83 2051.46 272.594 L2052.92 272.918 Q2057.46 273.89 2059.36 275.672 Q2061.28 277.432 2061.28 280.603 Q2061.28 284.214 2058.41 286.321 Q2055.56 288.427 2050.56 288.427 Q2048.48 288.427 2046.21 288.01 Q2043.96 287.617 2041.46 286.807 L2041.46 282.409 Q2043.83 283.635 2046.12 284.26 Q2048.41 284.862 2050.65 284.862 Q2053.66 284.862 2055.28 283.844 Q2056.9 282.802 2056.9 280.927 Q2056.9 279.191 2055.72 278.265 Q2054.57 277.339 2050.61 276.483 L2049.13 276.135 Q2045.17 275.302 2043.41 273.589 Q2041.65 271.853 2041.65 268.844 Q2041.65 265.186 2044.24 263.196 Q2046.84 261.205 2051.6 261.205 Q2053.96 261.205 2056.05 261.552 Q2058.13 261.899 2059.89 262.594 Z" fill="#000000" fill-rule="evenodd" fill-opacity="1"></path><path clip-path="url(#clip260)" d="M2072.27 254.469 L2072.27 261.83 L2081.05 261.83 L2081.05 265.14 L2072.27 265.14 L2072.27 279.214 Q2072.27 282.385 2073.13 283.288 Q2074.01 284.191 2076.67 284.191 L2081.05 284.191 L2081.05 287.756 L2076.67 287.756 Q2071.74 287.756 2069.87 285.927 Q2067.99 284.075 2067.99 279.214 L2067.99 265.14 L2064.87 265.14 L2064.87 261.83 L2067.99 261.83 L2067.99 254.469 L2072.27 254.469 Z" fill="#000000" fill-rule="evenodd" fill-opacity="1"></path><path clip-path="url(#clip260)" d="M2101.72 251.737 L2105.98 251.737 L2105.98 287.756 L2101.72 287.756 L2101.72 251.737 Z" fill="#000000" fill-rule="evenodd" fill-opacity="1"></path><path clip-path="url(#clip260)" d="M2114.89 261.83 L2119.15 261.83 L2119.15 287.756 L2114.89 287.756 L2114.89 261.83 M2114.89 251.737 L2119.15 251.737 L2119.15 257.131 L2114.89 257.131 L2114.89 251.737 Z" fill="#000000" fill-rule="evenodd" fill-opacity="1"></path><path clip-path="url(#clip260)" d="M2149.61 272.108 L2149.61 287.756 L2145.35 287.756 L2145.35 272.247 Q2145.35 268.566 2143.92 266.737 Q2142.48 264.909 2139.61 264.909 Q2136.16 264.909 2134.17 267.108 Q2132.18 269.307 2132.18 273.103 L2132.18 287.756 L2127.9 287.756 L2127.9 261.83 L2132.18 261.83 L2132.18 265.858 Q2133.71 263.52 2135.77 262.362 Q2137.85 261.205 2140.56 261.205 Q2145.03 261.205 2147.32 263.983 Q2149.61 266.737 2149.61 272.108 Z" fill="#000000" fill-rule="evenodd" fill-opacity="1"></path><path clip-path="url(#clip260)" d="M2180.28 273.728 L2180.28 275.811 L2160.7 275.811 Q2160.98 280.209 2163.34 282.524 Q2165.72 284.816 2169.96 284.816 Q2172.41 284.816 2174.7 284.214 Q2177.02 283.612 2179.29 282.409 L2179.29 286.436 Q2177 287.408 2174.59 287.918 Q2172.18 288.427 2169.7 288.427 Q2163.5 288.427 2159.87 284.816 Q2156.26 281.205 2156.26 275.047 Q2156.26 268.682 2159.68 264.955 Q2163.13 261.205 2168.96 261.205 Q2174.2 261.205 2177.23 264.585 Q2180.28 267.941 2180.28 273.728 M2176.02 272.478 Q2175.98 268.983 2174.06 266.899 Q2172.16 264.816 2169.01 264.816 Q2165.45 264.816 2163.29 266.83 Q2161.16 268.844 2160.84 272.501 L2176.02 272.478 Z" fill="#000000" fill-rule="evenodd" fill-opacity="1"></path><polyline clip-path="url(#clip260)" style="stroke:#3da44d; stroke-linecap:round; stroke-linejoin:round; stroke-width:4; stroke-opacity:1; fill:none" points="
  1601.49,322.316 1744.74,322.316 
  "></polyline>
<path clip-path="url(#clip260)" d="M1794.17 334.665 L1794.17 325.383 L1786.54 325.383 L1786.54 321.54 L1798.8 321.54 L1798.8 336.378 Q1796.1 338.299 1792.83 339.295 Q1789.57 340.267 1785.86 340.267 Q1777.76 340.267 1773.18 335.545 Q1768.62 330.799 1768.62 322.35 Q1768.62 313.878 1773.18 309.156 Q1777.76 304.411 1785.86 304.411 Q1789.24 304.411 1792.28 305.244 Q1795.33 306.077 1797.9 307.698 L1797.9 312.675 Q1795.31 310.476 1792.39 309.364 Q1789.48 308.253 1786.26 308.253 Q1779.92 308.253 1776.72 311.795 Q1773.55 315.337 1773.55 322.35 Q1773.55 329.341 1776.72 332.883 Q1779.92 336.424 1786.26 336.424 Q1788.73 336.424 1790.68 336.008 Q1792.62 335.568 1794.17 334.665 Z" fill="#000000" fill-rule="evenodd" fill-opacity="1"></path><path clip-path="url(#clip260)" d="M1807.16 303.577 L1811.42 303.577 L1811.42 339.596 L1807.16 339.596 L1807.16 303.577 Z" fill="#000000" fill-rule="evenodd" fill-opacity="1"></path><path clip-path="url(#clip260)" d="M1830.38 316.656 Q1826.95 316.656 1824.96 319.341 Q1822.97 322.003 1822.97 326.656 Q1822.97 331.309 1824.94 333.994 Q1826.93 336.656 1830.38 336.656 Q1833.78 336.656 1835.77 333.971 Q1837.76 331.286 1837.76 326.656 Q1837.76 322.05 1835.77 319.364 Q1833.78 316.656 1830.38 316.656 M1830.38 313.045 Q1835.93 313.045 1839.1 316.656 Q1842.28 320.267 1842.28 326.656 Q1842.28 333.022 1839.1 336.656 Q1835.93 340.267 1830.38 340.267 Q1824.8 340.267 1821.63 336.656 Q1818.48 333.022 1818.48 326.656 Q1818.48 320.267 1821.63 316.656 Q1824.8 313.045 1830.38 313.045 Z" fill="#000000" fill-rule="evenodd" fill-opacity="1"></path><path clip-path="url(#clip260)" d="M1867.95 326.656 Q1867.95 321.957 1866 319.295 Q1864.08 316.61 1860.7 316.61 Q1857.32 316.61 1855.38 319.295 Q1853.46 321.957 1853.46 326.656 Q1853.46 331.355 1855.38 334.04 Q1857.32 336.702 1860.7 336.702 Q1864.08 336.702 1866 334.04 Q1867.95 331.355 1867.95 326.656 M1853.46 317.605 Q1854.8 315.29 1856.84 314.179 Q1858.9 313.045 1861.74 313.045 Q1866.47 313.045 1869.41 316.795 Q1872.37 320.545 1872.37 326.656 Q1872.37 332.767 1869.41 336.517 Q1866.47 340.267 1861.74 340.267 Q1858.9 340.267 1856.84 339.156 Q1854.8 338.022 1853.46 335.707 L1853.46 339.596 L1849.17 339.596 L1849.17 303.577 L1853.46 303.577 L1853.46 317.605 Z" fill="#000000" fill-rule="evenodd" fill-opacity="1"></path><path clip-path="url(#clip260)" d="M1891.21 326.563 Q1886.05 326.563 1884.06 327.744 Q1882.07 328.924 1882.07 331.772 Q1882.07 334.04 1883.55 335.383 Q1885.05 336.702 1887.62 336.702 Q1891.16 336.702 1893.29 334.202 Q1895.45 331.679 1895.45 327.512 L1895.45 326.563 L1891.21 326.563 M1899.71 324.804 L1899.71 339.596 L1895.45 339.596 L1895.45 335.661 Q1893.99 338.022 1891.81 339.156 Q1889.64 340.267 1886.49 340.267 Q1882.51 340.267 1880.15 338.045 Q1877.81 335.799 1877.81 332.049 Q1877.81 327.674 1880.72 325.452 Q1883.66 323.23 1889.47 323.23 L1895.45 323.23 L1895.45 322.813 Q1895.45 319.874 1893.5 318.276 Q1891.58 316.656 1888.09 316.656 Q1885.86 316.656 1883.76 317.188 Q1881.65 317.721 1879.71 318.786 L1879.71 314.85 Q1882.04 313.948 1884.24 313.508 Q1886.44 313.045 1888.53 313.045 Q1894.15 313.045 1896.93 315.962 Q1899.71 318.878 1899.71 324.804 Z" fill="#000000" fill-rule="evenodd" fill-opacity="1"></path><path clip-path="url(#clip260)" d="M1908.48 303.577 L1912.74 303.577 L1912.74 339.596 L1908.48 339.596 L1908.48 303.577 Z" fill="#000000" fill-rule="evenodd" fill-opacity="1"></path><path clip-path="url(#clip260)" d="M1958.9 325.568 L1958.9 327.651 L1939.31 327.651 Q1939.59 332.049 1941.95 334.364 Q1944.34 336.656 1948.57 336.656 Q1951.03 336.656 1953.32 336.054 Q1955.63 335.452 1957.9 334.249 L1957.9 338.276 Q1955.61 339.248 1953.2 339.758 Q1950.79 340.267 1948.32 340.267 Q1942.11 340.267 1938.48 336.656 Q1934.87 333.045 1934.87 326.887 Q1934.87 320.522 1938.29 316.795 Q1941.74 313.045 1947.58 313.045 Q1952.81 313.045 1955.84 316.425 Q1958.9 319.781 1958.9 325.568 M1954.64 324.318 Q1954.59 320.823 1952.67 318.739 Q1950.77 316.656 1947.62 316.656 Q1944.06 316.656 1941.91 318.67 Q1939.78 320.684 1939.45 324.341 L1954.64 324.318 Z" fill="#000000" fill-rule="evenodd" fill-opacity="1"></path><path clip-path="url(#clip260)" d="M1980.91 317.651 Q1980.19 317.235 1979.34 317.05 Q1978.5 316.841 1977.48 316.841 Q1973.87 316.841 1971.93 319.202 Q1970.01 321.54 1970.01 325.938 L1970.01 339.596 L1965.72 339.596 L1965.72 313.67 L1970.01 313.67 L1970.01 317.698 Q1971.35 315.337 1973.5 314.202 Q1975.65 313.045 1978.73 313.045 Q1979.17 313.045 1979.71 313.114 Q1980.24 313.161 1980.89 313.276 L1980.91 317.651 Z" fill="#000000" fill-rule="evenodd" fill-opacity="1"></path><path clip-path="url(#clip260)" d="M1999.57 317.651 Q1998.85 317.235 1997.99 317.05 Q1997.16 316.841 1996.14 316.841 Q1992.53 316.841 1990.59 319.202 Q1988.66 321.54 1988.66 325.938 L1988.66 339.596 L1984.38 339.596 L1984.38 313.67 L1988.66 313.67 L1988.66 317.698 Q1990.01 315.337 1992.16 314.202 Q1994.31 313.045 1997.39 313.045 Q1997.83 313.045 1998.36 313.114 Q1998.9 313.161 1999.54 313.276 L1999.57 317.651 Z" fill="#000000" fill-rule="evenodd" fill-opacity="1"></path><path clip-path="url(#clip260)" d="M2013.04 316.656 Q2009.61 316.656 2007.62 319.341 Q2005.63 322.003 2005.63 326.656 Q2005.63 331.309 2007.6 333.994 Q2009.59 336.656 2013.04 336.656 Q2016.44 336.656 2018.43 333.971 Q2020.42 331.286 2020.42 326.656 Q2020.42 322.05 2018.43 319.364 Q2016.44 316.656 2013.04 316.656 M2013.04 313.045 Q2018.59 313.045 2021.77 316.656 Q2024.94 320.267 2024.94 326.656 Q2024.94 333.022 2021.77 336.656 Q2018.59 340.267 2013.04 340.267 Q2007.46 340.267 2004.29 336.656 Q2001.14 333.022 2001.14 326.656 Q2001.14 320.267 2004.29 316.656 Q2007.46 313.045 2013.04 313.045 Z" fill="#000000" fill-rule="evenodd" fill-opacity="1"></path><path clip-path="url(#clip260)" d="M2047.02 317.651 Q2046.3 317.235 2045.45 317.05 Q2044.61 316.841 2043.59 316.841 Q2039.98 316.841 2038.04 319.202 Q2036.12 321.54 2036.12 325.938 L2036.12 339.596 L2031.84 339.596 L2031.84 313.67 L2036.12 313.67 L2036.12 317.698 Q2037.46 315.337 2039.61 314.202 Q2041.77 313.045 2044.84 313.045 Q2045.28 313.045 2045.82 313.114 Q2046.35 313.161 2047 313.276 L2047.02 317.651 Z" fill="#000000" fill-rule="evenodd" fill-opacity="1"></path><polyline clip-path="url(#clip260)" style="stroke:#c271d2; stroke-linecap:round; stroke-linejoin:round; stroke-width:4; stroke-opacity:1; fill:none" points="
  1601.49,374.156 1744.74,374.156 
  "></polyline>
<path clip-path="url(#clip260)" d="M1794.17 386.505 L1794.17 377.223 L1786.54 377.223 L1786.54 373.38 L1798.8 373.38 L1798.8 388.218 Q1796.1 390.139 1792.83 391.135 Q1789.57 392.107 1785.86 392.107 Q1777.76 392.107 1773.18 387.385 Q1768.62 382.639 1768.62 374.19 Q1768.62 365.718 1773.18 360.996 Q1777.76 356.251 1785.86 356.251 Q1789.24 356.251 1792.28 357.084 Q1795.33 357.917 1797.9 359.538 L1797.9 364.515 Q1795.31 362.316 1792.39 361.204 Q1789.48 360.093 1786.26 360.093 Q1779.92 360.093 1776.72 363.635 Q1773.55 367.177 1773.55 374.19 Q1773.55 381.181 1776.72 384.723 Q1779.92 388.264 1786.26 388.264 Q1788.73 388.264 1790.68 387.848 Q1792.62 387.408 1794.17 386.505 Z" fill="#000000" fill-rule="evenodd" fill-opacity="1"></path><path clip-path="url(#clip260)" d="M1807.16 355.417 L1811.42 355.417 L1811.42 391.436 L1807.16 391.436 L1807.16 355.417 Z" fill="#000000" fill-rule="evenodd" fill-opacity="1"></path><path clip-path="url(#clip260)" d="M1830.38 368.496 Q1826.95 368.496 1824.96 371.181 Q1822.97 373.843 1822.97 378.496 Q1822.97 383.149 1824.94 385.834 Q1826.93 388.496 1830.38 388.496 Q1833.78 388.496 1835.77 385.811 Q1837.76 383.126 1837.76 378.496 Q1837.76 373.89 1835.77 371.204 Q1833.78 368.496 1830.38 368.496 M1830.38 364.885 Q1835.93 364.885 1839.1 368.496 Q1842.28 372.107 1842.28 378.496 Q1842.28 384.862 1839.1 388.496 Q1835.93 392.107 1830.38 392.107 Q1824.8 392.107 1821.63 388.496 Q1818.48 384.862 1818.48 378.496 Q1818.48 372.107 1821.63 368.496 Q1824.8 364.885 1830.38 364.885 Z" fill="#000000" fill-rule="evenodd" fill-opacity="1"></path><path clip-path="url(#clip260)" d="M1867.95 378.496 Q1867.95 373.797 1866 371.135 Q1864.08 368.45 1860.7 368.45 Q1857.32 368.45 1855.38 371.135 Q1853.46 373.797 1853.46 378.496 Q1853.46 383.195 1855.38 385.88 Q1857.32 388.542 1860.7 388.542 Q1864.08 388.542 1866 385.88 Q1867.95 383.195 1867.95 378.496 M1853.46 369.445 Q1854.8 367.13 1856.84 366.019 Q1858.9 364.885 1861.74 364.885 Q1866.47 364.885 1869.41 368.635 Q1872.37 372.385 1872.37 378.496 Q1872.37 384.607 1869.41 388.357 Q1866.47 392.107 1861.74 392.107 Q1858.9 392.107 1856.84 390.996 Q1854.8 389.862 1853.46 387.547 L1853.46 391.436 L1849.17 391.436 L1849.17 355.417 L1853.46 355.417 L1853.46 369.445 Z" fill="#000000" fill-rule="evenodd" fill-opacity="1"></path><path clip-path="url(#clip260)" d="M1891.21 378.403 Q1886.05 378.403 1884.06 379.584 Q1882.07 380.764 1882.07 383.612 Q1882.07 385.88 1883.55 387.223 Q1885.05 388.542 1887.62 388.542 Q1891.16 388.542 1893.29 386.042 Q1895.45 383.519 1895.45 379.352 L1895.45 378.403 L1891.21 378.403 M1899.71 376.644 L1899.71 391.436 L1895.45 391.436 L1895.45 387.501 Q1893.99 389.862 1891.81 390.996 Q1889.64 392.107 1886.49 392.107 Q1882.51 392.107 1880.15 389.885 Q1877.81 387.639 1877.81 383.889 Q1877.81 379.514 1880.72 377.292 Q1883.66 375.07 1889.47 375.07 L1895.45 375.07 L1895.45 374.653 Q1895.45 371.714 1893.5 370.116 Q1891.58 368.496 1888.09 368.496 Q1885.86 368.496 1883.76 369.028 Q1881.65 369.561 1879.71 370.626 L1879.71 366.69 Q1882.04 365.788 1884.24 365.348 Q1886.44 364.885 1888.53 364.885 Q1894.15 364.885 1896.93 367.802 Q1899.71 370.718 1899.71 376.644 Z" fill="#000000" fill-rule="evenodd" fill-opacity="1"></path><path clip-path="url(#clip260)" d="M1908.48 355.417 L1912.74 355.417 L1912.74 391.436 L1908.48 391.436 L1908.48 355.417 Z" fill="#000000" fill-rule="evenodd" fill-opacity="1"></path><path clip-path="url(#clip260)" d="M1958.9 377.408 L1958.9 379.491 L1939.31 379.491 Q1939.59 383.889 1941.95 386.204 Q1944.34 388.496 1948.57 388.496 Q1951.03 388.496 1953.32 387.894 Q1955.63 387.292 1957.9 386.089 L1957.9 390.116 Q1955.61 391.088 1953.2 391.598 Q1950.79 392.107 1948.32 392.107 Q1942.11 392.107 1938.48 388.496 Q1934.87 384.885 1934.87 378.727 Q1934.87 372.362 1938.29 368.635 Q1941.74 364.885 1947.58 364.885 Q1952.81 364.885 1955.84 368.265 Q1958.9 371.621 1958.9 377.408 M1954.64 376.158 Q1954.59 372.663 1952.67 370.579 Q1950.77 368.496 1947.62 368.496 Q1944.06 368.496 1941.91 370.51 Q1939.78 372.524 1939.45 376.181 L1954.64 376.158 Z" fill="#000000" fill-rule="evenodd" fill-opacity="1"></path><path clip-path="url(#clip260)" d="M1980.91 369.491 Q1980.19 369.075 1979.34 368.89 Q1978.5 368.681 1977.48 368.681 Q1973.87 368.681 1971.93 371.042 Q1970.01 373.38 1970.01 377.778 L1970.01 391.436 L1965.72 391.436 L1965.72 365.51 L1970.01 365.51 L1970.01 369.538 Q1971.35 367.177 1973.5 366.042 Q1975.65 364.885 1978.73 364.885 Q1979.17 364.885 1979.71 364.954 Q1980.24 365.001 1980.89 365.116 L1980.91 369.491 Z" fill="#000000" fill-rule="evenodd" fill-opacity="1"></path><path clip-path="url(#clip260)" d="M1999.57 369.491 Q1998.85 369.075 1997.99 368.89 Q1997.16 368.681 1996.14 368.681 Q1992.53 368.681 1990.59 371.042 Q1988.66 373.38 1988.66 377.778 L1988.66 391.436 L1984.38 391.436 L1984.38 365.51 L1988.66 365.51 L1988.66 369.538 Q1990.01 367.177 1992.16 366.042 Q1994.31 364.885 1997.39 364.885 Q1997.83 364.885 1998.36 364.954 Q1998.9 365.001 1999.54 365.116 L1999.57 369.491 Z" fill="#000000" fill-rule="evenodd" fill-opacity="1"></path><path clip-path="url(#clip260)" d="M2013.04 368.496 Q2009.61 368.496 2007.62 371.181 Q2005.63 373.843 2005.63 378.496 Q2005.63 383.149 2007.6 385.834 Q2009.59 388.496 2013.04 388.496 Q2016.44 388.496 2018.43 385.811 Q2020.42 383.126 2020.42 378.496 Q2020.42 373.89 2018.43 371.204 Q2016.44 368.496 2013.04 368.496 M2013.04 364.885 Q2018.59 364.885 2021.77 368.496 Q2024.94 372.107 2024.94 378.496 Q2024.94 384.862 2021.77 388.496 Q2018.59 392.107 2013.04 392.107 Q2007.46 392.107 2004.29 388.496 Q2001.14 384.862 2001.14 378.496 Q2001.14 372.107 2004.29 368.496 Q2007.46 364.885 2013.04 364.885 Z" fill="#000000" fill-rule="evenodd" fill-opacity="1"></path><path clip-path="url(#clip260)" d="M2047.02 369.491 Q2046.3 369.075 2045.45 368.89 Q2044.61 368.681 2043.59 368.681 Q2039.98 368.681 2038.04 371.042 Q2036.12 373.38 2036.12 377.778 L2036.12 391.436 L2031.84 391.436 L2031.84 365.51 L2036.12 365.51 L2036.12 369.538 Q2037.46 367.177 2039.61 366.042 Q2041.77 364.885 2044.84 364.885 Q2045.28 364.885 2045.82 364.954 Q2046.35 365.001 2047 365.116 L2047.02 369.491 Z" fill="#000000" fill-rule="evenodd" fill-opacity="1"></path><path clip-path="url(#clip260)" d="M2081.58 369.491 Q2080.86 369.075 2080.01 368.89 Q2079.17 368.681 2078.15 368.681 Q2074.54 368.681 2072.6 371.042 Q2070.68 373.38 2070.68 377.778 L2070.68 391.436 L2066.4 391.436 L2066.4 365.51 L2070.68 365.51 L2070.68 369.538 Q2072.02 367.177 2074.17 366.042 Q2076.33 364.885 2079.4 364.885 Q2079.84 364.885 2080.38 364.954 Q2080.91 365.001 2081.56 365.116 L2081.58 369.491 Z" fill="#000000" fill-rule="evenodd" fill-opacity="1"></path><path clip-path="url(#clip260)" d="M2107.18 377.408 L2107.18 379.491 L2087.6 379.491 Q2087.88 383.889 2090.24 386.204 Q2092.62 388.496 2096.86 388.496 Q2099.31 388.496 2101.6 387.894 Q2103.92 387.292 2106.19 386.089 L2106.19 390.116 Q2103.89 391.088 2101.49 391.598 Q2099.08 392.107 2096.6 392.107 Q2090.4 392.107 2086.77 388.496 Q2083.15 384.885 2083.15 378.727 Q2083.15 372.362 2086.58 368.635 Q2090.03 364.885 2095.86 364.885 Q2101.09 364.885 2104.13 368.265 Q2107.18 371.621 2107.18 377.408 M2102.92 376.158 Q2102.88 372.663 2100.96 370.579 Q2099.06 368.496 2095.91 368.496 Q2092.34 368.496 2090.19 370.51 Q2088.06 372.524 2087.74 376.181 L2102.92 376.158 Z" fill="#000000" fill-rule="evenodd" fill-opacity="1"></path><path clip-path="url(#clip260)" d="M2131.23 378.172 Q2131.23 373.542 2129.31 370.996 Q2127.41 368.45 2123.96 368.45 Q2120.54 368.45 2118.62 370.996 Q2116.72 373.542 2116.72 378.172 Q2116.72 382.778 2118.62 385.325 Q2120.54 387.871 2123.96 387.871 Q2127.41 387.871 2129.31 385.325 Q2131.23 382.778 2131.23 378.172 M2135.49 388.218 Q2135.49 394.838 2132.55 398.056 Q2129.61 401.297 2123.55 401.297 Q2121.3 401.297 2119.31 400.95 Q2117.32 400.625 2115.45 399.931 L2115.45 395.788 Q2117.32 396.806 2119.15 397.292 Q2120.98 397.778 2122.88 397.778 Q2127.07 397.778 2129.15 395.579 Q2131.23 393.403 2131.23 388.982 L2131.23 386.876 Q2129.91 389.167 2127.85 390.301 Q2125.79 391.436 2122.92 391.436 Q2118.15 391.436 2115.24 387.801 Q2112.32 384.167 2112.32 378.172 Q2112.32 372.153 2115.24 368.519 Q2118.15 364.885 2122.92 364.885 Q2125.79 364.885 2127.85 366.019 Q2129.91 367.153 2131.23 369.445 L2131.23 365.51 L2135.49 365.51 L2135.49 388.218 Z" fill="#000000" fill-rule="evenodd" fill-opacity="1"></path><path clip-path="url(#clip260)" d="M2159.29 369.491 Q2158.57 369.075 2157.71 368.89 Q2156.88 368.681 2155.86 368.681 Q2152.25 368.681 2150.31 371.042 Q2148.39 373.38 2148.39 377.778 L2148.39 391.436 L2144.1 391.436 L2144.1 365.51 L2148.39 365.51 L2148.39 369.538 Q2149.73 367.177 2151.88 366.042 Q2154.03 364.885 2157.11 364.885 Q2157.55 364.885 2158.08 364.954 Q2158.62 365.001 2159.27 365.116 L2159.29 369.491 Z" fill="#000000" fill-rule="evenodd" fill-opacity="1"></path><path clip-path="url(#clip260)" d="M2184.89 377.408 L2184.89 379.491 L2165.31 379.491 Q2165.58 383.889 2167.95 386.204 Q2170.33 388.496 2174.57 388.496 Q2177.02 388.496 2179.31 387.894 Q2181.63 387.292 2183.89 386.089 L2183.89 390.116 Q2181.6 391.088 2179.2 391.598 Q2176.79 392.107 2174.31 392.107 Q2168.11 392.107 2164.47 388.496 Q2160.86 384.885 2160.86 378.727 Q2160.86 372.362 2164.29 368.635 Q2167.74 364.885 2173.57 364.885 Q2178.8 364.885 2181.83 368.265 Q2184.89 371.621 2184.89 377.408 M2180.63 376.158 Q2180.58 372.663 2178.66 370.579 Q2176.76 368.496 2173.62 368.496 Q2170.05 368.496 2167.9 370.51 Q2165.77 372.524 2165.45 376.181 L2180.63 376.158 Z" fill="#000000" fill-rule="evenodd" fill-opacity="1"></path><path clip-path="url(#clip260)" d="M2208.41 366.274 L2208.41 370.302 Q2206.6 369.376 2204.66 368.913 Q2202.71 368.45 2200.63 368.45 Q2197.46 368.45 2195.86 369.422 Q2194.29 370.394 2194.29 372.339 Q2194.29 373.82 2195.42 374.677 Q2196.56 375.51 2199.98 376.274 L2201.44 376.598 Q2205.98 377.57 2207.88 379.352 Q2209.8 381.112 2209.8 384.283 Q2209.8 387.894 2206.93 390.001 Q2204.08 392.107 2199.08 392.107 Q2197 392.107 2194.73 391.69 Q2192.48 391.297 2189.98 390.487 L2189.98 386.089 Q2192.34 387.315 2194.64 387.94 Q2196.93 388.542 2199.17 388.542 Q2202.18 388.542 2203.8 387.524 Q2205.42 386.482 2205.42 384.607 Q2205.42 382.871 2204.24 381.945 Q2203.08 381.019 2199.13 380.163 L2197.64 379.815 Q2193.69 378.982 2191.93 377.269 Q2190.17 375.533 2190.17 372.524 Q2190.17 368.866 2192.76 366.876 Q2195.35 364.885 2200.12 364.885 Q2202.48 364.885 2204.57 365.232 Q2206.65 365.579 2208.41 366.274 Z" fill="#000000" fill-rule="evenodd" fill-opacity="1"></path><path clip-path="url(#clip260)" d="M2233.11 366.274 L2233.11 370.302 Q2231.3 369.376 2229.36 368.913 Q2227.41 368.45 2225.33 368.45 Q2222.16 368.45 2220.56 369.422 Q2218.99 370.394 2218.99 372.339 Q2218.99 373.82 2220.12 374.677 Q2221.26 375.51 2224.68 376.274 L2226.14 376.598 Q2230.68 377.57 2232.57 379.352 Q2234.5 381.112 2234.5 384.283 Q2234.5 387.894 2231.63 390.001 Q2228.78 392.107 2223.78 392.107 Q2221.7 392.107 2219.43 391.69 Q2217.18 391.297 2214.68 390.487 L2214.68 386.089 Q2217.04 387.315 2219.33 387.94 Q2221.63 388.542 2223.87 388.542 Q2226.88 388.542 2228.5 387.524 Q2230.12 386.482 2230.12 384.607 Q2230.12 382.871 2228.94 381.945 Q2227.78 381.019 2223.82 380.163 L2222.34 379.815 Q2218.39 378.982 2216.63 377.269 Q2214.87 375.533 2214.87 372.524 Q2214.87 368.866 2217.46 366.876 Q2220.05 364.885 2224.82 364.885 Q2227.18 364.885 2229.26 365.232 Q2231.35 365.579 2233.11 366.274 Z" fill="#000000" fill-rule="evenodd" fill-opacity="1"></path><path clip-path="url(#clip260)" d="M2241.28 365.51 L2245.54 365.51 L2245.54 391.436 L2241.28 391.436 L2241.28 365.51 M2241.28 355.417 L2245.54 355.417 L2245.54 360.811 L2241.28 360.811 L2241.28 355.417 Z" fill="#000000" fill-rule="evenodd" fill-opacity="1"></path><path clip-path="url(#clip260)" d="M2264.5 368.496 Q2261.07 368.496 2259.08 371.181 Q2257.09 373.843 2257.09 378.496 Q2257.09 383.149 2259.06 385.834 Q2261.05 388.496 2264.5 388.496 Q2267.9 388.496 2269.89 385.811 Q2271.88 383.126 2271.88 378.496 Q2271.88 373.89 2269.89 371.204 Q2267.9 368.496 2264.5 368.496 M2264.5 364.885 Q2270.05 364.885 2273.22 368.496 Q2276.39 372.107 2276.39 378.496 Q2276.39 384.862 2273.22 388.496 Q2270.05 392.107 2264.5 392.107 Q2258.92 392.107 2255.75 388.496 Q2252.6 384.862 2252.6 378.496 Q2252.6 372.107 2255.75 368.496 Q2258.92 364.885 2264.5 364.885 Z" fill="#000000" fill-rule="evenodd" fill-opacity="1"></path><path clip-path="url(#clip260)" d="M2305 375.788 L2305 391.436 L2300.75 391.436 L2300.75 375.927 Q2300.75 372.246 2299.31 370.417 Q2297.88 368.589 2295.01 368.589 Q2291.56 368.589 2289.57 370.788 Q2287.57 372.987 2287.57 376.783 L2287.57 391.436 L2283.29 391.436 L2283.29 365.51 L2287.57 365.51 L2287.57 369.538 Q2289.1 367.2 2291.16 366.042 Q2293.25 364.885 2295.95 364.885 Q2300.42 364.885 2302.71 367.663 Q2305 370.417 2305 375.788 Z" fill="#000000" fill-rule="evenodd" fill-opacity="1"></path></svg>