<svg xmlns="http://www.w3.org/2000/svg" xmlns:xlink="http://www.w3.org/1999/xlink" width="600" height="400" viewBox="0 0 2400 1600">
<defs>
  <clipPath id="clip920">
    <rect x="0" y="0" width="2400" height="1600"></rect>
  </clipPath>
</defs>
<path clip-path="url(#clip920)" d="
M0 1600 L2400 1600 L2400 0 L0 0  Z
  " fill="#ffffff" fill-rule="evenodd" fill-opacity="1"></path>
<defs>
  <clipPath id="clip921">
    <rect x="480" y="0" width="1681" height="1600"></rect>
  </clipPath>
</defs>
<path clip-path="url(#clip920)" d="
M242.135 1423.18 L1666.39 1423.18 L1666.39 47.2441 L242.135 47.2441  Z
  " fill="#ffffff" fill-rule="evenodd" fill-opacity="1"></path>
<defs>
  <clipPath id="clip922">
    <rect x="242" y="47" width="1425" height="1377"></rect>
  </clipPath>
</defs>
<polyline clip-path="url(#clip922)" style="stroke:#000000; stroke-linecap:butt; stroke-linejoin:round; stroke-width:2; stroke-opacity:0.1; fill:none" points="
  477.21,1423.18 477.21,47.2441 
  "></polyline>
<polyline clip-path="url(#clip922)" style="stroke:#000000; stroke-linecap:butt; stroke-linejoin:round; stroke-width:2; stroke-opacity:0.1; fill:none" points="
  739.132,1423.18 739.132,47.2441 
  "></polyline>
<polyline clip-path="url(#clip922)" style="stroke:#000000; stroke-linecap:butt; stroke-linejoin:round; stroke-width:2; stroke-opacity:0.1; fill:none" points="
  1001.05,1423.18 1001.05,47.2441 
  "></polyline>
<polyline clip-path="url(#clip922)" style="stroke:#000000; stroke-linecap:butt; stroke-linejoin:round; stroke-width:2; stroke-opacity:0.1; fill:none" points="
  1262.98,1423.18 1262.98,47.2441 
  "></polyline>
<polyline clip-path="url(#clip922)" style="stroke:#000000; stroke-linecap:butt; stroke-linejoin:round; stroke-width:2; stroke-opacity:0.1; fill:none" points="
  1524.9,1423.18 1524.9,47.2441 
  "></polyline>
<polyline clip-path="url(#clip920)" style="stroke:#000000; stroke-linecap:butt; stroke-linejoin:round; stroke-width:4; stroke-opacity:1; fill:none" points="
  242.135,1423.18 1666.39,1423.18 
  "></polyline>
<polyline clip-path="url(#clip920)" style="stroke:#000000; stroke-linecap:butt; stroke-linejoin:round; stroke-width:4; stroke-opacity:1; fill:none" points="
  477.21,1423.18 477.21,1404.28 
  "></polyline>
<polyline clip-path="url(#clip920)" style="stroke:#000000; stroke-linecap:butt; stroke-linejoin:round; stroke-width:4; stroke-opacity:1; fill:none" points="
  739.132,1423.18 739.132,1404.28 
  "></polyline>
<polyline clip-path="url(#clip920)" style="stroke:#000000; stroke-linecap:butt; stroke-linejoin:round; stroke-width:4; stroke-opacity:1; fill:none" points="
  1001.05,1423.18 1001.05,1404.28 
  "></polyline>
<polyline clip-path="url(#clip920)" style="stroke:#000000; stroke-linecap:butt; stroke-linejoin:round; stroke-width:4; stroke-opacity:1; fill:none" points="
  1262.98,1423.18 1262.98,1404.28 
  "></polyline>
<polyline clip-path="url(#clip920)" style="stroke:#000000; stroke-linecap:butt; stroke-linejoin:round; stroke-width:4; stroke-opacity:1; fill:none" points="
  1524.9,1423.18 1524.9,1404.28 
  "></polyline>
<path clip-path="url(#clip920)" d="M424.236 1468.75 L453.911 1468.75 L453.911 1472.69 L424.236 1472.69 L424.236 1468.75 Z" fill="#000000" fill-rule="evenodd" fill-opacity="1"></path><path clip-path="url(#clip920)" d="M464.814 1481.64 L472.453 1481.64 L472.453 1455.28 L464.143 1456.95 L464.143 1452.69 L472.407 1451.02 L477.083 1451.02 L477.083 1481.64 L484.722 1481.64 L484.722 1485.58 L464.814 1485.58 L464.814 1481.64 Z" fill="#000000" fill-rule="evenodd" fill-opacity="1"></path><path clip-path="url(#clip920)" d="M494.166 1479.7 L499.05 1479.7 L499.05 1485.58 L494.166 1485.58 L494.166 1479.7 Z" fill="#000000" fill-rule="evenodd" fill-opacity="1"></path><path clip-path="url(#clip920)" d="M509.282 1451.02 L527.638 1451.02 L527.638 1454.96 L513.564 1454.96 L513.564 1463.43 Q514.582 1463.08 515.601 1462.92 Q516.619 1462.73 517.638 1462.73 Q523.425 1462.73 526.805 1465.9 Q530.184 1469.08 530.184 1474.49 Q530.184 1480.07 526.712 1483.17 Q523.24 1486.25 516.92 1486.25 Q514.744 1486.25 512.476 1485.88 Q510.231 1485.51 507.823 1484.77 L507.823 1480.07 Q509.907 1481.2 512.129 1481.76 Q514.351 1482.32 516.828 1482.32 Q520.832 1482.32 523.17 1480.21 Q525.508 1478.1 525.508 1474.49 Q525.508 1470.88 523.17 1468.77 Q520.832 1466.67 516.828 1466.67 Q514.953 1466.67 513.078 1467.08 Q511.226 1467.5 509.282 1468.38 L509.282 1451.02 Z" fill="#000000" fill-rule="evenodd" fill-opacity="1"></path><path clip-path="url(#clip920)" d="M685.66 1468.75 L715.336 1468.75 L715.336 1472.69 L685.66 1472.69 L685.66 1468.75 Z" fill="#000000" fill-rule="evenodd" fill-opacity="1"></path><path clip-path="url(#clip920)" d="M726.238 1481.64 L733.877 1481.64 L733.877 1455.28 L725.567 1456.95 L725.567 1452.69 L733.831 1451.02 L738.507 1451.02 L738.507 1481.64 L746.146 1481.64 L746.146 1485.58 L726.238 1485.58 L726.238 1481.64 Z" fill="#000000" fill-rule="evenodd" fill-opacity="1"></path><path clip-path="url(#clip920)" d="M755.59 1479.7 L760.474 1479.7 L760.474 1485.58 L755.59 1485.58 L755.59 1479.7 Z" fill="#000000" fill-rule="evenodd" fill-opacity="1"></path><path clip-path="url(#clip920)" d="M780.659 1454.1 Q777.048 1454.1 775.22 1457.66 Q773.414 1461.2 773.414 1468.33 Q773.414 1475.44 775.22 1479.01 Q777.048 1482.55 780.659 1482.55 Q784.294 1482.55 786.099 1479.01 Q787.928 1475.44 787.928 1468.33 Q787.928 1461.2 786.099 1457.66 Q784.294 1454.1 780.659 1454.1 M780.659 1450.39 Q786.47 1450.39 789.525 1455 Q792.604 1459.58 792.604 1468.33 Q792.604 1477.06 789.525 1481.67 Q786.47 1486.25 780.659 1486.25 Q774.849 1486.25 771.771 1481.67 Q768.715 1477.06 768.715 1468.33 Q768.715 1459.58 771.771 1455 Q774.849 1450.39 780.659 1450.39 Z" fill="#000000" fill-rule="evenodd" fill-opacity="1"></path><path clip-path="url(#clip920)" d="M948.08 1468.75 L977.755 1468.75 L977.755 1472.69 L948.08 1472.69 L948.08 1468.75 Z" fill="#000000" fill-rule="evenodd" fill-opacity="1"></path><path clip-path="url(#clip920)" d="M997.848 1454.1 Q994.237 1454.1 992.408 1457.66 Q990.603 1461.2 990.603 1468.33 Q990.603 1475.44 992.408 1479.01 Q994.237 1482.55 997.848 1482.55 Q1001.48 1482.55 1003.29 1479.01 Q1005.12 1475.44 1005.12 1468.33 Q1005.12 1461.2 1003.29 1457.66 Q1001.48 1454.1 997.848 1454.1 M997.848 1450.39 Q1003.66 1450.39 1006.71 1455 Q1009.79 1459.58 1009.79 1468.33 Q1009.79 1477.06 1006.71 1481.67 Q1003.66 1486.25 997.848 1486.25 Q992.038 1486.25 988.959 1481.67 Q985.904 1477.06 985.904 1468.33 Q985.904 1459.58 988.959 1455 Q992.038 1450.39 997.848 1450.39 Z" fill="#000000" fill-rule="evenodd" fill-opacity="1"></path><path clip-path="url(#clip920)" d="M1018.01 1479.7 L1022.89 1479.7 L1022.89 1485.58 L1018.01 1485.58 L1018.01 1479.7 Z" fill="#000000" fill-rule="evenodd" fill-opacity="1"></path><path clip-path="url(#clip920)" d="M1033.13 1451.02 L1051.48 1451.02 L1051.48 1454.96 L1037.41 1454.96 L1037.41 1463.43 Q1038.43 1463.08 1039.44 1462.92 Q1040.46 1462.73 1041.48 1462.73 Q1047.27 1462.73 1050.65 1465.9 Q1054.03 1469.08 1054.03 1474.49 Q1054.03 1480.07 1050.56 1483.17 Q1047.08 1486.25 1040.76 1486.25 Q1038.59 1486.25 1036.32 1485.88 Q1034.07 1485.51 1031.67 1484.77 L1031.67 1480.07 Q1033.75 1481.2 1035.97 1481.76 Q1038.19 1482.32 1040.67 1482.32 Q1044.68 1482.32 1047.01 1480.21 Q1049.35 1478.1 1049.35 1474.49 Q1049.35 1470.88 1047.01 1468.77 Q1044.68 1466.67 1040.67 1466.67 Q1038.8 1466.67 1036.92 1467.08 Q1035.07 1467.5 1033.13 1468.38 L1033.13 1451.02 Z" fill="#000000" fill-rule="evenodd" fill-opacity="1"></path><path clip-path="url(#clip920)" d="M1240.36 1454.1 Q1236.75 1454.1 1234.92 1457.66 Q1233.11 1461.2 1233.11 1468.33 Q1233.11 1475.44 1234.92 1479.01 Q1236.75 1482.55 1240.36 1482.55 Q1243.99 1482.55 1245.8 1479.01 Q1247.63 1475.44 1247.63 1468.33 Q1247.63 1461.2 1245.8 1457.66 Q1243.99 1454.1 1240.36 1454.1 M1240.36 1450.39 Q1246.17 1450.39 1249.23 1455 Q1252.3 1459.58 1252.3 1468.33 Q1252.3 1477.06 1249.23 1481.67 Q1246.17 1486.25 1240.36 1486.25 Q1234.55 1486.25 1231.47 1481.67 Q1228.42 1477.06 1228.42 1468.33 Q1228.42 1459.58 1231.47 1455 Q1234.55 1450.39 1240.36 1450.39 Z" fill="#000000" fill-rule="evenodd" fill-opacity="1"></path><path clip-path="url(#clip920)" d="M1260.52 1479.7 L1265.41 1479.7 L1265.41 1485.58 L1260.52 1485.58 L1260.52 1479.7 Z" fill="#000000" fill-rule="evenodd" fill-opacity="1"></path><path clip-path="url(#clip920)" d="M1285.59 1454.1 Q1281.98 1454.1 1280.15 1457.66 Q1278.35 1461.2 1278.35 1468.33 Q1278.35 1475.44 1280.15 1479.01 Q1281.98 1482.55 1285.59 1482.55 Q1289.23 1482.55 1291.03 1479.01 Q1292.86 1475.44 1292.86 1468.33 Q1292.86 1461.2 1291.03 1457.66 Q1289.23 1454.1 1285.59 1454.1 M1285.59 1450.39 Q1291.4 1450.39 1294.46 1455 Q1297.54 1459.58 1297.54 1468.33 Q1297.54 1477.06 1294.46 1481.67 Q1291.4 1486.25 1285.59 1486.25 Q1279.78 1486.25 1276.7 1481.67 Q1273.65 1477.06 1273.65 1468.33 Q1273.65 1459.58 1276.7 1455 Q1279.78 1450.39 1285.59 1450.39 Z" fill="#000000" fill-rule="evenodd" fill-opacity="1"></path><path clip-path="url(#clip920)" d="M1502.78 1454.1 Q1499.17 1454.1 1497.34 1457.66 Q1495.53 1461.2 1495.53 1468.33 Q1495.53 1475.44 1497.34 1479.01 Q1499.17 1482.55 1502.78 1482.55 Q1506.41 1482.55 1508.22 1479.01 Q1510.05 1475.44 1510.05 1468.33 Q1510.05 1461.2 1508.22 1457.66 Q1506.41 1454.1 1502.78 1454.1 M1502.78 1450.39 Q1508.59 1450.39 1511.65 1455 Q1514.72 1459.58 1514.72 1468.33 Q1514.72 1477.06 1511.65 1481.67 Q1508.59 1486.25 1502.78 1486.25 Q1496.97 1486.25 1493.89 1481.67 Q1490.84 1477.06 1490.84 1468.33 Q1490.84 1459.58 1493.89 1455 Q1496.97 1450.39 1502.78 1450.39 Z" fill="#000000" fill-rule="evenodd" fill-opacity="1"></path><path clip-path="url(#clip920)" d="M1522.94 1479.7 L1527.83 1479.7 L1527.83 1485.58 L1522.94 1485.58 L1522.94 1479.7 Z" fill="#000000" fill-rule="evenodd" fill-opacity="1"></path><path clip-path="url(#clip920)" d="M1538.06 1451.02 L1556.41 1451.02 L1556.41 1454.96 L1542.34 1454.96 L1542.34 1463.43 Q1543.36 1463.08 1544.38 1462.92 Q1545.4 1462.73 1546.41 1462.73 Q1552.2 1462.73 1555.58 1465.9 Q1558.96 1469.08 1558.96 1474.49 Q1558.96 1480.07 1555.49 1483.17 Q1552.02 1486.25 1545.7 1486.25 Q1543.52 1486.25 1541.25 1485.88 Q1539.01 1485.51 1536.6 1484.77 L1536.6 1480.07 Q1538.68 1481.2 1540.9 1481.76 Q1543.13 1482.32 1545.6 1482.32 Q1549.61 1482.32 1551.95 1480.21 Q1554.28 1478.1 1554.28 1474.49 Q1554.28 1470.88 1551.95 1468.77 Q1549.61 1466.67 1545.6 1466.67 Q1543.73 1466.67 1541.85 1467.08 Q1540 1467.5 1538.06 1468.38 L1538.06 1451.02 Z" fill="#000000" fill-rule="evenodd" fill-opacity="1"></path><path clip-path="url(#clip920)" d="M746.563 1520.52 L752.993 1520.52 L752.993 1562.63 L776.132 1562.63 L776.132 1568.04 L746.563 1568.04 L746.563 1520.52 Z" fill="#000000" fill-rule="evenodd" fill-opacity="1"></path><path clip-path="url(#clip920)" d="M795.293 1536.5 Q790.582 1536.5 787.845 1540.19 Q785.107 1543.85 785.107 1550.25 Q785.107 1556.65 787.813 1560.34 Q790.55 1564 795.293 1564 Q799.971 1564 802.709 1560.31 Q805.446 1556.62 805.446 1550.25 Q805.446 1543.92 802.709 1540.23 Q799.971 1536.5 795.293 1536.5 M795.293 1531.54 Q802.931 1531.54 807.292 1536.5 Q811.652 1541.47 811.652 1550.25 Q811.652 1559 807.292 1564 Q802.931 1568.97 795.293 1568.97 Q787.622 1568.97 783.261 1564 Q778.933 1559 778.933 1550.25 Q778.933 1541.47 783.261 1536.5 Q787.622 1531.54 795.293 1531.54 Z" fill="#000000" fill-rule="evenodd" fill-opacity="1"></path><path clip-path="url(#clip920)" d="M844.818 1549.81 Q844.818 1543.44 842.176 1539.94 Q839.566 1536.44 834.824 1536.44 Q830.113 1536.44 827.471 1539.94 Q824.861 1543.44 824.861 1549.81 Q824.861 1556.14 827.471 1559.64 Q830.113 1563.14 834.824 1563.14 Q839.566 1563.14 842.176 1559.64 Q844.818 1556.14 844.818 1549.81 M850.674 1563.62 Q850.674 1572.72 846.632 1577.15 Q842.59 1581.6 834.251 1581.6 Q831.163 1581.6 828.426 1581.13 Q825.689 1580.68 823.111 1579.72 L823.111 1574.03 Q825.689 1575.43 828.203 1576.1 Q830.718 1576.76 833.328 1576.76 Q839.089 1576.76 841.953 1573.74 Q844.818 1570.75 844.818 1564.67 L844.818 1561.77 Q843.004 1564.92 840.171 1566.48 Q837.338 1568.04 833.391 1568.04 Q826.835 1568.04 822.824 1563.05 Q818.814 1558.05 818.814 1549.81 Q818.814 1541.53 822.824 1536.53 Q826.835 1531.54 833.391 1531.54 Q837.338 1531.54 840.171 1533.1 Q843.004 1534.66 844.818 1537.81 L844.818 1532.4 L850.674 1532.4 L850.674 1563.62 Z" fill="#000000" fill-rule="evenodd" fill-opacity="1"></path><path clip-path="url(#clip920)" d="M906.183 1533.45 L906.183 1538.98 Q903.701 1537.71 901.027 1537.07 Q898.353 1536.44 895.489 1536.44 Q891.128 1536.44 888.932 1537.77 Q886.768 1539.11 886.768 1541.79 Q886.768 1543.82 888.327 1545 Q889.887 1546.15 894.598 1547.2 L896.603 1547.64 Q902.841 1548.98 905.451 1551.43 Q908.093 1553.85 908.093 1558.21 Q908.093 1563.17 904.146 1566.07 Q900.231 1568.97 893.356 1568.97 Q890.492 1568.97 887.373 1568.39 Q884.285 1567.85 880.848 1566.74 L880.848 1560.69 Q884.094 1562.38 887.245 1563.24 Q890.396 1564.07 893.484 1564.07 Q897.621 1564.07 899.849 1562.66 Q902.077 1561.23 902.077 1558.65 Q902.077 1556.27 900.454 1554.99 Q898.863 1553.72 893.42 1552.54 L891.383 1552.07 Q885.94 1550.92 883.521 1548.56 Q881.102 1546.18 881.102 1542.04 Q881.102 1537.01 884.667 1534.27 Q888.232 1531.54 894.789 1531.54 Q898.035 1531.54 900.9 1532.01 Q903.764 1532.49 906.183 1533.45 Z" fill="#000000" fill-rule="evenodd" fill-opacity="1"></path><path clip-path="url(#clip920)" d="M923.212 1522.27 L923.212 1532.4 L935.275 1532.4 L935.275 1536.95 L923.212 1536.95 L923.212 1556.3 Q923.212 1560.66 924.389 1561.9 Q925.599 1563.14 929.259 1563.14 L935.275 1563.14 L935.275 1568.04 L929.259 1568.04 Q922.479 1568.04 919.901 1565.53 Q917.323 1562.98 917.323 1556.3 L917.323 1536.95 L913.026 1536.95 L913.026 1532.4 L917.323 1532.4 L917.323 1522.27 L923.212 1522.27 Z" fill="#000000" fill-rule="evenodd" fill-opacity="1"></path><path clip-path="url(#clip920)" d="M973.469 1548.76 L973.469 1551.62 L946.542 1551.62 Q946.924 1557.67 950.17 1560.85 Q953.449 1564 959.273 1564 Q962.647 1564 965.798 1563.17 Q968.981 1562.35 972.1 1560.69 L972.1 1566.23 Q968.949 1567.57 965.639 1568.27 Q962.329 1568.97 958.923 1568.97 Q950.393 1568.97 945.396 1564 Q940.431 1559.04 940.431 1550.57 Q940.431 1541.82 945.141 1536.69 Q949.884 1531.54 957.905 1531.54 Q965.098 1531.54 969.267 1536.18 Q973.469 1540.8 973.469 1548.76 M967.612 1547.04 Q967.549 1542.23 964.907 1539.37 Q962.297 1536.5 957.968 1536.5 Q953.067 1536.5 950.107 1539.27 Q947.178 1542.04 946.733 1547.07 L967.612 1547.04 Z" fill="#000000" fill-rule="evenodd" fill-opacity="1"></path><path clip-path="url(#clip920)" d="M988.746 1562.7 L988.746 1581.6 L982.858 1581.6 L982.858 1532.4 L988.746 1532.4 L988.746 1537.81 Q990.593 1534.62 993.393 1533.1 Q996.226 1531.54 1000.14 1531.54 Q1006.63 1531.54 1010.68 1536.69 Q1014.75 1541.85 1014.75 1550.25 Q1014.75 1558.65 1010.68 1563.81 Q1006.63 1568.97 1000.14 1568.97 Q996.226 1568.97 993.393 1567.44 Q990.593 1565.88 988.746 1562.7 M1008.67 1550.25 Q1008.67 1543.79 1006 1540.13 Q1003.36 1536.44 998.709 1536.44 Q994.062 1536.44 991.388 1540.13 Q988.746 1543.79 988.746 1550.25 Q988.746 1556.71 991.388 1560.4 Q994.062 1564.07 998.709 1564.07 Q1003.36 1564.07 1006 1560.4 Q1008.67 1556.71 1008.67 1550.25 Z" fill="#000000" fill-rule="evenodd" fill-opacity="1"></path><path clip-path="url(#clip920)" d="M1067.9 1533.45 L1067.9 1538.98 Q1065.42 1537.71 1062.75 1537.07 Q1060.07 1536.44 1057.21 1536.44 Q1052.85 1536.44 1050.65 1537.77 Q1048.49 1539.11 1048.49 1541.79 Q1048.49 1543.82 1050.05 1545 Q1051.61 1546.15 1056.32 1547.2 L1058.32 1547.64 Q1064.56 1548.98 1067.17 1551.43 Q1069.81 1553.85 1069.81 1558.21 Q1069.81 1563.17 1065.87 1566.07 Q1061.95 1568.97 1055.08 1568.97 Q1052.21 1568.97 1049.09 1568.39 Q1046.01 1567.85 1042.57 1566.74 L1042.57 1560.69 Q1045.82 1562.38 1048.97 1563.24 Q1052.12 1564.07 1055.2 1564.07 Q1059.34 1564.07 1061.57 1562.66 Q1063.8 1561.23 1063.8 1558.65 Q1063.8 1556.27 1062.17 1554.99 Q1060.58 1553.72 1055.14 1552.54 L1053.1 1552.07 Q1047.66 1550.92 1045.24 1548.56 Q1042.82 1546.18 1042.82 1542.04 Q1042.82 1537.01 1046.39 1534.27 Q1049.95 1531.54 1056.51 1531.54 Q1059.76 1531.54 1062.62 1532.01 Q1065.49 1532.49 1067.9 1533.45 Z" fill="#000000" fill-rule="evenodd" fill-opacity="1"></path><path clip-path="url(#clip920)" d="M1079.14 1532.4 L1085 1532.4 L1085 1568.04 L1079.14 1568.04 L1079.14 1532.4 M1079.14 1518.52 L1085 1518.52 L1085 1525.93 L1079.14 1525.93 L1079.14 1518.52 Z" fill="#000000" fill-rule="evenodd" fill-opacity="1"></path><path clip-path="url(#clip920)" d="M1094.7 1532.4 L1122.52 1532.4 L1122.52 1537.74 L1100.5 1563.37 L1122.52 1563.37 L1122.52 1568.04 L1093.91 1568.04 L1093.91 1562.7 L1115.93 1537.07 L1094.7 1537.07 L1094.7 1532.4 Z" fill="#000000" fill-rule="evenodd" fill-opacity="1"></path><path clip-path="url(#clip920)" d="M1161.96 1548.76 L1161.96 1551.62 L1135.03 1551.62 Q1135.41 1557.67 1138.66 1560.85 Q1141.94 1564 1147.76 1564 Q1151.14 1564 1154.29 1563.17 Q1157.47 1562.35 1160.59 1560.69 L1160.59 1566.23 Q1157.44 1567.57 1154.13 1568.27 Q1150.82 1568.97 1147.41 1568.97 Q1138.88 1568.97 1133.88 1564 Q1128.92 1559.04 1128.92 1550.57 Q1128.92 1541.82 1133.63 1536.69 Q1138.37 1531.54 1146.39 1531.54 Q1153.59 1531.54 1157.76 1536.18 Q1161.96 1540.8 1161.96 1548.76 M1156.1 1547.04 Q1156.04 1542.23 1153.4 1539.37 Q1150.79 1536.5 1146.46 1536.5 Q1141.56 1536.5 1138.6 1539.27 Q1135.67 1542.04 1135.22 1547.07 L1156.1 1547.04 Z" fill="#000000" fill-rule="evenodd" fill-opacity="1"></path><polyline clip-path="url(#clip922)" style="stroke:#000000; stroke-linecap:butt; stroke-linejoin:round; stroke-width:2; stroke-opacity:0.1; fill:none" points="
  242.135,1146.6 1666.39,1146.6 
  "></polyline>
<polyline clip-path="url(#clip922)" style="stroke:#000000; stroke-linecap:butt; stroke-linejoin:round; stroke-width:2; stroke-opacity:0.1; fill:none" points="
  242.135,853.582 1666.39,853.582 
  "></polyline>
<polyline clip-path="url(#clip922)" style="stroke:#000000; stroke-linecap:butt; stroke-linejoin:round; stroke-width:2; stroke-opacity:0.1; fill:none" points="
  242.135,560.563 1666.39,560.563 
  "></polyline>
<polyline clip-path="url(#clip922)" style="stroke:#000000; stroke-linecap:butt; stroke-linejoin:round; stroke-width:2; stroke-opacity:0.1; fill:none" points="
  242.135,267.545 1666.39,267.545 
  "></polyline>
<polyline clip-path="url(#clip920)" style="stroke:#000000; stroke-linecap:butt; stroke-linejoin:round; stroke-width:4; stroke-opacity:1; fill:none" points="
  242.135,1423.18 242.135,47.2441 
  "></polyline>
<polyline clip-path="url(#clip920)" style="stroke:#000000; stroke-linecap:butt; stroke-linejoin:round; stroke-width:4; stroke-opacity:1; fill:none" points="
  242.135,1146.6 254.887,1146.6 
  "></polyline>
<polyline clip-path="url(#clip920)" style="stroke:#000000; stroke-linecap:butt; stroke-linejoin:round; stroke-width:4; stroke-opacity:1; fill:none" points="
  242.135,853.582 254.887,853.582 
  "></polyline>
<polyline clip-path="url(#clip920)" style="stroke:#000000; stroke-linecap:butt; stroke-linejoin:round; stroke-width:4; stroke-opacity:1; fill:none" points="
  242.135,560.563 254.887,560.563 
  "></polyline>
<polyline clip-path="url(#clip920)" style="stroke:#000000; stroke-linecap:butt; stroke-linejoin:round; stroke-width:4; stroke-opacity:1; fill:none" points="
  242.135,267.545 254.887,267.545 
  "></polyline>
<path clip-path="url(#clip920)" d="M114.26 1147.05 L143.936 1147.05 L143.936 1150.99 L114.26 1150.99 L114.26 1147.05 Z" fill="#000000" fill-rule="evenodd" fill-opacity="1"></path><path clip-path="url(#clip920)" d="M154.839 1159.94 L162.477 1159.94 L162.477 1133.58 L154.167 1135.25 L154.167 1130.99 L162.431 1129.32 L167.107 1129.32 L167.107 1159.94 L174.746 1159.94 L174.746 1163.88 L154.839 1163.88 L154.839 1159.94 Z" fill="#000000" fill-rule="evenodd" fill-opacity="1"></path><path clip-path="url(#clip920)" d="M194.19 1132.4 Q190.579 1132.4 188.75 1135.96 Q186.945 1139.5 186.945 1146.63 Q186.945 1153.74 188.75 1157.31 Q190.579 1160.85 194.19 1160.85 Q197.825 1160.85 199.63 1157.31 Q201.459 1153.74 201.459 1146.63 Q201.459 1139.5 199.63 1135.96 Q197.825 1132.4 194.19 1132.4 M194.19 1128.69 Q200 1128.69 203.056 1133.3 Q206.135 1137.88 206.135 1146.63 Q206.135 1155.36 203.056 1159.97 Q200 1164.55 194.19 1164.55 Q188.38 1164.55 185.301 1159.97 Q182.246 1155.36 182.246 1146.63 Q182.246 1137.88 185.301 1133.3 Q188.38 1128.69 194.19 1128.69 Z" fill="#000000" fill-rule="evenodd" fill-opacity="1"></path><path clip-path="url(#clip920)" d="M145.417 854.033 L175.093 854.033 L175.093 857.968 L145.417 857.968 L145.417 854.033 Z" fill="#000000" fill-rule="evenodd" fill-opacity="1"></path><path clip-path="url(#clip920)" d="M185.232 836.302 L203.588 836.302 L203.588 840.237 L189.514 840.237 L189.514 848.709 Q190.533 848.362 191.551 848.2 Q192.57 848.014 193.588 848.014 Q199.375 848.014 202.755 851.186 Q206.135 854.357 206.135 859.774 Q206.135 865.352 202.662 868.454 Q199.19 871.533 192.871 871.533 Q190.695 871.533 188.426 871.162 Q186.181 870.792 183.774 870.051 L183.774 865.352 Q185.857 866.487 188.079 867.042 Q190.301 867.598 192.778 867.598 Q196.783 867.598 199.121 865.491 Q201.459 863.385 201.459 859.774 Q201.459 856.163 199.121 854.056 Q196.783 851.95 192.778 851.95 Q190.903 851.95 189.028 852.366 Q187.176 852.783 185.232 853.663 L185.232 836.302 Z" fill="#000000" fill-rule="evenodd" fill-opacity="1"></path><path clip-path="url(#clip920)" d="M194.19 546.362 Q190.579 546.362 188.75 549.927 Q186.945 553.468 186.945 560.598 Q186.945 567.704 188.75 571.269 Q190.579 574.811 194.19 574.811 Q197.825 574.811 199.63 571.269 Q201.459 567.704 201.459 560.598 Q201.459 553.468 199.63 549.927 Q197.825 546.362 194.19 546.362 M194.19 542.658 Q200 542.658 203.056 547.265 Q206.135 551.848 206.135 560.598 Q206.135 569.325 203.056 573.931 Q200 578.515 194.19 578.515 Q188.38 578.515 185.301 573.931 Q182.246 569.325 182.246 560.598 Q182.246 551.848 185.301 547.265 Q188.38 542.658 194.19 542.658 Z" fill="#000000" fill-rule="evenodd" fill-opacity="1"></path><path clip-path="url(#clip920)" d="M185.232 250.265 L203.588 250.265 L203.588 254.2 L189.514 254.2 L189.514 262.672 Q190.533 262.325 191.551 262.163 Q192.57 261.978 193.588 261.978 Q199.375 261.978 202.755 265.149 Q206.135 268.321 206.135 273.737 Q206.135 279.316 202.662 282.418 Q199.19 285.496 192.871 285.496 Q190.695 285.496 188.426 285.126 Q186.181 284.756 183.774 284.015 L183.774 279.316 Q185.857 280.45 188.079 281.006 Q190.301 281.561 192.778 281.561 Q196.783 281.561 199.121 279.455 Q201.459 277.348 201.459 273.737 Q201.459 270.126 199.121 268.02 Q196.783 265.913 192.778 265.913 Q190.903 265.913 189.028 266.33 Q187.176 266.746 185.232 267.626 L185.232 250.265 Z" fill="#000000" fill-rule="evenodd" fill-opacity="1"></path><path clip-path="url(#clip920)" d="M57.2247 951.519 L44.4614 951.519 L44.4614 962.022 L39.1779 962.022 L39.1779 945.153 L59.58 945.153 Q62.2218 948.877 63.5904 953.365 Q64.9272 957.853 64.9272 962.945 Q64.9272 974.085 58.4342 980.387 Q51.9093 986.657 40.2919 986.657 Q28.6427 986.657 22.1496 980.387 Q15.6248 974.085 15.6248 962.945 Q15.6248 958.298 16.7706 954.129 Q17.9164 949.927 20.1444 946.394 L26.9876 946.394 Q23.9639 949.959 22.4361 953.969 Q20.9083 957.98 20.9083 962.404 Q20.9083 971.125 25.7781 975.517 Q30.6479 979.878 40.2919 979.878 Q49.9041 979.878 54.7739 975.517 Q59.6436 971.125 59.6436 962.404 Q59.6436 958.998 59.0707 956.325 Q58.466 953.651 57.2247 951.519 Z" fill="#000000" fill-rule="evenodd" fill-opacity="1"></path><path clip-path="url(#clip920)" d="M14.479 933.663 L14.479 927.806 L64.0042 927.806 L64.0042 933.663 L14.479 933.663 Z" fill="#000000" fill-rule="evenodd" fill-opacity="1"></path><path clip-path="url(#clip920)" d="M32.4621 901.739 Q32.4621 906.449 36.1542 909.187 Q39.8145 911.924 46.212 911.924 Q52.6095 911.924 56.3017 909.219 Q59.9619 906.481 59.9619 901.739 Q59.9619 897.06 56.2698 894.323 Q52.5777 891.586 46.212 891.586 Q39.8781 891.586 36.186 894.323 Q32.4621 897.06 32.4621 901.739 M27.4968 901.739 Q27.4968 894.1 32.4621 889.739 Q37.4273 885.379 46.212 885.379 Q54.9649 885.379 59.9619 889.739 Q64.9272 894.1 64.9272 901.739 Q64.9272 909.41 59.9619 913.77 Q54.9649 918.099 46.212 918.099 Q37.4273 918.099 32.4621 913.77 Q27.4968 909.41 27.4968 901.739 Z" fill="#000000" fill-rule="evenodd" fill-opacity="1"></path><path clip-path="url(#clip920)" d="M46.212 850.081 Q39.7508 850.081 36.0905 852.755 Q32.3984 855.397 32.3984 860.043 Q32.3984 864.69 36.0905 867.364 Q39.7508 870.006 46.212 870.006 Q52.6732 870.006 56.3653 867.364 Q60.0256 864.69 60.0256 860.043 Q60.0256 855.397 56.3653 852.755 Q52.6732 850.081 46.212 850.081 M33.7671 870.006 Q30.5842 868.16 29.0564 865.359 Q27.4968 862.526 27.4968 858.611 Q27.4968 852.118 32.6531 848.076 Q37.8093 844.002 46.212 844.002 Q54.6147 844.002 59.771 848.076 Q64.9272 852.118 64.9272 858.611 Q64.9272 862.526 63.3994 865.359 Q61.8398 868.16 58.657 870.006 L64.0042 870.006 L64.0042 875.894 L14.479 875.894 L14.479 870.006 L33.7671 870.006 Z" fill="#000000" fill-rule="evenodd" fill-opacity="1"></path><path clip-path="url(#clip920)" d="M46.0847 818.093 Q46.0847 825.191 47.7079 827.928 Q49.3312 830.666 53.2461 830.666 Q56.3653 830.666 58.2114 828.629 Q60.0256 826.56 60.0256 823.027 Q60.0256 818.157 56.5881 815.229 Q53.1188 812.269 47.3897 812.269 L46.0847 812.269 L46.0847 818.093 M43.6657 806.412 L64.0042 806.412 L64.0042 812.269 L58.5933 812.269 Q61.8398 814.274 63.3994 817.266 Q64.9272 820.258 64.9272 824.586 Q64.9272 830.061 61.8716 833.308 Q58.7843 836.522 53.6281 836.522 Q47.6125 836.522 44.5569 832.512 Q41.5014 828.47 41.5014 820.481 L41.5014 812.269 L40.9285 812.269 Q36.8862 812.269 34.6901 814.942 Q32.4621 817.584 32.4621 822.39 Q32.4621 825.446 33.1941 828.342 Q33.9262 831.239 35.3903 833.912 L29.9795 833.912 Q28.7381 830.698 28.1334 827.674 Q27.4968 824.65 27.4968 821.786 Q27.4968 814.051 31.5072 810.232 Q35.5176 806.412 43.6657 806.412 Z" fill="#000000" fill-rule="evenodd" fill-opacity="1"></path><path clip-path="url(#clip920)" d="M14.479 794.349 L14.479 788.493 L64.0042 788.493 L64.0042 794.349 L14.479 794.349 Z" fill="#000000" fill-rule="evenodd" fill-opacity="1"></path><path clip-path="url(#clip920)" d="M14.479 755.519 L14.479 749.662 L64.0042 749.662 L64.0042 755.519 L14.479 755.519 Z" fill="#000000" fill-rule="evenodd" fill-opacity="1"></path><path clip-path="url(#clip920)" d="M32.4621 723.595 Q32.4621 728.305 36.1542 731.042 Q39.8145 733.78 46.212 733.78 Q52.6095 733.78 56.3017 731.074 Q59.9619 728.337 59.9619 723.595 Q59.9619 718.916 56.2698 716.179 Q52.5777 713.441 46.212 713.441 Q39.8781 713.441 36.186 716.179 Q32.4621 718.916 32.4621 723.595 M27.4968 723.595 Q27.4968 715.956 32.4621 711.595 Q37.4273 707.235 46.212 707.235 Q54.9649 707.235 59.9619 711.595 Q64.9272 715.956 64.9272 723.595 Q64.9272 731.265 59.9619 735.626 Q54.9649 739.954 46.212 739.954 Q37.4273 739.954 32.4621 735.626 Q27.4968 731.265 27.4968 723.595 Z" fill="#000000" fill-rule="evenodd" fill-opacity="1"></path><path clip-path="url(#clip920)" d="M45.7664 674.069 Q39.4007 674.069 35.8996 676.711 Q32.3984 679.321 32.3984 684.064 Q32.3984 688.774 35.8996 691.416 Q39.4007 694.026 45.7664 694.026 Q52.1003 694.026 55.6014 691.416 Q59.1026 688.774 59.1026 684.064 Q59.1026 679.321 55.6014 676.711 Q52.1003 674.069 45.7664 674.069 M59.58 668.213 Q68.683 668.213 73.1071 672.255 Q77.5631 676.297 77.5631 684.636 Q77.5631 687.724 77.0857 690.461 Q76.6401 693.198 75.6852 695.776 L69.9879 695.776 Q71.3884 693.198 72.0568 690.684 Q72.7252 688.169 72.7252 685.559 Q72.7252 679.798 69.7015 676.934 Q66.7096 674.069 60.6303 674.069 L57.7339 674.069 Q60.885 675.884 62.4446 678.716 Q64.0042 681.549 64.0042 685.496 Q64.0042 692.052 59.0071 696.063 Q54.01 700.073 45.7664 700.073 Q37.491 700.073 32.4939 696.063 Q27.4968 692.052 27.4968 685.496 Q27.4968 681.549 29.0564 678.716 Q30.616 675.884 33.7671 674.069 L28.3562 674.069 L28.3562 668.213 L59.58 668.213 Z" fill="#000000" fill-rule="evenodd" fill-opacity="1"></path><path clip-path="url(#clip920)" d="M44.7161 604.938 L47.5806 604.938 L47.5806 631.865 Q53.6281 631.483 56.8109 628.236 Q59.9619 624.958 59.9619 619.133 Q59.9619 615.759 59.1344 612.608 Q58.3069 609.426 56.6518 606.306 L62.1899 606.306 Q63.5267 609.457 64.227 612.768 Q64.9272 616.078 64.9272 619.483 Q64.9272 628.013 59.9619 633.011 Q54.9967 637.976 46.5303 637.976 Q37.7774 637.976 32.6531 633.265 Q27.4968 628.523 27.4968 620.502 Q27.4968 613.309 32.1438 609.139 Q36.7589 604.938 44.7161 604.938 M42.9973 610.794 Q38.1912 610.858 35.3266 613.5 Q32.4621 616.11 32.4621 620.438 Q32.4621 625.34 35.2312 628.3 Q38.0002 631.228 43.0292 631.674 L42.9973 610.794 Z" fill="#000000" fill-rule="evenodd" fill-opacity="1"></path><path clip-path="url(#clip920)" d="M33.8307 574.669 Q33.2578 575.656 33.0032 576.833 Q32.7167 577.979 32.7167 579.379 Q32.7167 584.345 35.9632 587.018 Q39.1779 589.66 45.2253 589.66 L64.0042 589.66 L64.0042 595.548 L28.3562 595.548 L28.3562 589.66 L33.8944 589.66 Q30.6479 587.814 29.0883 584.854 Q27.4968 581.894 27.4968 577.661 Q27.4968 577.056 27.5923 576.324 Q27.656 575.592 27.8151 574.701 L33.8307 574.669 Z" fill="#000000" fill-rule="evenodd" fill-opacity="1"></path><path clip-path="url(#clip920)" d="M33.8307 549.015 Q33.2578 550.002 33.0032 551.179 Q32.7167 552.325 32.7167 553.726 Q32.7167 558.691 35.9632 561.365 Q39.1779 564.006 45.2253 564.006 L64.0042 564.006 L64.0042 569.895 L28.3562 569.895 L28.3562 564.006 L33.8944 564.006 Q30.6479 562.16 29.0883 559.2 Q27.4968 556.24 27.4968 552.007 Q27.4968 551.402 27.5923 550.67 Q27.656 549.938 27.8151 549.047 L33.8307 549.015 Z" fill="#000000" fill-rule="evenodd" fill-opacity="1"></path><path clip-path="url(#clip920)" d="M32.4621 530.491 Q32.4621 535.201 36.1542 537.939 Q39.8145 540.676 46.212 540.676 Q52.6095 540.676 56.3017 537.971 Q59.9619 535.233 59.9619 530.491 Q59.9619 525.812 56.2698 523.075 Q52.5777 520.338 46.212 520.338 Q39.8781 520.338 36.186 523.075 Q32.4621 525.812 32.4621 530.491 M27.4968 530.491 Q27.4968 522.852 32.4621 518.491 Q37.4273 514.131 46.212 514.131 Q54.9649 514.131 59.9619 518.491 Q64.9272 522.852 64.9272 530.491 Q64.9272 538.162 59.9619 542.522 Q54.9649 546.851 46.212 546.851 Q37.4273 546.851 32.4621 542.522 Q27.4968 538.162 27.4968 530.491 Z" fill="#000000" fill-rule="evenodd" fill-opacity="1"></path><path clip-path="url(#clip920)" d="M33.8307 483.767 Q33.2578 484.753 33.0032 485.931 Q32.7167 487.077 32.7167 488.477 Q32.7167 493.442 35.9632 496.116 Q39.1779 498.758 45.2253 498.758 L64.0042 498.758 L64.0042 504.646 L28.3562 504.646 L28.3562 498.758 L33.8944 498.758 Q30.6479 496.912 29.0883 493.952 Q27.4968 490.992 27.4968 486.758 Q27.4968 486.154 27.5923 485.422 Q27.656 484.69 27.8151 483.798 L33.8307 483.767 Z" fill="#000000" fill-rule="evenodd" fill-opacity="1"></path><polyline clip-path="url(#clip922)" style="stroke:#009af9; stroke-linecap:butt; stroke-linejoin:round; stroke-width:4; stroke-opacity:1; fill:none" stroke-dasharray="16, 10" points="
  282.444,1325.63 295.88,1324.13 309.316,1322.63 322.753,1321.13 336.189,1319.62 349.625,1318.12 363.062,1316.62 376.498,1315.11 389.934,1313.61 403.371,1312.11 
  416.807,1310.6 430.243,1309.1 443.68,1307.6 457.116,1306.09 470.552,1304.59 483.989,1303.09 497.425,1301.58 510.861,1300.08 524.298,1298.58 537.734,1297.07 
  551.17,1295.57 564.607,1294.07 578.043,1292.57 591.479,1291.06 604.916,1289.56 618.352,1288.06 631.788,1286.55 645.225,1285.05 658.661,1283.55 672.097,1282.04 
  685.534,1280.54 698.97,1279.04 712.406,1277.53 725.843,1276.03 739.279,1274.53 752.715,1273.02 766.152,1271.52 779.588,1270.02 793.024,1268.51 806.461,1267.01 
  819.897,1265.51 833.333,1264.01 846.77,1262.5 860.206,1261 873.642,1259.5 887.079,1257.99 900.515,1256.49 913.951,1254.99 927.388,1253.48 940.824,1251.98 
  954.26,1250.48 967.697,1248.97 981.133,1247.47 994.569,1245.97 1008.01,1244.46 1021.44,1242.96 1034.88,1241.46 1048.31,1239.95 1061.75,1238.45 1075.19,1236.95 
  1088.62,1235.45 1102.06,1233.94 1115.5,1232.44 1128.93,1230.94 1142.37,1229.43 1155.81,1227.93 1169.24,1226.43 1182.68,1224.92 1196.11,1223.42 1209.55,1221.92 
  1222.99,1220.41 1236.42,1218.91 1249.86,1217.41 1263.3,1215.9 1276.73,1214.4 1290.17,1212.9 1303.6,1211.39 1317.04,1209.89 1330.48,1208.39 1343.91,1206.89 
  1357.35,1205.38 1370.79,1203.88 1384.22,1202.38 1397.66,1200.87 1411.1,1199.37 1424.53,1197.87 1437.97,1196.36 1451.4,1194.86 1464.84,1193.36 1478.28,1191.85 
  1491.71,1190.35 1505.15,1188.85 1518.59,1187.34 1532.02,1185.84 1545.46,1184.34 1558.9,1182.84 1572.33,1181.33 1585.77,1179.83 1599.2,1178.33 1612.64,1176.82 
  
  "></polyline>
<polyline clip-path="url(#clip922)" style="stroke:#e26f46; stroke-linecap:butt; stroke-linejoin:round; stroke-width:4; stroke-opacity:1; fill:none" stroke-dasharray="16, 10" points="
  282.444,1325.63 295.88,1315.11 309.316,1304.59 322.753,1294.07 336.189,1283.55 349.625,1273.02 363.062,1262.5 376.498,1251.98 389.934,1241.46 403.371,1230.94 
  416.807,1220.41 430.243,1209.89 443.68,1199.37 457.116,1188.85 470.552,1178.33 483.989,1167.8 497.425,1157.28 510.861,1146.76 524.298,1136.24 537.734,1125.72 
  551.17,1115.19 564.607,1104.67 578.043,1094.15 591.479,1083.63 604.916,1073.1 618.352,1062.58 631.788,1052.06 645.225,1041.54 658.661,1031.02 672.097,1020.49 
  685.534,1009.97 698.97,999.45 712.406,988.928 725.843,978.406 739.279,967.884 752.715,957.362 766.152,946.84 779.588,936.318 793.024,925.796 806.461,915.274 
  819.897,904.752 833.333,894.229 846.77,883.707 860.206,873.185 873.642,862.663 887.079,852.141 900.515,841.619 913.951,831.097 927.388,820.575 940.824,810.053 
  954.26,799.531 967.697,789.009 981.133,778.487 994.569,767.965 1008.01,757.442 1021.44,746.92 1034.88,736.398 1048.31,725.876 1061.75,715.354 1075.19,704.832 
  1088.62,694.31 1102.06,683.788 1115.5,673.266 1128.93,662.744 1142.37,652.222 1155.81,641.7 1169.24,631.178 1182.68,620.655 1196.11,610.133 1209.55,599.611 
  1222.99,589.089 1236.42,578.567 1249.86,568.045 1263.3,557.523 1276.73,547.001 1290.17,536.479 1303.6,525.957 1317.04,515.435 1330.48,504.913 1343.91,494.391 
  1357.35,483.868 1370.79,473.346 1384.22,462.824 1397.66,452.302 1411.1,441.78 1424.53,431.258 1437.97,420.736 1451.4,410.214 1464.84,399.692 1478.28,389.17 
  1491.71,378.648 1505.15,368.126 1518.59,357.604 1532.02,347.081 1545.46,336.559 1558.9,326.037 1572.33,315.515 1585.77,304.993 1599.2,294.471 1612.64,283.949 
  
  "></polyline>
<polyline clip-path="url(#clip922)" style="stroke:#3da44d; stroke-linecap:butt; stroke-linejoin:round; stroke-width:4; stroke-opacity:1; fill:none" points="
  1626.08,86.1857 1262.98,215.822 1050.58,513.934 899.875,683.211 782.983,840.745 687.474,879.417 606.724,938.631 536.774,1039.85 475.074,1203.95 419.882,1332.07 
  369.954,1384.24 324.374,1351.83 282.444,1331.23 
  "></polyline>
<path clip-path="url(#clip920)" d="
M1736.74 300.469 L2352.76 300.469 L2352.76 93.1086 L1736.74 93.1086  Z
  " fill="#ffffff" fill-rule="evenodd" fill-opacity="1"></path>
<polyline clip-path="url(#clip920)" style="stroke:#000000; stroke-linecap:butt; stroke-linejoin:round; stroke-width:4; stroke-opacity:1; fill:none" points="
  1736.74,300.469 2352.76,300.469 2352.76,93.1086 1736.74,93.1086 1736.74,300.469 
  "></polyline>
<polyline clip-path="url(#clip920)" style="stroke:#009af9; stroke-linecap:butt; stroke-linejoin:round; stroke-width:4; stroke-opacity:1; fill:none" stroke-dasharray="16, 10" points="
  1760.19,144.949 1900.9,144.949 
  "></polyline>
<path clip-path="url(#clip920)" d="M1940.37 130.84 Q1935.28 130.84 1932.27 134.636 Q1929.28 138.432 1929.28 144.983 Q1929.28 151.511 1932.27 155.307 Q1935.28 159.104 1940.37 159.104 Q1945.46 159.104 1948.42 155.307 Q1951.41 151.511 1951.41 144.983 Q1951.41 138.432 1948.42 134.636 Q1945.46 130.84 1940.37 130.84 M1940.37 127.044 Q1947.64 127.044 1951.99 131.928 Q1956.34 136.789 1956.34 144.983 Q1956.34 153.155 1951.99 158.039 Q1947.64 162.9 1940.37 162.9 Q1933.08 162.9 1928.7 158.039 Q1924.35 153.178 1924.35 144.983 Q1924.35 136.789 1928.7 131.928 Q1933.08 127.044 1940.37 127.044 Z" fill="#000000" fill-rule="evenodd" fill-opacity="1"></path><path clip-path="url(#clip920)" d="M1978.49 140.284 Q1977.78 139.868 1976.92 139.682 Q1976.09 139.474 1975.07 139.474 Q1971.46 139.474 1969.51 141.835 Q1967.59 144.173 1967.59 148.571 L1967.59 162.229 L1963.31 162.229 L1963.31 136.303 L1967.59 136.303 L1967.59 140.331 Q1968.93 137.969 1971.09 136.835 Q1973.24 135.678 1976.32 135.678 Q1976.76 135.678 1977.29 135.747 Q1977.82 135.794 1978.47 135.909 L1978.49 140.284 Z" fill="#000000" fill-rule="evenodd" fill-opacity="1"></path><path clip-path="url(#clip920)" d="M1999.19 140.238 L1999.19 126.21 L2003.45 126.21 L2003.45 162.229 L1999.19 162.229 L1999.19 158.34 Q1997.85 160.655 1995.79 161.789 Q1993.75 162.9 1990.88 162.9 Q1986.18 162.9 1983.22 159.15 Q1980.28 155.4 1980.28 149.289 Q1980.28 143.178 1983.22 139.428 Q1986.18 135.678 1990.88 135.678 Q1993.75 135.678 1995.79 136.812 Q1997.85 137.923 1999.19 140.238 M1984.67 149.289 Q1984.67 153.988 1986.6 156.673 Q1988.54 159.335 1991.92 159.335 Q1995.3 159.335 1997.24 156.673 Q1999.19 153.988 1999.19 149.289 Q1999.19 144.59 1997.24 141.928 Q1995.3 139.243 1991.92 139.243 Q1988.54 139.243 1986.6 141.928 Q1984.67 144.59 1984.67 149.289 Z" fill="#000000" fill-rule="evenodd" fill-opacity="1"></path><path clip-path="url(#clip920)" d="M2034.4 148.201 L2034.4 150.284 L2014.81 150.284 Q2015.09 154.682 2017.45 156.997 Q2019.84 159.289 2024.07 159.289 Q2026.53 159.289 2028.82 158.687 Q2031.13 158.085 2033.4 156.881 L2033.4 160.909 Q2031.11 161.881 2028.7 162.391 Q2026.29 162.9 2023.82 162.9 Q2017.61 162.9 2013.98 159.289 Q2010.37 155.678 2010.37 149.52 Q2010.37 143.155 2013.79 139.428 Q2017.24 135.678 2023.08 135.678 Q2028.31 135.678 2031.34 139.057 Q2034.4 142.414 2034.4 148.201 M2030.14 146.951 Q2030.09 143.456 2028.17 141.372 Q2026.27 139.289 2023.12 139.289 Q2019.56 139.289 2017.41 141.303 Q2015.28 143.317 2014.95 146.974 L2030.14 146.951 Z" fill="#000000" fill-rule="evenodd" fill-opacity="1"></path><path clip-path="url(#clip920)" d="M2056.41 140.284 Q2055.69 139.868 2054.84 139.682 Q2054 139.474 2052.98 139.474 Q2049.37 139.474 2047.43 141.835 Q2045.51 144.173 2045.51 148.571 L2045.51 162.229 L2041.22 162.229 L2041.22 136.303 L2045.51 136.303 L2045.51 140.331 Q2046.85 137.969 2049 136.835 Q2051.16 135.678 2054.23 135.678 Q2054.67 135.678 2055.21 135.747 Q2055.74 135.794 2056.39 135.909 L2056.41 140.284 Z" fill="#000000" fill-rule="evenodd" fill-opacity="1"></path><path clip-path="url(#clip920)" d="M2077.36 158.293 L2085 158.293 L2085 131.928 L2076.69 133.595 L2076.69 129.335 L2084.95 127.669 L2089.63 127.669 L2089.63 158.293 L2097.27 158.293 L2097.27 162.229 L2077.36 162.229 L2077.36 158.293 Z" fill="#000000" fill-rule="evenodd" fill-opacity="1"></path><path clip-path="url(#clip920)" d="M2125.39 128.942 L2125.39 136.303 L2134.16 136.303 L2134.16 139.613 L2125.39 139.613 L2125.39 153.687 Q2125.39 156.858 2126.25 157.761 Q2127.13 158.664 2129.79 158.664 L2134.16 158.664 L2134.16 162.229 L2129.79 162.229 Q2124.86 162.229 2122.98 160.4 Q2121.11 158.548 2121.11 153.687 L2121.11 139.613 L2117.98 139.613 L2117.98 136.303 L2121.11 136.303 L2121.11 128.942 L2125.39 128.942 Z" fill="#000000" fill-rule="evenodd" fill-opacity="1"></path><path clip-path="url(#clip920)" d="M2161.94 148.201 L2161.94 150.284 L2142.36 150.284 Q2142.64 154.682 2145 156.997 Q2147.38 159.289 2151.62 159.289 Q2154.07 159.289 2156.36 158.687 Q2158.68 158.085 2160.95 156.881 L2160.95 160.909 Q2158.65 161.881 2156.25 162.391 Q2153.84 162.9 2151.36 162.9 Q2145.16 162.9 2141.53 159.289 Q2137.91 155.678 2137.91 149.52 Q2137.91 143.155 2141.34 139.428 Q2144.79 135.678 2150.62 135.678 Q2155.85 135.678 2158.89 139.057 Q2161.94 142.414 2161.94 148.201 M2157.68 146.951 Q2157.64 143.456 2155.72 141.372 Q2153.82 139.289 2150.67 139.289 Q2147.1 139.289 2144.95 141.303 Q2142.82 143.317 2142.5 146.974 L2157.68 146.951 Z" fill="#000000" fill-rule="evenodd" fill-opacity="1"></path><path clip-path="url(#clip920)" d="M2185.46 137.067 L2185.46 141.094 Q2183.65 140.169 2181.71 139.706 Q2179.77 139.243 2177.68 139.243 Q2174.51 139.243 2172.91 140.215 Q2171.34 141.187 2171.34 143.131 Q2171.34 144.613 2172.47 145.469 Q2173.61 146.303 2177.03 147.067 L2178.49 147.391 Q2183.03 148.363 2184.93 150.145 Q2186.85 151.905 2186.85 155.076 Q2186.85 158.687 2183.98 160.793 Q2181.13 162.9 2176.13 162.9 Q2174.05 162.9 2171.78 162.483 Q2169.53 162.09 2167.03 161.28 L2167.03 156.881 Q2169.4 158.108 2171.69 158.733 Q2173.98 159.335 2176.22 159.335 Q2179.23 159.335 2180.85 158.317 Q2182.47 157.275 2182.47 155.4 Q2182.47 153.664 2181.29 152.738 Q2180.14 151.812 2176.18 150.956 L2174.7 150.608 Q2170.74 149.775 2168.98 148.062 Q2167.22 146.326 2167.22 143.317 Q2167.22 139.659 2169.81 137.669 Q2172.4 135.678 2177.17 135.678 Q2179.53 135.678 2181.62 136.025 Q2183.7 136.372 2185.46 137.067 Z" fill="#000000" fill-rule="evenodd" fill-opacity="1"></path><path clip-path="url(#clip920)" d="M2197.84 128.942 L2197.84 136.303 L2206.62 136.303 L2206.62 139.613 L2197.84 139.613 L2197.84 153.687 Q2197.84 156.858 2198.7 157.761 Q2199.58 158.664 2202.24 158.664 L2206.62 158.664 L2206.62 162.229 L2202.24 162.229 Q2197.31 162.229 2195.44 160.4 Q2193.56 158.548 2193.56 153.687 L2193.56 139.613 L2190.44 139.613 L2190.44 136.303 L2193.56 136.303 L2193.56 128.942 L2197.84 128.942 Z" fill="#000000" fill-rule="evenodd" fill-opacity="1"></path><path clip-path="url(#clip920)" d="M2227.29 126.21 L2231.55 126.21 L2231.55 162.229 L2227.29 162.229 L2227.29 126.21 Z" fill="#000000" fill-rule="evenodd" fill-opacity="1"></path><path clip-path="url(#clip920)" d="M2240.46 136.303 L2244.72 136.303 L2244.72 162.229 L2240.46 162.229 L2240.46 136.303 M2240.46 126.21 L2244.72 126.21 L2244.72 131.604 L2240.46 131.604 L2240.46 126.21 Z" fill="#000000" fill-rule="evenodd" fill-opacity="1"></path><path clip-path="url(#clip920)" d="M2275.18 146.581 L2275.18 162.229 L2270.92 162.229 L2270.92 146.719 Q2270.92 143.039 2269.49 141.21 Q2268.05 139.382 2265.18 139.382 Q2261.73 139.382 2259.74 141.581 Q2257.75 143.78 2257.75 147.576 L2257.75 162.229 L2253.47 162.229 L2253.47 136.303 L2257.75 136.303 L2257.75 140.331 Q2259.28 137.993 2261.34 136.835 Q2263.42 135.678 2266.13 135.678 Q2270.6 135.678 2272.89 138.456 Q2275.18 141.21 2275.18 146.581 Z" fill="#000000" fill-rule="evenodd" fill-opacity="1"></path><path clip-path="url(#clip920)" d="M2305.85 148.201 L2305.85 150.284 L2286.27 150.284 Q2286.55 154.682 2288.91 156.997 Q2291.29 159.289 2295.53 159.289 Q2297.98 159.289 2300.27 158.687 Q2302.59 158.085 2304.86 156.881 L2304.86 160.909 Q2302.57 161.881 2300.16 162.391 Q2297.75 162.9 2295.27 162.9 Q2289.07 162.9 2285.44 159.289 Q2281.83 155.678 2281.83 149.52 Q2281.83 143.155 2285.25 139.428 Q2288.7 135.678 2294.53 135.678 Q2299.77 135.678 2302.8 139.057 Q2305.85 142.414 2305.85 148.201 M2301.59 146.951 Q2301.55 143.456 2299.63 141.372 Q2297.73 139.289 2294.58 139.289 Q2291.02 139.289 2288.86 141.303 Q2286.73 143.317 2286.41 146.974 L2301.59 146.951 Z" fill="#000000" fill-rule="evenodd" fill-opacity="1"></path><polyline clip-path="url(#clip920)" style="stroke:#e26f46; stroke-linecap:butt; stroke-linejoin:round; stroke-width:4; stroke-opacity:1; fill:none" stroke-dasharray="16, 10" points="
  1760.19,196.789 1900.9,196.789 
  "></polyline>
<path clip-path="url(#clip920)" d="M1940.37 182.68 Q1935.28 182.68 1932.27 186.476 Q1929.28 190.272 1929.28 196.823 Q1929.28 203.351 1932.27 207.147 Q1935.28 210.944 1940.37 210.944 Q1945.46 210.944 1948.42 207.147 Q1951.41 203.351 1951.41 196.823 Q1951.41 190.272 1948.42 186.476 Q1945.46 182.68 1940.37 182.68 M1940.37 178.884 Q1947.64 178.884 1951.99 183.768 Q1956.34 188.629 1956.34 196.823 Q1956.34 204.995 1951.99 209.879 Q1947.64 214.74 1940.37 214.74 Q1933.08 214.74 1928.7 209.879 Q1924.35 205.018 1924.35 196.823 Q1924.35 188.629 1928.7 183.768 Q1933.08 178.884 1940.37 178.884 Z" fill="#000000" fill-rule="evenodd" fill-opacity="1"></path><path clip-path="url(#clip920)" d="M1978.49 192.124 Q1977.78 191.708 1976.92 191.522 Q1976.09 191.314 1975.07 191.314 Q1971.46 191.314 1969.51 193.675 Q1967.59 196.013 1967.59 200.411 L1967.59 214.069 L1963.31 214.069 L1963.31 188.143 L1967.59 188.143 L1967.59 192.171 Q1968.93 189.809 1971.09 188.675 Q1973.24 187.518 1976.32 187.518 Q1976.76 187.518 1977.29 187.587 Q1977.82 187.634 1978.47 187.749 L1978.49 192.124 Z" fill="#000000" fill-rule="evenodd" fill-opacity="1"></path><path clip-path="url(#clip920)" d="M1999.19 192.078 L1999.19 178.05 L2003.45 178.05 L2003.45 214.069 L1999.19 214.069 L1999.19 210.18 Q1997.85 212.495 1995.79 213.629 Q1993.75 214.74 1990.88 214.74 Q1986.18 214.74 1983.22 210.99 Q1980.28 207.24 1980.28 201.129 Q1980.28 195.018 1983.22 191.268 Q1986.18 187.518 1990.88 187.518 Q1993.75 187.518 1995.79 188.652 Q1997.85 189.763 1999.19 192.078 M1984.67 201.129 Q1984.67 205.828 1986.6 208.513 Q1988.54 211.175 1991.92 211.175 Q1995.3 211.175 1997.24 208.513 Q1999.19 205.828 1999.19 201.129 Q1999.19 196.43 1997.24 193.768 Q1995.3 191.083 1991.92 191.083 Q1988.54 191.083 1986.6 193.768 Q1984.67 196.43 1984.67 201.129 Z" fill="#000000" fill-rule="evenodd" fill-opacity="1"></path><path clip-path="url(#clip920)" d="M2034.4 200.041 L2034.4 202.124 L2014.81 202.124 Q2015.09 206.522 2017.45 208.837 Q2019.84 211.129 2024.07 211.129 Q2026.53 211.129 2028.82 210.527 Q2031.13 209.925 2033.4 208.721 L2033.4 212.749 Q2031.11 213.721 2028.7 214.231 Q2026.29 214.74 2023.82 214.74 Q2017.61 214.74 2013.98 211.129 Q2010.37 207.518 2010.37 201.36 Q2010.37 194.995 2013.79 191.268 Q2017.24 187.518 2023.08 187.518 Q2028.31 187.518 2031.34 190.897 Q2034.4 194.254 2034.4 200.041 M2030.14 198.791 Q2030.09 195.296 2028.17 193.212 Q2026.27 191.129 2023.12 191.129 Q2019.56 191.129 2017.41 193.143 Q2015.28 195.157 2014.95 198.814 L2030.14 198.791 Z" fill="#000000" fill-rule="evenodd" fill-opacity="1"></path><path clip-path="url(#clip920)" d="M2056.41 192.124 Q2055.69 191.708 2054.84 191.522 Q2054 191.314 2052.98 191.314 Q2049.37 191.314 2047.43 193.675 Q2045.51 196.013 2045.51 200.411 L2045.51 214.069 L2041.22 214.069 L2041.22 188.143 L2045.51 188.143 L2045.51 192.171 Q2046.85 189.809 2049 188.675 Q2051.16 187.518 2054.23 187.518 Q2054.67 187.518 2055.21 187.587 Q2055.74 187.634 2056.39 187.749 L2056.41 192.124 Z" fill="#000000" fill-rule="evenodd" fill-opacity="1"></path><path clip-path="url(#clip920)" d="M2075.37 179.509 L2097.59 179.509 L2097.59 181.499 L2085.04 214.069 L2080.16 214.069 L2091.97 183.444 L2075.37 183.444 L2075.37 179.509 Z" fill="#000000" fill-rule="evenodd" fill-opacity="1"></path><path clip-path="url(#clip920)" d="M2125.39 180.782 L2125.39 188.143 L2134.16 188.143 L2134.16 191.453 L2125.39 191.453 L2125.39 205.527 Q2125.39 208.698 2126.25 209.601 Q2127.13 210.504 2129.79 210.504 L2134.16 210.504 L2134.16 214.069 L2129.79 214.069 Q2124.86 214.069 2122.98 212.24 Q2121.11 210.388 2121.11 205.527 L2121.11 191.453 L2117.98 191.453 L2117.98 188.143 L2121.11 188.143 L2121.11 180.782 L2125.39 180.782 Z" fill="#000000" fill-rule="evenodd" fill-opacity="1"></path><path clip-path="url(#clip920)" d="M2161.94 200.041 L2161.94 202.124 L2142.36 202.124 Q2142.64 206.522 2145 208.837 Q2147.38 211.129 2151.62 211.129 Q2154.07 211.129 2156.36 210.527 Q2158.68 209.925 2160.95 208.721 L2160.95 212.749 Q2158.65 213.721 2156.25 214.231 Q2153.84 214.74 2151.36 214.74 Q2145.16 214.74 2141.53 211.129 Q2137.91 207.518 2137.91 201.36 Q2137.91 194.995 2141.34 191.268 Q2144.79 187.518 2150.62 187.518 Q2155.85 187.518 2158.89 190.897 Q2161.94 194.254 2161.94 200.041 M2157.68 198.791 Q2157.64 195.296 2155.72 193.212 Q2153.82 191.129 2150.67 191.129 Q2147.1 191.129 2144.95 193.143 Q2142.82 195.157 2142.5 198.814 L2157.68 198.791 Z" fill="#000000" fill-rule="evenodd" fill-opacity="1"></path><path clip-path="url(#clip920)" d="M2185.46 188.907 L2185.46 192.934 Q2183.65 192.009 2181.71 191.546 Q2179.77 191.083 2177.68 191.083 Q2174.51 191.083 2172.91 192.055 Q2171.34 193.027 2171.34 194.971 Q2171.34 196.453 2172.47 197.309 Q2173.61 198.143 2177.03 198.907 L2178.49 199.231 Q2183.03 200.203 2184.93 201.985 Q2186.85 203.745 2186.85 206.916 Q2186.85 210.527 2183.98 212.633 Q2181.13 214.74 2176.13 214.74 Q2174.05 214.74 2171.78 214.323 Q2169.53 213.93 2167.03 213.12 L2167.03 208.721 Q2169.4 209.948 2171.69 210.573 Q2173.98 211.175 2176.22 211.175 Q2179.23 211.175 2180.85 210.157 Q2182.47 209.115 2182.47 207.24 Q2182.47 205.504 2181.29 204.578 Q2180.14 203.652 2176.18 202.796 L2174.7 202.448 Q2170.74 201.615 2168.98 199.902 Q2167.22 198.166 2167.22 195.157 Q2167.22 191.499 2169.81 189.509 Q2172.4 187.518 2177.17 187.518 Q2179.53 187.518 2181.62 187.865 Q2183.7 188.212 2185.46 188.907 Z" fill="#000000" fill-rule="evenodd" fill-opacity="1"></path><path clip-path="url(#clip920)" d="M2197.84 180.782 L2197.84 188.143 L2206.62 188.143 L2206.62 191.453 L2197.84 191.453 L2197.84 205.527 Q2197.84 208.698 2198.7 209.601 Q2199.58 210.504 2202.24 210.504 L2206.62 210.504 L2206.62 214.069 L2202.24 214.069 Q2197.31 214.069 2195.44 212.24 Q2193.56 210.388 2193.56 205.527 L2193.56 191.453 L2190.44 191.453 L2190.44 188.143 L2193.56 188.143 L2193.56 180.782 L2197.84 180.782 Z" fill="#000000" fill-rule="evenodd" fill-opacity="1"></path><path clip-path="url(#clip920)" d="M2227.29 178.05 L2231.55 178.05 L2231.55 214.069 L2227.29 214.069 L2227.29 178.05 Z" fill="#000000" fill-rule="evenodd" fill-opacity="1"></path><path clip-path="url(#clip920)" d="M2240.46 188.143 L2244.72 188.143 L2244.72 214.069 L2240.46 214.069 L2240.46 188.143 M2240.46 178.05 L2244.72 178.05 L2244.72 183.444 L2240.46 183.444 L2240.46 178.05 Z" fill="#000000" fill-rule="evenodd" fill-opacity="1"></path><path clip-path="url(#clip920)" d="M2275.18 198.421 L2275.18 214.069 L2270.92 214.069 L2270.92 198.559 Q2270.92 194.879 2269.49 193.05 Q2268.05 191.222 2265.18 191.222 Q2261.73 191.222 2259.74 193.421 Q2257.75 195.62 2257.75 199.416 L2257.75 214.069 L2253.47 214.069 L2253.47 188.143 L2257.75 188.143 L2257.75 192.171 Q2259.28 189.833 2261.34 188.675 Q2263.42 187.518 2266.13 187.518 Q2270.6 187.518 2272.89 190.296 Q2275.18 193.05 2275.18 198.421 Z" fill="#000000" fill-rule="evenodd" fill-opacity="1"></path><path clip-path="url(#clip920)" d="M2305.85 200.041 L2305.85 202.124 L2286.27 202.124 Q2286.55 206.522 2288.91 208.837 Q2291.29 211.129 2295.53 211.129 Q2297.98 211.129 2300.27 210.527 Q2302.59 209.925 2304.86 208.721 L2304.86 212.749 Q2302.57 213.721 2300.16 214.231 Q2297.75 214.74 2295.27 214.74 Q2289.07 214.74 2285.44 211.129 Q2281.83 207.518 2281.83 201.36 Q2281.83 194.995 2285.25 191.268 Q2288.7 187.518 2294.53 187.518 Q2299.77 187.518 2302.8 190.897 Q2305.85 194.254 2305.85 200.041 M2301.59 198.791 Q2301.55 195.296 2299.63 193.212 Q2297.73 191.129 2294.58 191.129 Q2291.02 191.129 2288.86 193.143 Q2286.73 195.157 2286.41 198.814 L2301.59 198.791 Z" fill="#000000" fill-rule="evenodd" fill-opacity="1"></path><polyline clip-path="url(#clip920)" style="stroke:#3da44d; stroke-linecap:butt; stroke-linejoin:round; stroke-width:4; stroke-opacity:1; fill:none" points="
  1760.19,248.629 1900.9,248.629 
  "></polyline>
<path clip-path="url(#clip920)" d="M1949.91 260.978 L1949.91 251.696 L1942.27 251.696 L1942.27 247.853 L1954.54 247.853 L1954.54 262.691 Q1951.83 264.612 1948.56 265.608 Q1945.3 266.58 1941.6 266.58 Q1933.49 266.58 1928.91 261.858 Q1924.35 257.112 1924.35 248.663 Q1924.35 240.191 1928.91 235.469 Q1933.49 230.724 1941.6 230.724 Q1944.98 230.724 1948.01 231.557 Q1951.06 232.39 1953.63 234.011 L1953.63 238.987 Q1951.04 236.788 1948.12 235.677 Q1945.21 234.566 1941.99 234.566 Q1935.65 234.566 1932.45 238.108 Q1929.28 241.649 1929.28 248.663 Q1929.28 255.654 1932.45 259.196 Q1935.65 262.737 1941.99 262.737 Q1944.47 262.737 1946.41 262.321 Q1948.36 261.881 1949.91 260.978 Z" fill="#000000" fill-rule="evenodd" fill-opacity="1"></path><path clip-path="url(#clip920)" d="M1962.89 229.89 L1967.15 229.89 L1967.15 265.909 L1962.89 265.909 L1962.89 229.89 Z" fill="#000000" fill-rule="evenodd" fill-opacity="1"></path><path clip-path="url(#clip920)" d="M1986.11 242.969 Q1982.68 242.969 1980.69 245.654 Q1978.7 248.316 1978.7 252.969 Q1978.7 257.622 1980.67 260.307 Q1982.66 262.969 1986.11 262.969 Q1989.51 262.969 1991.5 260.284 Q1993.49 257.598 1993.49 252.969 Q1993.49 248.362 1991.5 245.677 Q1989.51 242.969 1986.11 242.969 M1986.11 239.358 Q1991.67 239.358 1994.84 242.969 Q1998.01 246.58 1998.01 252.969 Q1998.01 259.335 1994.84 262.969 Q1991.67 266.58 1986.11 266.58 Q1980.53 266.58 1977.36 262.969 Q1974.21 259.335 1974.21 252.969 Q1974.21 246.58 1977.36 242.969 Q1980.53 239.358 1986.11 239.358 Z" fill="#000000" fill-rule="evenodd" fill-opacity="1"></path><path clip-path="url(#clip920)" d="M2023.68 252.969 Q2023.68 248.27 2021.73 245.608 Q2019.81 242.923 2016.43 242.923 Q2013.05 242.923 2011.11 245.608 Q2009.19 248.27 2009.19 252.969 Q2009.19 257.668 2011.11 260.353 Q2013.05 263.015 2016.43 263.015 Q2019.81 263.015 2021.73 260.353 Q2023.68 257.668 2023.68 252.969 M2009.19 243.918 Q2010.53 241.603 2012.57 240.492 Q2014.63 239.358 2017.48 239.358 Q2022.2 239.358 2025.14 243.108 Q2028.1 246.858 2028.1 252.969 Q2028.1 259.08 2025.14 262.83 Q2022.2 266.58 2017.48 266.58 Q2014.63 266.58 2012.57 265.469 Q2010.53 264.335 2009.19 262.02 L2009.19 265.909 L2004.91 265.909 L2004.91 229.89 L2009.19 229.89 L2009.19 243.918 Z" fill="#000000" fill-rule="evenodd" fill-opacity="1"></path><path clip-path="url(#clip920)" d="M2046.94 252.876 Q2041.78 252.876 2039.79 254.057 Q2037.8 255.237 2037.8 258.085 Q2037.8 260.353 2039.28 261.696 Q2040.79 263.015 2043.35 263.015 Q2046.9 263.015 2049.03 260.515 Q2051.18 257.992 2051.18 253.825 L2051.18 252.876 L2046.94 252.876 M2055.44 251.117 L2055.44 265.909 L2051.18 265.909 L2051.18 261.973 Q2049.72 264.335 2047.54 265.469 Q2045.37 266.58 2042.22 266.58 Q2038.24 266.58 2035.88 264.358 Q2033.54 262.112 2033.54 258.362 Q2033.54 253.987 2036.46 251.765 Q2039.4 249.543 2045.21 249.543 L2051.18 249.543 L2051.18 249.126 Q2051.18 246.187 2049.23 244.589 Q2047.31 242.969 2043.82 242.969 Q2041.6 242.969 2039.49 243.501 Q2037.38 244.034 2035.44 245.099 L2035.44 241.163 Q2037.78 240.261 2039.98 239.821 Q2042.17 239.358 2044.26 239.358 Q2049.88 239.358 2052.66 242.274 Q2055.44 245.191 2055.44 251.117 Z" fill="#000000" fill-rule="evenodd" fill-opacity="1"></path><path clip-path="url(#clip920)" d="M2064.21 229.89 L2068.47 229.89 L2068.47 265.909 L2064.21 265.909 L2064.21 229.89 Z" fill="#000000" fill-rule="evenodd" fill-opacity="1"></path><path clip-path="url(#clip920)" d="M2114.63 251.881 L2114.63 253.964 L2095.04 253.964 Q2095.32 258.362 2097.68 260.677 Q2100.07 262.969 2104.3 262.969 Q2106.76 262.969 2109.05 262.367 Q2111.36 261.765 2113.63 260.561 L2113.63 264.589 Q2111.34 265.561 2108.93 266.071 Q2106.53 266.58 2104.05 266.58 Q2097.85 266.58 2094.21 262.969 Q2090.6 259.358 2090.6 253.2 Q2090.6 246.835 2094.03 243.108 Q2097.47 239.358 2103.31 239.358 Q2108.54 239.358 2111.57 242.737 Q2114.63 246.094 2114.63 251.881 M2110.37 250.631 Q2110.32 247.136 2108.4 245.052 Q2106.5 242.969 2103.35 242.969 Q2099.79 242.969 2097.64 244.983 Q2095.51 246.997 2095.18 250.654 L2110.37 250.631 Z" fill="#000000" fill-rule="evenodd" fill-opacity="1"></path><path clip-path="url(#clip920)" d="M2136.64 243.964 Q2135.92 243.548 2135.07 243.362 Q2134.23 243.154 2133.22 243.154 Q2129.6 243.154 2127.66 245.515 Q2125.74 247.853 2125.74 252.251 L2125.74 265.909 L2121.46 265.909 L2121.46 239.983 L2125.74 239.983 L2125.74 244.011 Q2127.08 241.649 2129.23 240.515 Q2131.39 239.358 2134.47 239.358 Q2134.91 239.358 2135.44 239.427 Q2135.97 239.474 2136.62 239.589 L2136.64 243.964 Z" fill="#000000" fill-rule="evenodd" fill-opacity="1"></path><path clip-path="url(#clip920)" d="M2155.3 243.964 Q2154.58 243.548 2153.72 243.362 Q2152.89 243.154 2151.87 243.154 Q2148.26 243.154 2146.32 245.515 Q2144.4 247.853 2144.4 252.251 L2144.4 265.909 L2140.11 265.909 L2140.11 239.983 L2144.4 239.983 L2144.4 244.011 Q2145.74 241.649 2147.89 240.515 Q2150.04 239.358 2153.12 239.358 Q2153.56 239.358 2154.09 239.427 Q2154.63 239.474 2155.28 239.589 L2155.3 243.964 Z" fill="#000000" fill-rule="evenodd" fill-opacity="1"></path><path clip-path="url(#clip920)" d="M2168.77 242.969 Q2165.34 242.969 2163.35 245.654 Q2161.36 248.316 2161.36 252.969 Q2161.36 257.622 2163.33 260.307 Q2165.32 262.969 2168.77 262.969 Q2172.17 262.969 2174.16 260.284 Q2176.15 257.598 2176.15 252.969 Q2176.15 248.362 2174.16 245.677 Q2172.17 242.969 2168.77 242.969 M2168.77 239.358 Q2174.33 239.358 2177.5 242.969 Q2180.67 246.58 2180.67 252.969 Q2180.67 259.335 2177.5 262.969 Q2174.33 266.58 2168.77 266.58 Q2163.19 266.58 2160.02 262.969 Q2156.87 259.335 2156.87 252.969 Q2156.87 246.58 2160.02 242.969 Q2163.19 239.358 2168.77 239.358 Z" fill="#000000" fill-rule="evenodd" fill-opacity="1"></path><path clip-path="url(#clip920)" d="M2202.75 243.964 Q2202.03 243.548 2201.18 243.362 Q2200.34 243.154 2199.33 243.154 Q2195.71 243.154 2193.77 245.515 Q2191.85 247.853 2191.85 252.251 L2191.85 265.909 L2187.57 265.909 L2187.57 239.983 L2191.85 239.983 L2191.85 244.011 Q2193.19 241.649 2195.34 240.515 Q2197.5 239.358 2200.58 239.358 Q2201.02 239.358 2201.55 239.427 Q2202.08 239.474 2202.73 239.589 L2202.75 243.964 Z" fill="#000000" fill-rule="evenodd" fill-opacity="1"></path></svg>