<svg xmlns="http://www.w3.org/2000/svg" xmlns:xlink="http://www.w3.org/1999/xlink" width="600" height="400" viewBox="0 0 2400 1600">
<defs>
  <clipPath id="clip340">
    <rect x="0" y="0" width="2400" height="1600"></rect>
  </clipPath>
</defs>
<path clip-path="url(#clip340)" d="
M0 1600 L2400 1600 L2400 0 L0 0  Z
  " fill="#ffffff" fill-rule="evenodd" fill-opacity="1"></path>
<defs>
  <clipPath id="clip341">
    <rect x="480" y="0" width="1681" height="1600"></rect>
  </clipPath>
</defs>
<path clip-path="url(#clip340)" d="
M242.135 1423.18 L1511.5 1423.18 L1511.5 123.472 L242.135 123.472  Z
  " fill="#ffffff" fill-rule="evenodd" fill-opacity="1"></path>
<defs>
  <clipPath id="clip342">
    <rect x="242" y="123" width="1270" height="1301"></rect>
  </clipPath>
</defs>
<polyline clip-path="url(#clip342)" style="stroke:#000000; stroke-linecap:round; stroke-linejoin:round; stroke-width:2; stroke-opacity:0.1; fill:none" points="
  284.65,1423.18 284.65,123.472 
  "></polyline>
<polyline clip-path="url(#clip342)" style="stroke:#000000; stroke-linecap:round; stroke-linejoin:round; stroke-width:2; stroke-opacity:0.1; fill:none" points="
  505.753,1423.18 505.753,123.472 
  "></polyline>
<polyline clip-path="url(#clip342)" style="stroke:#000000; stroke-linecap:round; stroke-linejoin:round; stroke-width:2; stroke-opacity:0.1; fill:none" points="
  726.857,1423.18 726.857,123.472 
  "></polyline>
<polyline clip-path="url(#clip342)" style="stroke:#000000; stroke-linecap:round; stroke-linejoin:round; stroke-width:2; stroke-opacity:0.1; fill:none" points="
  947.96,1423.18 947.96,123.472 
  "></polyline>
<polyline clip-path="url(#clip342)" style="stroke:#000000; stroke-linecap:round; stroke-linejoin:round; stroke-width:2; stroke-opacity:0.1; fill:none" points="
  1169.06,1423.18 1169.06,123.472 
  "></polyline>
<polyline clip-path="url(#clip342)" style="stroke:#000000; stroke-linecap:round; stroke-linejoin:round; stroke-width:2; stroke-opacity:0.1; fill:none" points="
  1390.17,1423.18 1390.17,123.472 
  "></polyline>
<polyline clip-path="url(#clip340)" style="stroke:#000000; stroke-linecap:round; stroke-linejoin:round; stroke-width:4; stroke-opacity:1; fill:none" points="
  242.135,1423.18 1511.5,1423.18 
  "></polyline>
<polyline clip-path="url(#clip340)" style="stroke:#000000; stroke-linecap:round; stroke-linejoin:round; stroke-width:4; stroke-opacity:1; fill:none" points="
  284.65,1423.18 284.65,1404.28 
  "></polyline>
<polyline clip-path="url(#clip340)" style="stroke:#000000; stroke-linecap:round; stroke-linejoin:round; stroke-width:4; stroke-opacity:1; fill:none" points="
  505.753,1423.18 505.753,1404.28 
  "></polyline>
<polyline clip-path="url(#clip340)" style="stroke:#000000; stroke-linecap:round; stroke-linejoin:round; stroke-width:4; stroke-opacity:1; fill:none" points="
  726.857,1423.18 726.857,1404.28 
  "></polyline>
<polyline clip-path="url(#clip340)" style="stroke:#000000; stroke-linecap:round; stroke-linejoin:round; stroke-width:4; stroke-opacity:1; fill:none" points="
  947.96,1423.18 947.96,1404.28 
  "></polyline>
<polyline clip-path="url(#clip340)" style="stroke:#000000; stroke-linecap:round; stroke-linejoin:round; stroke-width:4; stroke-opacity:1; fill:none" points="
  1169.06,1423.18 1169.06,1404.28 
  "></polyline>
<polyline clip-path="url(#clip340)" style="stroke:#000000; stroke-linecap:round; stroke-linejoin:round; stroke-width:4; stroke-opacity:1; fill:none" points="
  1390.17,1423.18 1390.17,1404.28 
  "></polyline>
<path clip-path="url(#clip340)" d="M231.178 1468.75 L260.854 1468.75 L260.854 1472.69 L231.178 1472.69 L231.178 1468.75 Z" fill="#000000" fill-rule="evenodd" fill-opacity="1"></path><path clip-path="url(#clip340)" d="M274.975 1481.64 L291.294 1481.64 L291.294 1485.58 L269.35 1485.58 L269.35 1481.64 Q272.012 1478.89 276.595 1474.26 Q281.201 1469.61 282.382 1468.27 Q284.627 1465.74 285.507 1464.01 Q286.41 1462.25 286.41 1460.56 Q286.41 1457.8 284.465 1456.07 Q282.544 1454.33 279.442 1454.33 Q277.243 1454.33 274.789 1455.09 Q272.359 1455.86 269.581 1457.41 L269.581 1452.69 Q272.405 1451.55 274.859 1450.97 Q277.312 1450.39 279.349 1450.39 Q284.72 1450.39 287.914 1453.08 Q291.109 1455.77 291.109 1460.26 Q291.109 1462.39 290.298 1464.31 Q289.511 1466.2 287.405 1468.8 Q286.826 1469.47 283.724 1472.69 Q280.623 1475.88 274.975 1481.64 Z" fill="#000000" fill-rule="evenodd" fill-opacity="1"></path><path clip-path="url(#clip340)" d="M301.109 1479.7 L305.993 1479.7 L305.993 1485.58 L301.109 1485.58 L301.109 1479.7 Z" fill="#000000" fill-rule="evenodd" fill-opacity="1"></path><path clip-path="url(#clip340)" d="M326.178 1454.1 Q322.567 1454.1 320.738 1457.66 Q318.933 1461.2 318.933 1468.33 Q318.933 1475.44 320.738 1479.01 Q322.567 1482.55 326.178 1482.55 Q329.812 1482.55 331.618 1479.01 Q333.446 1475.44 333.446 1468.33 Q333.446 1461.2 331.618 1457.66 Q329.812 1454.1 326.178 1454.1 M326.178 1450.39 Q331.988 1450.39 335.044 1455 Q338.122 1459.58 338.122 1468.33 Q338.122 1477.06 335.044 1481.67 Q331.988 1486.25 326.178 1486.25 Q320.368 1486.25 317.289 1481.67 Q314.234 1477.06 314.234 1468.33 Q314.234 1459.58 317.289 1455 Q320.368 1450.39 326.178 1450.39 Z" fill="#000000" fill-rule="evenodd" fill-opacity="1"></path><path clip-path="url(#clip340)" d="M452.779 1468.75 L482.455 1468.75 L482.455 1472.69 L452.779 1472.69 L452.779 1468.75 Z" fill="#000000" fill-rule="evenodd" fill-opacity="1"></path><path clip-path="url(#clip340)" d="M493.358 1481.64 L500.997 1481.64 L500.997 1455.28 L492.686 1456.95 L492.686 1452.69 L500.95 1451.02 L505.626 1451.02 L505.626 1481.64 L513.265 1481.64 L513.265 1485.58 L493.358 1485.58 L493.358 1481.64 Z" fill="#000000" fill-rule="evenodd" fill-opacity="1"></path><path clip-path="url(#clip340)" d="M522.709 1479.7 L527.594 1479.7 L527.594 1485.58 L522.709 1485.58 L522.709 1479.7 Z" fill="#000000" fill-rule="evenodd" fill-opacity="1"></path><path clip-path="url(#clip340)" d="M537.825 1451.02 L556.181 1451.02 L556.181 1454.96 L542.107 1454.96 L542.107 1463.43 Q543.126 1463.08 544.144 1462.92 Q545.163 1462.73 546.182 1462.73 Q551.969 1462.73 555.348 1465.9 Q558.728 1469.08 558.728 1474.49 Q558.728 1480.07 555.256 1483.17 Q551.783 1486.25 545.464 1486.25 Q543.288 1486.25 541.02 1485.88 Q538.774 1485.51 536.367 1484.77 L536.367 1480.07 Q538.45 1481.2 540.672 1481.76 Q542.895 1482.32 545.371 1482.32 Q549.376 1482.32 551.714 1480.21 Q554.052 1478.1 554.052 1474.49 Q554.052 1470.88 551.714 1468.77 Q549.376 1466.67 545.371 1466.67 Q543.496 1466.67 541.621 1467.08 Q539.77 1467.5 537.825 1468.38 L537.825 1451.02 Z" fill="#000000" fill-rule="evenodd" fill-opacity="1"></path><path clip-path="url(#clip340)" d="M673.385 1468.75 L703.06 1468.75 L703.06 1472.69 L673.385 1472.69 L673.385 1468.75 Z" fill="#000000" fill-rule="evenodd" fill-opacity="1"></path><path clip-path="url(#clip340)" d="M713.963 1481.64 L721.602 1481.64 L721.602 1455.28 L713.292 1456.95 L713.292 1452.69 L721.556 1451.02 L726.232 1451.02 L726.232 1481.64 L733.87 1481.64 L733.87 1485.58 L713.963 1485.58 L713.963 1481.64 Z" fill="#000000" fill-rule="evenodd" fill-opacity="1"></path><path clip-path="url(#clip340)" d="M743.315 1479.7 L748.199 1479.7 L748.199 1485.58 L743.315 1485.58 L743.315 1479.7 Z" fill="#000000" fill-rule="evenodd" fill-opacity="1"></path><path clip-path="url(#clip340)" d="M768.384 1454.1 Q764.773 1454.1 762.944 1457.66 Q761.139 1461.2 761.139 1468.33 Q761.139 1475.44 762.944 1479.01 Q764.773 1482.55 768.384 1482.55 Q772.018 1482.55 773.824 1479.01 Q775.653 1475.44 775.653 1468.33 Q775.653 1461.2 773.824 1457.66 Q772.018 1454.1 768.384 1454.1 M768.384 1450.39 Q774.194 1450.39 777.25 1455 Q780.329 1459.58 780.329 1468.33 Q780.329 1477.06 777.25 1481.67 Q774.194 1486.25 768.384 1486.25 Q762.574 1486.25 759.495 1481.67 Q756.44 1477.06 756.44 1468.33 Q756.44 1459.58 759.495 1455 Q762.574 1450.39 768.384 1450.39 Z" fill="#000000" fill-rule="evenodd" fill-opacity="1"></path><path clip-path="url(#clip340)" d="M894.985 1468.75 L924.661 1468.75 L924.661 1472.69 L894.985 1472.69 L894.985 1468.75 Z" fill="#000000" fill-rule="evenodd" fill-opacity="1"></path><path clip-path="url(#clip340)" d="M944.754 1454.1 Q941.143 1454.1 939.314 1457.66 Q937.508 1461.2 937.508 1468.33 Q937.508 1475.44 939.314 1479.01 Q941.143 1482.55 944.754 1482.55 Q948.388 1482.55 950.194 1479.01 Q952.022 1475.44 952.022 1468.33 Q952.022 1461.2 950.194 1457.66 Q948.388 1454.1 944.754 1454.1 M944.754 1450.39 Q950.564 1450.39 953.619 1455 Q956.698 1459.58 956.698 1468.33 Q956.698 1477.06 953.619 1481.67 Q950.564 1486.25 944.754 1486.25 Q938.944 1486.25 935.865 1481.67 Q932.809 1477.06 932.809 1468.33 Q932.809 1459.58 935.865 1455 Q938.944 1450.39 944.754 1450.39 Z" fill="#000000" fill-rule="evenodd" fill-opacity="1"></path><path clip-path="url(#clip340)" d="M964.916 1479.7 L969.8 1479.7 L969.8 1485.58 L964.916 1485.58 L964.916 1479.7 Z" fill="#000000" fill-rule="evenodd" fill-opacity="1"></path><path clip-path="url(#clip340)" d="M980.031 1451.02 L998.388 1451.02 L998.388 1454.96 L984.314 1454.96 L984.314 1463.43 Q985.332 1463.08 986.351 1462.92 Q987.369 1462.73 988.388 1462.73 Q994.175 1462.73 997.554 1465.9 Q1000.93 1469.08 1000.93 1474.49 Q1000.93 1480.07 997.462 1483.17 Q993.99 1486.25 987.67 1486.25 Q985.494 1486.25 983.226 1485.88 Q980.98 1485.51 978.573 1484.77 L978.573 1480.07 Q980.656 1481.2 982.879 1481.76 Q985.101 1482.32 987.578 1482.32 Q991.582 1482.32 993.92 1480.21 Q996.258 1478.1 996.258 1474.49 Q996.258 1470.88 993.92 1468.77 Q991.582 1466.67 987.578 1466.67 Q985.703 1466.67 983.828 1467.08 Q981.976 1467.5 980.031 1468.38 L980.031 1451.02 Z" fill="#000000" fill-rule="evenodd" fill-opacity="1"></path><path clip-path="url(#clip340)" d="M1146.45 1454.1 Q1142.84 1454.1 1141.01 1457.66 Q1139.2 1461.2 1139.2 1468.33 Q1139.2 1475.44 1141.01 1479.01 Q1142.84 1482.55 1146.45 1482.55 Q1150.08 1482.55 1151.89 1479.01 Q1153.72 1475.44 1153.72 1468.33 Q1153.72 1461.2 1151.89 1457.66 Q1150.08 1454.1 1146.45 1454.1 M1146.45 1450.39 Q1152.26 1450.39 1155.31 1455 Q1158.39 1459.58 1158.39 1468.33 Q1158.39 1477.06 1155.31 1481.67 Q1152.26 1486.25 1146.45 1486.25 Q1140.64 1486.25 1137.56 1481.67 Q1134.5 1477.06 1134.5 1468.33 Q1134.5 1459.58 1137.56 1455 Q1140.64 1450.39 1146.45 1450.39 Z" fill="#000000" fill-rule="evenodd" fill-opacity="1"></path><path clip-path="url(#clip340)" d="M1166.61 1479.7 L1171.49 1479.7 L1171.49 1485.58 L1166.61 1485.58 L1166.61 1479.7 Z" fill="#000000" fill-rule="evenodd" fill-opacity="1"></path><path clip-path="url(#clip340)" d="M1191.68 1454.1 Q1188.07 1454.1 1186.24 1457.66 Q1184.43 1461.2 1184.43 1468.33 Q1184.43 1475.44 1186.24 1479.01 Q1188.07 1482.55 1191.68 1482.55 Q1195.31 1482.55 1197.12 1479.01 Q1198.95 1475.44 1198.95 1468.33 Q1198.95 1461.2 1197.12 1457.66 Q1195.31 1454.1 1191.68 1454.1 M1191.68 1450.39 Q1197.49 1450.39 1200.54 1455 Q1203.62 1459.58 1203.62 1468.33 Q1203.62 1477.06 1200.54 1481.67 Q1197.49 1486.25 1191.68 1486.25 Q1185.87 1486.25 1182.79 1481.67 Q1179.73 1477.06 1179.73 1468.33 Q1179.73 1459.58 1182.79 1455 Q1185.87 1450.39 1191.68 1450.39 Z" fill="#000000" fill-rule="evenodd" fill-opacity="1"></path><path clip-path="url(#clip340)" d="M1368.05 1454.1 Q1364.44 1454.1 1362.61 1457.66 Q1360.8 1461.2 1360.8 1468.33 Q1360.8 1475.44 1362.61 1479.01 Q1364.44 1482.55 1368.05 1482.55 Q1371.68 1482.55 1373.49 1479.01 Q1375.32 1475.44 1375.32 1468.33 Q1375.32 1461.2 1373.49 1457.66 Q1371.68 1454.1 1368.05 1454.1 M1368.05 1450.39 Q1373.86 1450.39 1376.91 1455 Q1379.99 1459.58 1379.99 1468.33 Q1379.99 1477.06 1376.91 1481.67 Q1373.86 1486.25 1368.05 1486.25 Q1362.24 1486.25 1359.16 1481.67 Q1356.1 1477.06 1356.1 1468.33 Q1356.1 1459.58 1359.16 1455 Q1362.24 1450.39 1368.05 1450.39 Z" fill="#000000" fill-rule="evenodd" fill-opacity="1"></path><path clip-path="url(#clip340)" d="M1388.21 1479.7 L1393.09 1479.7 L1393.09 1485.58 L1388.21 1485.58 L1388.21 1479.7 Z" fill="#000000" fill-rule="evenodd" fill-opacity="1"></path><path clip-path="url(#clip340)" d="M1403.33 1451.02 L1421.68 1451.02 L1421.68 1454.96 L1407.61 1454.96 L1407.61 1463.43 Q1408.63 1463.08 1409.65 1462.92 Q1410.66 1462.73 1411.68 1462.73 Q1417.47 1462.73 1420.85 1465.9 Q1424.23 1469.08 1424.23 1474.49 Q1424.23 1480.07 1420.76 1483.17 Q1417.28 1486.25 1410.96 1486.25 Q1408.79 1486.25 1406.52 1485.88 Q1404.27 1485.51 1401.87 1484.77 L1401.87 1480.07 Q1403.95 1481.2 1406.17 1481.76 Q1408.4 1482.32 1410.87 1482.32 Q1414.88 1482.32 1417.21 1480.21 Q1419.55 1478.1 1419.55 1474.49 Q1419.55 1470.88 1417.21 1468.77 Q1414.88 1466.67 1410.87 1466.67 Q1409 1466.67 1407.12 1467.08 Q1405.27 1467.5 1403.33 1468.38 L1403.33 1451.02 Z" fill="#000000" fill-rule="evenodd" fill-opacity="1"></path><path clip-path="url(#clip340)" d="M669.121 1520.52 L675.551 1520.52 L675.551 1562.63 L698.69 1562.63 L698.69 1568.04 L669.121 1568.04 L669.121 1520.52 Z" fill="#000000" fill-rule="evenodd" fill-opacity="1"></path><path clip-path="url(#clip340)" d="M717.851 1536.5 Q713.14 1536.5 710.403 1540.19 Q707.666 1543.85 707.666 1550.25 Q707.666 1556.65 710.371 1560.34 Q713.108 1564 717.851 1564 Q722.53 1564 725.267 1560.31 Q728.004 1556.62 728.004 1550.25 Q728.004 1543.92 725.267 1540.23 Q722.53 1536.5 717.851 1536.5 M717.851 1531.54 Q725.49 1531.54 729.85 1536.5 Q734.211 1541.47 734.211 1550.25 Q734.211 1559 729.85 1564 Q725.49 1568.97 717.851 1568.97 Q710.18 1568.97 705.82 1564 Q701.491 1559 701.491 1550.25 Q701.491 1541.47 705.82 1536.5 Q710.18 1531.54 717.851 1531.54 Z" fill="#000000" fill-rule="evenodd" fill-opacity="1"></path><path clip-path="url(#clip340)" d="M767.376 1549.81 Q767.376 1543.44 764.734 1539.94 Q762.124 1536.44 757.382 1536.44 Q752.671 1536.44 750.03 1539.94 Q747.42 1543.44 747.42 1549.81 Q747.42 1556.14 750.03 1559.64 Q752.671 1563.14 757.382 1563.14 Q762.124 1563.14 764.734 1559.64 Q767.376 1556.14 767.376 1549.81 M773.233 1563.62 Q773.233 1572.72 769.19 1577.15 Q765.148 1581.6 756.809 1581.6 Q753.722 1581.6 750.984 1581.13 Q748.247 1580.68 745.669 1579.72 L745.669 1574.03 Q748.247 1575.43 750.762 1576.1 Q753.276 1576.76 755.886 1576.76 Q761.647 1576.76 764.512 1573.74 Q767.376 1570.75 767.376 1564.67 L767.376 1561.77 Q765.562 1564.92 762.729 1566.48 Q759.896 1568.04 755.95 1568.04 Q749.393 1568.04 745.383 1563.05 Q741.372 1558.05 741.372 1549.81 Q741.372 1541.53 745.383 1536.53 Q749.393 1531.54 755.95 1531.54 Q759.896 1531.54 762.729 1533.1 Q765.562 1534.66 767.376 1537.81 L767.376 1532.4 L773.233 1532.4 L773.233 1563.62 Z" fill="#000000" fill-rule="evenodd" fill-opacity="1"></path><path clip-path="url(#clip340)" d="M828.742 1533.45 L828.742 1538.98 Q826.259 1537.71 823.585 1537.07 Q820.912 1536.44 818.047 1536.44 Q813.687 1536.44 811.49 1537.77 Q809.326 1539.11 809.326 1541.79 Q809.326 1543.82 810.886 1545 Q812.445 1546.15 817.156 1547.2 L819.161 1547.64 Q825.4 1548.98 828.009 1551.43 Q830.651 1553.85 830.651 1558.21 Q830.651 1563.17 826.704 1566.07 Q822.79 1568.97 815.915 1568.97 Q813.05 1568.97 809.931 1568.39 Q806.843 1567.85 803.406 1566.74 L803.406 1560.69 Q806.653 1562.38 809.804 1563.24 Q812.955 1564.07 816.042 1564.07 Q820.18 1564.07 822.408 1562.66 Q824.636 1561.23 824.636 1558.65 Q824.636 1556.27 823.012 1554.99 Q821.421 1553.72 815.978 1552.54 L813.941 1552.07 Q808.499 1550.92 806.08 1548.56 Q803.661 1546.18 803.661 1542.04 Q803.661 1537.01 807.225 1534.27 Q810.79 1531.54 817.347 1531.54 Q820.593 1531.54 823.458 1532.01 Q826.323 1532.49 828.742 1533.45 Z" fill="#000000" fill-rule="evenodd" fill-opacity="1"></path><path clip-path="url(#clip340)" d="M845.77 1522.27 L845.77 1532.4 L857.833 1532.4 L857.833 1536.95 L845.77 1536.95 L845.77 1556.3 Q845.77 1560.66 846.947 1561.9 Q848.157 1563.14 851.817 1563.14 L857.833 1563.14 L857.833 1568.04 L851.817 1568.04 Q845.038 1568.04 842.46 1565.53 Q839.882 1562.98 839.882 1556.3 L839.882 1536.95 L835.585 1536.95 L835.585 1532.4 L839.882 1532.4 L839.882 1522.27 L845.77 1522.27 Z" fill="#000000" fill-rule="evenodd" fill-opacity="1"></path><path clip-path="url(#clip340)" d="M896.027 1548.76 L896.027 1551.62 L869.1 1551.62 Q869.482 1557.67 872.729 1560.85 Q876.007 1564 881.832 1564 Q885.205 1564 888.356 1563.17 Q891.539 1562.35 894.658 1560.69 L894.658 1566.23 Q891.507 1567.57 888.197 1568.27 Q884.887 1568.97 881.481 1568.97 Q872.951 1568.97 867.954 1564 Q862.989 1559.04 862.989 1550.57 Q862.989 1541.82 867.7 1536.69 Q872.442 1531.54 880.463 1531.54 Q887.656 1531.54 891.826 1536.18 Q896.027 1540.8 896.027 1548.76 M890.171 1547.04 Q890.107 1542.23 887.465 1539.37 Q884.855 1536.5 880.527 1536.5 Q875.625 1536.5 872.665 1539.27 Q869.737 1542.04 869.291 1547.07 L890.171 1547.04 Z" fill="#000000" fill-rule="evenodd" fill-opacity="1"></path><path clip-path="url(#clip340)" d="M911.305 1562.7 L911.305 1581.6 L905.416 1581.6 L905.416 1532.4 L911.305 1532.4 L911.305 1537.81 Q913.151 1534.62 915.952 1533.1 Q918.784 1531.54 922.699 1531.54 Q929.192 1531.54 933.235 1536.69 Q937.309 1541.85 937.309 1550.25 Q937.309 1558.65 933.235 1563.81 Q929.192 1568.97 922.699 1568.97 Q918.784 1568.97 915.952 1567.44 Q913.151 1565.88 911.305 1562.7 M931.229 1550.25 Q931.229 1543.79 928.556 1540.13 Q925.914 1536.44 921.267 1536.44 Q916.62 1536.44 913.947 1540.13 Q911.305 1543.79 911.305 1550.25 Q911.305 1556.71 913.947 1560.4 Q916.62 1564.07 921.267 1564.07 Q925.914 1564.07 928.556 1560.4 Q931.229 1556.71 931.229 1550.25 Z" fill="#000000" fill-rule="evenodd" fill-opacity="1"></path><path clip-path="url(#clip340)" d="M990.462 1533.45 L990.462 1538.98 Q987.98 1537.71 985.306 1537.07 Q982.632 1536.44 979.768 1536.44 Q975.407 1536.44 973.211 1537.77 Q971.047 1539.11 971.047 1541.79 Q971.047 1543.82 972.606 1545 Q974.166 1546.15 978.877 1547.2 L980.882 1547.64 Q987.12 1548.98 989.73 1551.43 Q992.372 1553.85 992.372 1558.21 Q992.372 1563.17 988.425 1566.07 Q984.51 1568.97 977.635 1568.97 Q974.771 1568.97 971.652 1568.39 Q968.564 1567.85 965.127 1566.74 L965.127 1560.69 Q968.373 1562.38 971.524 1563.24 Q974.675 1564.07 977.763 1564.07 Q981.9 1564.07 984.128 1562.66 Q986.356 1561.23 986.356 1558.65 Q986.356 1556.27 984.733 1554.99 Q983.142 1553.72 977.699 1552.54 L975.662 1552.07 Q970.219 1550.92 967.8 1548.56 Q965.381 1546.18 965.381 1542.04 Q965.381 1537.01 968.946 1534.27 Q972.511 1531.54 979.068 1531.54 Q982.314 1531.54 985.179 1532.01 Q988.043 1532.49 990.462 1533.45 Z" fill="#000000" fill-rule="evenodd" fill-opacity="1"></path><path clip-path="url(#clip340)" d="M1001.7 1532.4 L1007.55 1532.4 L1007.55 1568.04 L1001.7 1568.04 L1001.7 1532.4 M1001.7 1518.52 L1007.55 1518.52 L1007.55 1525.93 L1001.7 1525.93 L1001.7 1518.52 Z" fill="#000000" fill-rule="evenodd" fill-opacity="1"></path><path clip-path="url(#clip340)" d="M1017.26 1532.4 L1045.08 1532.4 L1045.08 1537.74 L1023.05 1563.37 L1045.08 1563.37 L1045.08 1568.04 L1016.47 1568.04 L1016.47 1562.7 L1038.49 1537.07 L1017.26 1537.07 L1017.26 1532.4 Z" fill="#000000" fill-rule="evenodd" fill-opacity="1"></path><path clip-path="url(#clip340)" d="M1084.52 1548.76 L1084.52 1551.62 L1057.59 1551.62 Q1057.97 1557.67 1061.22 1560.85 Q1064.5 1564 1070.32 1564 Q1073.69 1564 1076.84 1563.17 Q1080.03 1562.35 1083.15 1560.69 L1083.15 1566.23 Q1080 1567.57 1076.69 1568.27 Q1073.38 1568.97 1069.97 1568.97 Q1061.44 1568.97 1056.44 1564 Q1051.48 1559.04 1051.48 1550.57 Q1051.48 1541.82 1056.19 1536.69 Q1060.93 1531.54 1068.95 1531.54 Q1076.14 1531.54 1080.31 1536.18 Q1084.52 1540.8 1084.52 1548.76 M1078.66 1547.04 Q1078.6 1542.23 1075.95 1539.37 Q1073.34 1536.5 1069.02 1536.5 Q1064.11 1536.5 1061.15 1539.27 Q1058.23 1542.04 1057.78 1547.07 L1078.66 1547.04 Z" fill="#000000" fill-rule="evenodd" fill-opacity="1"></path><polyline clip-path="url(#clip342)" style="stroke:#000000; stroke-linecap:round; stroke-linejoin:round; stroke-width:2; stroke-opacity:0.1; fill:none" points="
  242.135,1381.67 1511.5,1381.67 
  "></polyline>
<polyline clip-path="url(#clip342)" style="stroke:#000000; stroke-linecap:round; stroke-linejoin:round; stroke-width:2; stroke-opacity:0.1; fill:none" points="
  242.135,1168.43 1511.5,1168.43 
  "></polyline>
<polyline clip-path="url(#clip342)" style="stroke:#000000; stroke-linecap:round; stroke-linejoin:round; stroke-width:2; stroke-opacity:0.1; fill:none" points="
  242.135,955.195 1511.5,955.195 
  "></polyline>
<polyline clip-path="url(#clip342)" style="stroke:#000000; stroke-linecap:round; stroke-linejoin:round; stroke-width:2; stroke-opacity:0.1; fill:none" points="
  242.135,741.958 1511.5,741.958 
  "></polyline>
<polyline clip-path="url(#clip342)" style="stroke:#000000; stroke-linecap:round; stroke-linejoin:round; stroke-width:2; stroke-opacity:0.1; fill:none" points="
  242.135,528.721 1511.5,528.721 
  "></polyline>
<polyline clip-path="url(#clip342)" style="stroke:#000000; stroke-linecap:round; stroke-linejoin:round; stroke-width:2; stroke-opacity:0.1; fill:none" points="
  242.135,315.484 1511.5,315.484 
  "></polyline>
<polyline clip-path="url(#clip340)" style="stroke:#000000; stroke-linecap:round; stroke-linejoin:round; stroke-width:4; stroke-opacity:1; fill:none" points="
  242.135,1423.18 242.135,123.472 
  "></polyline>
<polyline clip-path="url(#clip340)" style="stroke:#000000; stroke-linecap:round; stroke-linejoin:round; stroke-width:4; stroke-opacity:1; fill:none" points="
  242.135,1381.67 253.5,1381.67 
  "></polyline>
<polyline clip-path="url(#clip340)" style="stroke:#000000; stroke-linecap:round; stroke-linejoin:round; stroke-width:4; stroke-opacity:1; fill:none" points="
  242.135,1168.43 253.5,1168.43 
  "></polyline>
<polyline clip-path="url(#clip340)" style="stroke:#000000; stroke-linecap:round; stroke-linejoin:round; stroke-width:4; stroke-opacity:1; fill:none" points="
  242.135,955.195 253.5,955.195 
  "></polyline>
<polyline clip-path="url(#clip340)" style="stroke:#000000; stroke-linecap:round; stroke-linejoin:round; stroke-width:4; stroke-opacity:1; fill:none" points="
  242.135,741.958 253.5,741.958 
  "></polyline>
<polyline clip-path="url(#clip340)" style="stroke:#000000; stroke-linecap:round; stroke-linejoin:round; stroke-width:4; stroke-opacity:1; fill:none" points="
  242.135,528.721 253.5,528.721 
  "></polyline>
<polyline clip-path="url(#clip340)" style="stroke:#000000; stroke-linecap:round; stroke-linejoin:round; stroke-width:4; stroke-opacity:1; fill:none" points="
  242.135,315.484 253.5,315.484 
  "></polyline>
<path clip-path="url(#clip340)" d="M115.256 1382.12 L144.931 1382.12 L144.931 1386.06 L115.256 1386.06 L115.256 1382.12 Z" fill="#000000" fill-rule="evenodd" fill-opacity="1"></path><path clip-path="url(#clip340)" d="M155.834 1395.01 L163.473 1395.01 L163.473 1368.65 L155.163 1370.32 L155.163 1366.06 L163.427 1364.39 L168.102 1364.39 L168.102 1395.01 L175.741 1395.01 L175.741 1398.95 L155.834 1398.95 L155.834 1395.01 Z" fill="#000000" fill-rule="evenodd" fill-opacity="1"></path><path clip-path="url(#clip340)" d="M185.232 1364.39 L203.588 1364.39 L203.588 1368.32 L189.514 1368.32 L189.514 1376.8 Q190.533 1376.45 191.551 1376.29 Q192.57 1376.1 193.588 1376.1 Q199.375 1376.1 202.755 1379.27 Q206.135 1382.44 206.135 1387.86 Q206.135 1393.44 202.662 1396.54 Q199.19 1399.62 192.871 1399.62 Q190.695 1399.62 188.426 1399.25 Q186.181 1398.88 183.774 1398.14 L183.774 1393.44 Q185.857 1394.57 188.079 1395.13 Q190.301 1395.69 192.778 1395.69 Q196.783 1395.69 199.121 1393.58 Q201.459 1391.47 201.459 1387.86 Q201.459 1384.25 199.121 1382.14 Q196.783 1380.04 192.778 1380.04 Q190.903 1380.04 189.028 1380.45 Q187.176 1380.87 185.232 1381.75 L185.232 1364.39 Z" fill="#000000" fill-rule="evenodd" fill-opacity="1"></path><path clip-path="url(#clip340)" d="M114.26 1168.88 L143.936 1168.88 L143.936 1172.82 L114.26 1172.82 L114.26 1168.88 Z" fill="#000000" fill-rule="evenodd" fill-opacity="1"></path><path clip-path="url(#clip340)" d="M154.839 1181.78 L162.477 1181.78 L162.477 1155.41 L154.167 1157.08 L154.167 1152.82 L162.431 1151.15 L167.107 1151.15 L167.107 1181.78 L174.746 1181.78 L174.746 1185.71 L154.839 1185.71 L154.839 1181.78 Z" fill="#000000" fill-rule="evenodd" fill-opacity="1"></path><path clip-path="url(#clip340)" d="M194.19 1154.23 Q190.579 1154.23 188.75 1157.8 Q186.945 1161.34 186.945 1168.47 Q186.945 1175.57 188.75 1179.14 Q190.579 1182.68 194.19 1182.68 Q197.825 1182.68 199.63 1179.14 Q201.459 1175.57 201.459 1168.47 Q201.459 1161.34 199.63 1157.8 Q197.825 1154.23 194.19 1154.23 M194.19 1150.53 Q200 1150.53 203.056 1155.13 Q206.135 1159.72 206.135 1168.47 Q206.135 1177.19 203.056 1181.8 Q200 1186.38 194.19 1186.38 Q188.38 1186.38 185.301 1181.8 Q182.246 1177.19 182.246 1168.47 Q182.246 1159.72 185.301 1155.13 Q188.38 1150.53 194.19 1150.53 Z" fill="#000000" fill-rule="evenodd" fill-opacity="1"></path><path clip-path="url(#clip340)" d="M145.417 955.647 L175.093 955.647 L175.093 959.582 L145.417 959.582 L145.417 955.647 Z" fill="#000000" fill-rule="evenodd" fill-opacity="1"></path><path clip-path="url(#clip340)" d="M185.232 937.915 L203.588 937.915 L203.588 941.851 L189.514 941.851 L189.514 950.323 Q190.533 949.976 191.551 949.814 Q192.57 949.628 193.588 949.628 Q199.375 949.628 202.755 952.8 Q206.135 955.971 206.135 961.388 Q206.135 966.966 202.662 970.068 Q199.19 973.147 192.871 973.147 Q190.695 973.147 188.426 972.776 Q186.181 972.406 183.774 971.665 L183.774 966.966 Q185.857 968.1 188.079 968.656 Q190.301 969.212 192.778 969.212 Q196.783 969.212 199.121 967.105 Q201.459 964.999 201.459 961.388 Q201.459 957.776 199.121 955.67 Q196.783 953.563 192.778 953.563 Q190.903 953.563 189.028 953.98 Q187.176 954.397 185.232 955.276 L185.232 937.915 Z" fill="#000000" fill-rule="evenodd" fill-opacity="1"></path><path clip-path="url(#clip340)" d="M194.19 727.757 Q190.579 727.757 188.75 731.322 Q186.945 734.864 186.945 741.993 Q186.945 749.1 188.75 752.664 Q190.579 756.206 194.19 756.206 Q197.825 756.206 199.63 752.664 Q201.459 749.1 201.459 741.993 Q201.459 734.864 199.63 731.322 Q197.825 727.757 194.19 727.757 M194.19 724.053 Q200 724.053 203.056 728.66 Q206.135 733.243 206.135 741.993 Q206.135 750.72 203.056 755.326 Q200 759.91 194.19 759.91 Q188.38 759.91 185.301 755.326 Q182.246 750.72 182.246 741.993 Q182.246 733.243 185.301 728.66 Q188.38 724.053 194.19 724.053 Z" fill="#000000" fill-rule="evenodd" fill-opacity="1"></path><path clip-path="url(#clip340)" d="M185.232 511.441 L203.588 511.441 L203.588 515.377 L189.514 515.377 L189.514 523.849 Q190.533 523.501 191.551 523.339 Q192.57 523.154 193.588 523.154 Q199.375 523.154 202.755 526.326 Q206.135 529.497 206.135 534.913 Q206.135 540.492 202.662 543.594 Q199.19 546.673 192.871 546.673 Q190.695 546.673 188.426 546.302 Q186.181 545.932 183.774 545.191 L183.774 540.492 Q185.857 541.626 188.079 542.182 Q190.301 542.737 192.778 542.737 Q196.783 542.737 199.121 540.631 Q201.459 538.525 201.459 534.913 Q201.459 531.302 199.121 529.196 Q196.783 527.089 192.778 527.089 Q190.903 527.089 189.028 527.506 Q187.176 527.923 185.232 528.802 L185.232 511.441 Z" fill="#000000" fill-rule="evenodd" fill-opacity="1"></path><path clip-path="url(#clip340)" d="M154.839 328.829 L162.477 328.829 L162.477 302.464 L154.167 304.13 L154.167 299.871 L162.431 298.204 L167.107 298.204 L167.107 328.829 L174.746 328.829 L174.746 332.764 L154.839 332.764 L154.839 328.829 Z" fill="#000000" fill-rule="evenodd" fill-opacity="1"></path><path clip-path="url(#clip340)" d="M194.19 301.283 Q190.579 301.283 188.75 304.848 Q186.945 308.389 186.945 315.519 Q186.945 322.626 188.75 326.19 Q190.579 329.732 194.19 329.732 Q197.825 329.732 199.63 326.19 Q201.459 322.626 201.459 315.519 Q201.459 308.389 199.63 304.848 Q197.825 301.283 194.19 301.283 M194.19 297.579 Q200 297.579 203.056 302.186 Q206.135 306.769 206.135 315.519 Q206.135 324.246 203.056 328.852 Q200 333.436 194.19 333.436 Q188.38 333.436 185.301 328.852 Q182.246 324.246 182.246 315.519 Q182.246 306.769 185.301 302.186 Q188.38 297.579 194.19 297.579 Z" fill="#000000" fill-rule="evenodd" fill-opacity="1"></path><path clip-path="url(#clip340)" d="M57.2247 989.633 L44.4614 989.633 L44.4614 1000.14 L39.1779 1000.14 L39.1779 983.267 L59.58 983.267 Q62.2218 986.991 63.5904 991.479 Q64.9272 995.967 64.9272 1001.06 Q64.9272 1012.2 58.4342 1018.5 Q51.9093 1024.77 40.2919 1024.77 Q28.6427 1024.77 22.1496 1018.5 Q15.6248 1012.2 15.6248 1001.06 Q15.6248 996.412 16.7706 992.243 Q17.9164 988.041 20.1444 984.508 L26.9876 984.508 Q23.9639 988.073 22.4361 992.083 Q20.9083 996.094 20.9083 1000.52 Q20.9083 1009.24 25.7781 1013.63 Q30.6479 1017.99 40.2919 1017.99 Q49.9041 1017.99 54.7739 1013.63 Q59.6436 1009.24 59.6436 1000.52 Q59.6436 997.112 59.0707 994.439 Q58.466 991.765 57.2247 989.633 Z" fill="#000000" fill-rule="evenodd" fill-opacity="1"></path><path clip-path="url(#clip340)" d="M14.479 971.777 L14.479 965.92 L64.0042 965.92 L64.0042 971.777 L14.479 971.777 Z" fill="#000000" fill-rule="evenodd" fill-opacity="1"></path><path clip-path="url(#clip340)" d="M32.4621 939.853 Q32.4621 944.563 36.1542 947.301 Q39.8145 950.038 46.212 950.038 Q52.6095 950.038 56.3017 947.333 Q59.9619 944.595 59.9619 939.853 Q59.9619 935.174 56.2698 932.437 Q52.5777 929.7 46.212 929.7 Q39.8781 929.7 36.186 932.437 Q32.4621 935.174 32.4621 939.853 M27.4968 939.853 Q27.4968 932.214 32.4621 927.854 Q37.4273 923.493 46.212 923.493 Q54.9649 923.493 59.9619 927.854 Q64.9272 932.214 64.9272 939.853 Q64.9272 947.524 59.9619 951.884 Q54.9649 956.213 46.212 956.213 Q37.4273 956.213 32.4621 951.884 Q27.4968 947.524 27.4968 939.853 Z" fill="#000000" fill-rule="evenodd" fill-opacity="1"></path><path clip-path="url(#clip340)" d="M46.212 888.195 Q39.7508 888.195 36.0905 890.869 Q32.3984 893.511 32.3984 898.157 Q32.3984 902.804 36.0905 905.478 Q39.7508 908.12 46.212 908.12 Q52.6732 908.12 56.3653 905.478 Q60.0256 902.804 60.0256 898.157 Q60.0256 893.511 56.3653 890.869 Q52.6732 888.195 46.212 888.195 M33.7671 908.12 Q30.5842 906.274 29.0564 903.473 Q27.4968 900.64 27.4968 896.725 Q27.4968 890.232 32.6531 886.19 Q37.8093 882.116 46.212 882.116 Q54.6147 882.116 59.771 886.19 Q64.9272 890.232 64.9272 896.725 Q64.9272 900.64 63.3994 903.473 Q61.8398 906.274 58.657 908.12 L64.0042 908.12 L64.0042 914.008 L14.479 914.008 L14.479 908.12 L33.7671 908.12 Z" fill="#000000" fill-rule="evenodd" fill-opacity="1"></path><path clip-path="url(#clip340)" d="M46.0847 856.207 Q46.0847 863.305 47.7079 866.043 Q49.3312 868.78 53.2461 868.78 Q56.3653 868.78 58.2114 866.743 Q60.0256 864.674 60.0256 861.141 Q60.0256 856.271 56.5881 853.343 Q53.1188 850.383 47.3897 850.383 L46.0847 850.383 L46.0847 856.207 M43.6657 844.526 L64.0042 844.526 L64.0042 850.383 L58.5933 850.383 Q61.8398 852.388 63.3994 855.38 Q64.9272 858.372 64.9272 862.701 Q64.9272 868.175 61.8716 871.422 Q58.7843 874.636 53.6281 874.636 Q47.6125 874.636 44.5569 870.626 Q41.5014 866.584 41.5014 858.595 L41.5014 850.383 L40.9285 850.383 Q36.8862 850.383 34.6901 853.056 Q32.4621 855.698 32.4621 860.504 Q32.4621 863.56 33.1941 866.456 Q33.9262 869.353 35.3903 872.026 L29.9795 872.026 Q28.7381 868.812 28.1334 865.788 Q27.4968 862.764 27.4968 859.9 Q27.4968 852.165 31.5072 848.346 Q35.5176 844.526 43.6657 844.526 Z" fill="#000000" fill-rule="evenodd" fill-opacity="1"></path><path clip-path="url(#clip340)" d="M14.479 832.463 L14.479 826.607 L64.0042 826.607 L64.0042 832.463 L14.479 832.463 Z" fill="#000000" fill-rule="evenodd" fill-opacity="1"></path><path clip-path="url(#clip340)" d="M14.479 793.633 L14.479 787.776 L64.0042 787.776 L64.0042 793.633 L14.479 793.633 Z" fill="#000000" fill-rule="evenodd" fill-opacity="1"></path><path clip-path="url(#clip340)" d="M32.4621 761.709 Q32.4621 766.419 36.1542 769.156 Q39.8145 771.894 46.212 771.894 Q52.6095 771.894 56.3017 769.188 Q59.9619 766.451 59.9619 761.709 Q59.9619 757.03 56.2698 754.293 Q52.5777 751.555 46.212 751.555 Q39.8781 751.555 36.186 754.293 Q32.4621 757.03 32.4621 761.709 M27.4968 761.709 Q27.4968 754.07 32.4621 749.709 Q37.4273 745.349 46.212 745.349 Q54.9649 745.349 59.9619 749.709 Q64.9272 754.07 64.9272 761.709 Q64.9272 769.379 59.9619 773.74 Q54.9649 778.068 46.212 778.068 Q37.4273 778.068 32.4621 773.74 Q27.4968 769.379 27.4968 761.709 Z" fill="#000000" fill-rule="evenodd" fill-opacity="1"></path><path clip-path="url(#clip340)" d="M45.7664 712.183 Q39.4007 712.183 35.8996 714.825 Q32.3984 717.435 32.3984 722.178 Q32.3984 726.888 35.8996 729.53 Q39.4007 732.14 45.7664 732.14 Q52.1003 732.14 55.6014 729.53 Q59.1026 726.888 59.1026 722.178 Q59.1026 717.435 55.6014 714.825 Q52.1003 712.183 45.7664 712.183 M59.58 706.327 Q68.683 706.327 73.1071 710.369 Q77.5631 714.411 77.5631 722.75 Q77.5631 725.838 77.0857 728.575 Q76.6401 731.312 75.6852 733.89 L69.9879 733.89 Q71.3884 731.312 72.0568 728.798 Q72.7252 726.283 72.7252 723.673 Q72.7252 717.913 69.7015 715.048 Q66.7096 712.183 60.6303 712.183 L57.7339 712.183 Q60.885 713.998 62.4446 716.83 Q64.0042 719.663 64.0042 723.61 Q64.0042 730.166 59.0071 734.177 Q54.01 738.187 45.7664 738.187 Q37.491 738.187 32.4939 734.177 Q27.4968 730.166 27.4968 723.61 Q27.4968 719.663 29.0564 716.83 Q30.616 713.998 33.7671 712.183 L28.3562 712.183 L28.3562 706.327 L59.58 706.327 Z" fill="#000000" fill-rule="evenodd" fill-opacity="1"></path><path clip-path="url(#clip340)" d="M44.7161 643.052 L47.5806 643.052 L47.5806 669.979 Q53.6281 669.597 56.8109 666.35 Q59.9619 663.072 59.9619 657.247 Q59.9619 653.873 59.1344 650.722 Q58.3069 647.54 56.6518 644.42 L62.1899 644.42 Q63.5267 647.571 64.227 650.882 Q64.9272 654.192 64.9272 657.597 Q64.9272 666.127 59.9619 671.125 Q54.9967 676.09 46.5303 676.09 Q37.7774 676.09 32.6531 671.379 Q27.4968 666.637 27.4968 658.616 Q27.4968 651.423 32.1438 647.253 Q36.7589 643.052 44.7161 643.052 M42.9973 648.908 Q38.1912 648.972 35.3266 651.614 Q32.4621 654.224 32.4621 658.552 Q32.4621 663.454 35.2312 666.414 Q38.0002 669.342 43.0292 669.788 L42.9973 648.908 Z" fill="#000000" fill-rule="evenodd" fill-opacity="1"></path><path clip-path="url(#clip340)" d="M33.8307 612.783 Q33.2578 613.77 33.0032 614.947 Q32.7167 616.093 32.7167 617.493 Q32.7167 622.459 35.9632 625.132 Q39.1779 627.774 45.2253 627.774 L64.0042 627.774 L64.0042 633.662 L28.3562 633.662 L28.3562 627.774 L33.8944 627.774 Q30.6479 625.928 29.0883 622.968 Q27.4968 620.008 27.4968 615.775 Q27.4968 615.17 27.5923 614.438 Q27.656 613.706 27.8151 612.815 L33.8307 612.783 Z" fill="#000000" fill-rule="evenodd" fill-opacity="1"></path><path clip-path="url(#clip340)" d="M33.8307 587.129 Q33.2578 588.116 33.0032 589.293 Q32.7167 590.439 32.7167 591.84 Q32.7167 596.805 35.9632 599.479 Q39.1779 602.12 45.2253 602.12 L64.0042 602.12 L64.0042 608.009 L28.3562 608.009 L28.3562 602.12 L33.8944 602.12 Q30.6479 600.274 29.0883 597.314 Q27.4968 594.354 27.4968 590.121 Q27.4968 589.516 27.5923 588.784 Q27.656 588.052 27.8151 587.161 L33.8307 587.129 Z" fill="#000000" fill-rule="evenodd" fill-opacity="1"></path><path clip-path="url(#clip340)" d="M32.4621 568.605 Q32.4621 573.315 36.1542 576.053 Q39.8145 578.79 46.212 578.79 Q52.6095 578.79 56.3017 576.085 Q59.9619 573.347 59.9619 568.605 Q59.9619 563.926 56.2698 561.189 Q52.5777 558.452 46.212 558.452 Q39.8781 558.452 36.186 561.189 Q32.4621 563.926 32.4621 568.605 M27.4968 568.605 Q27.4968 560.966 32.4621 556.606 Q37.4273 552.245 46.212 552.245 Q54.9649 552.245 59.9619 556.606 Q64.9272 560.966 64.9272 568.605 Q64.9272 576.276 59.9619 580.636 Q54.9649 584.965 46.212 584.965 Q37.4273 584.965 32.4621 580.636 Q27.4968 576.276 27.4968 568.605 Z" fill="#000000" fill-rule="evenodd" fill-opacity="1"></path><path clip-path="url(#clip340)" d="M33.8307 521.881 Q33.2578 522.867 33.0032 524.045 Q32.7167 525.191 32.7167 526.591 Q32.7167 531.556 35.9632 534.23 Q39.1779 536.872 45.2253 536.872 L64.0042 536.872 L64.0042 542.76 L28.3562 542.76 L28.3562 536.872 L33.8944 536.872 Q30.6479 535.026 29.0883 532.066 Q27.4968 529.106 27.4968 524.872 Q27.4968 524.268 27.5923 523.536 Q27.656 522.804 27.8151 521.912 L33.8307 521.881 Z" fill="#000000" fill-rule="evenodd" fill-opacity="1"></path><path clip-path="url(#clip340)" d="M153.368 16.7545 L153.368 25.383 Q149.236 21.5346 144.537 19.6307 Q139.878 17.7268 134.612 17.7268 Q124.242 17.7268 118.732 24.0867 Q113.223 30.4061 113.223 42.3968 Q113.223 54.3469 118.732 60.7069 Q124.242 67.0263 134.612 67.0263 Q139.878 67.0263 144.537 65.1223 Q149.236 63.2184 153.368 59.3701 L153.368 67.9175 Q149.074 70.8341 144.253 72.2924 Q139.473 73.7508 134.126 73.7508 Q120.393 73.7508 112.494 65.3654 Q104.595 56.9395 104.595 42.3968 Q104.595 27.8135 112.494 19.4281 Q120.393 11.0023 134.126 11.0023 Q139.554 11.0023 144.334 12.4606 Q149.155 13.8784 153.368 16.7545 Z" fill="#000000" fill-rule="evenodd" fill-opacity="1"></path><path clip-path="url(#clip340)" d="M183.263 32.4315 Q177.268 32.4315 173.784 37.1306 Q170.3 41.7891 170.3 49.9314 Q170.3 58.0738 173.744 62.7728 Q177.227 67.4314 183.263 67.4314 Q189.218 67.4314 192.702 62.7323 Q196.186 58.0333 196.186 49.9314 Q196.186 41.8701 192.702 37.1711 Q189.218 32.4315 183.263 32.4315 M183.263 26.1121 Q192.985 26.1121 198.535 32.4315 Q204.085 38.7509 204.085 49.9314 Q204.085 61.0714 198.535 67.4314 Q192.985 73.7508 183.263 73.7508 Q173.501 73.7508 167.951 67.4314 Q162.442 61.0714 162.442 49.9314 Q162.442 38.7509 167.951 32.4315 Q173.501 26.1121 183.263 26.1121 Z" fill="#000000" fill-rule="evenodd" fill-opacity="1"></path><path clip-path="url(#clip340)" d="M254.154 45.1919 L254.154 72.576 L246.7 72.576 L246.7 45.4349 Q246.7 38.994 244.189 35.7938 Q241.677 32.5936 236.654 32.5936 Q230.618 32.5936 227.135 36.4419 Q223.651 40.2903 223.651 46.9338 L223.651 72.576 L216.157 72.576 L216.157 27.2059 L223.651 27.2059 L223.651 34.2544 Q226.324 30.163 229.93 28.1376 Q233.575 26.1121 238.315 26.1121 Q246.133 26.1121 250.144 30.9732 Q254.154 35.7938 254.154 45.1919 Z" fill="#000000" fill-rule="evenodd" fill-opacity="1"></path><path clip-path="url(#clip340)" d="M263.674 27.2059 L271.573 27.2059 L285.751 65.2844 L299.929 27.2059 L307.829 27.2059 L290.815 72.576 L280.687 72.576 L263.674 27.2059 Z" fill="#000000" fill-rule="evenodd" fill-opacity="1"></path><path clip-path="url(#clip340)" d="M356.925 48.0275 L356.925 51.6733 L322.655 51.6733 Q323.141 59.3701 327.273 63.421 Q331.445 67.4314 338.858 67.4314 Q343.152 67.4314 347.163 66.3781 Q351.214 65.3249 355.184 63.2184 L355.184 70.267 Q351.173 71.9684 346.96 72.8596 Q342.747 73.7508 338.413 73.7508 Q327.556 73.7508 321.196 67.4314 Q314.877 61.1119 314.877 50.3365 Q314.877 39.1965 320.872 32.6746 Q326.908 26.1121 337.117 26.1121 Q346.272 26.1121 351.578 32.0264 Q356.925 37.9003 356.925 48.0275 M349.472 45.84 Q349.391 39.7232 346.029 36.0774 Q342.707 32.4315 337.198 32.4315 Q330.959 32.4315 327.192 35.9558 Q323.465 39.4801 322.898 45.8805 L349.472 45.84 Z" fill="#000000" fill-rule="evenodd" fill-opacity="1"></path><path clip-path="url(#clip340)" d="M395.45 34.1734 Q394.194 33.4443 392.695 33.1202 Q391.237 32.7556 389.454 32.7556 Q383.135 32.7556 379.732 36.8875 Q376.37 40.9789 376.37 48.6757 L376.37 72.576 L368.876 72.576 L368.876 27.2059 L376.37 27.2059 L376.37 34.2544 Q378.719 30.1225 382.487 28.1376 Q386.254 26.1121 391.642 26.1121 Q392.411 26.1121 393.343 26.2337 Q394.275 26.3147 395.409 26.5172 L395.45 34.1734 Z" fill="#000000" fill-rule="evenodd" fill-opacity="1"></path><path clip-path="url(#clip340)" d="M431.665 49.3643 Q431.665 41.2625 428.302 36.8065 Q424.981 32.3505 418.945 32.3505 Q412.949 32.3505 409.587 36.8065 Q406.265 41.2625 406.265 49.3643 Q406.265 57.4256 409.587 61.8816 Q412.949 66.3376 418.945 66.3376 Q424.981 66.3376 428.302 61.8816 Q431.665 57.4256 431.665 49.3643 M439.118 66.9452 Q439.118 78.5308 433.974 84.1616 Q428.829 89.8329 418.216 89.8329 Q414.286 89.8329 410.803 89.2252 Q407.319 88.6581 404.037 87.4428 L404.037 80.1917 Q407.319 81.9741 410.519 82.8248 Q413.719 83.6755 417.041 83.6755 Q424.373 83.6755 428.019 79.8271 Q431.665 76.0193 431.665 68.282 L431.665 64.5957 Q429.356 68.6061 425.75 70.5911 Q422.145 72.576 417.122 72.576 Q408.777 72.576 403.673 66.2161 Q398.569 59.8562 398.569 49.3643 Q398.569 38.832 403.673 32.472 Q408.777 26.1121 417.122 26.1121 Q422.145 26.1121 425.75 28.0971 Q429.356 30.082 431.665 34.0924 L431.665 27.2059 L439.118 27.2059 L439.118 66.9452 Z" fill="#000000" fill-rule="evenodd" fill-opacity="1"></path><path clip-path="url(#clip340)" d="M493.279 48.0275 L493.279 51.6733 L459.008 51.6733 Q459.494 59.3701 463.626 63.421 Q467.799 67.4314 475.212 67.4314 Q479.506 67.4314 483.516 66.3781 Q487.567 65.3249 491.537 63.2184 L491.537 70.267 Q487.527 71.9684 483.314 72.8596 Q479.101 73.7508 474.766 73.7508 Q463.91 73.7508 457.55 67.4314 Q451.231 61.1119 451.231 50.3365 Q451.231 39.1965 457.226 32.6746 Q463.262 26.1121 473.47 26.1121 Q482.625 26.1121 487.932 32.0264 Q493.279 37.9003 493.279 48.0275 M485.825 45.84 Q485.744 39.7232 482.382 36.0774 Q479.06 32.4315 473.551 32.4315 Q467.313 32.4315 463.545 35.9558 Q459.818 39.4801 459.251 45.8805 L485.825 45.84 Z" fill="#000000" fill-rule="evenodd" fill-opacity="1"></path><path clip-path="url(#clip340)" d="M543.227 45.1919 L543.227 72.576 L535.773 72.576 L535.773 45.4349 Q535.773 38.994 533.261 35.7938 Q530.75 32.5936 525.727 32.5936 Q519.691 32.5936 516.207 36.4419 Q512.723 40.2903 512.723 46.9338 L512.723 72.576 L505.229 72.576 L505.229 27.2059 L512.723 27.2059 L512.723 34.2544 Q515.397 30.163 519.002 28.1376 Q522.648 26.1121 527.388 26.1121 Q535.206 26.1121 539.216 30.9732 Q543.227 35.7938 543.227 45.1919 Z" fill="#000000" fill-rule="evenodd" fill-opacity="1"></path><path clip-path="url(#clip340)" d="M590.744 28.9478 L590.744 35.9153 Q587.584 34.1734 584.384 33.3227 Q581.224 32.4315 577.983 32.4315 Q570.732 32.4315 566.722 37.0496 Q562.711 41.6271 562.711 49.9314 Q562.711 58.2358 566.722 62.8538 Q570.732 67.4314 577.983 67.4314 Q581.224 67.4314 584.384 66.5807 Q587.584 65.6895 590.744 63.9476 L590.744 70.8341 Q587.624 72.2924 584.262 73.0216 Q580.94 73.7508 577.173 73.7508 Q566.924 73.7508 560.889 67.3098 Q554.853 60.8689 554.853 49.9314 Q554.853 38.832 560.929 32.472 Q567.046 26.1121 577.659 26.1121 Q581.103 26.1121 584.384 26.8413 Q587.665 27.5299 590.744 28.9478 Z" fill="#000000" fill-rule="evenodd" fill-opacity="1"></path><path clip-path="url(#clip340)" d="M642.514 48.0275 L642.514 51.6733 L608.244 51.6733 Q608.73 59.3701 612.862 63.421 Q617.034 67.4314 624.447 67.4314 Q628.741 67.4314 632.752 66.3781 Q636.802 65.3249 640.772 63.2184 L640.772 70.267 Q636.762 71.9684 632.549 72.8596 Q628.336 73.7508 624.002 73.7508 Q613.145 73.7508 606.785 67.4314 Q600.466 61.1119 600.466 50.3365 Q600.466 39.1965 606.461 32.6746 Q612.497 26.1121 622.705 26.1121 Q631.86 26.1121 637.167 32.0264 Q642.514 37.9003 642.514 48.0275 M635.061 45.84 Q634.98 39.7232 631.617 36.0774 Q628.296 32.4315 622.786 32.4315 Q616.548 32.4315 612.781 35.9558 Q609.054 39.4801 608.487 45.8805 L635.061 45.84 Z" fill="#000000" fill-rule="evenodd" fill-opacity="1"></path><path clip-path="url(#clip340)" d="M688.33 65.7705 L688.33 89.8329 L680.836 89.8329 L680.836 27.2059 L688.33 27.2059 L688.33 34.0924 Q690.679 30.0415 694.244 28.0971 Q697.85 26.1121 702.832 26.1121 Q711.096 26.1121 716.241 32.6746 Q721.426 39.2371 721.426 49.9314 Q721.426 60.6258 716.241 67.1883 Q711.096 73.7508 702.832 73.7508 Q697.85 73.7508 694.244 71.8063 Q690.679 69.8214 688.33 65.7705 M713.689 49.9314 Q713.689 41.7081 710.286 37.0496 Q706.924 32.3505 701.009 32.3505 Q695.095 32.3505 691.692 37.0496 Q688.33 41.7081 688.33 49.9314 Q688.33 58.1548 691.692 62.8538 Q695.095 67.5124 701.009 67.5124 Q706.924 67.5124 710.286 62.8538 Q713.689 58.1548 713.689 49.9314 Z" fill="#000000" fill-rule="evenodd" fill-opacity="1"></path><path clip-path="url(#clip340)" d="M733.781 9.54393 L741.235 9.54393 L741.235 72.576 L733.781 72.576 L733.781 9.54393 Z" fill="#000000" fill-rule="evenodd" fill-opacity="1"></path><path clip-path="url(#clip340)" d="M774.412 32.4315 Q768.416 32.4315 764.933 37.1306 Q761.449 41.7891 761.449 49.9314 Q761.449 58.0738 764.892 62.7728 Q768.376 67.4314 774.412 67.4314 Q780.366 67.4314 783.85 62.7323 Q787.334 58.0333 787.334 49.9314 Q787.334 41.8701 783.85 37.1711 Q780.366 32.4315 774.412 32.4315 M774.412 26.1121 Q784.134 26.1121 789.684 32.4315 Q795.233 38.7509 795.233 49.9314 Q795.233 61.0714 789.684 67.4314 Q784.134 73.7508 774.412 73.7508 Q764.649 73.7508 759.099 67.4314 Q753.59 61.0714 753.59 49.9314 Q753.59 38.7509 759.099 32.4315 Q764.649 26.1121 774.412 26.1121 Z" fill="#000000" fill-rule="evenodd" fill-opacity="1"></path><path clip-path="url(#clip340)" d="M814.961 14.324 L814.961 27.2059 L830.314 27.2059 L830.314 32.9987 L814.961 32.9987 L814.961 57.6282 Q814.961 63.1779 816.46 64.7578 Q817.999 66.3376 822.658 66.3376 L830.314 66.3376 L830.314 72.576 L822.658 72.576 Q814.03 72.576 810.748 69.3758 Q807.467 66.1351 807.467 57.6282 L807.467 32.9987 L801.998 32.9987 L801.998 27.2059 L807.467 27.2059 L807.467 14.324 L814.961 14.324 Z" fill="#000000" fill-rule="evenodd" fill-opacity="1"></path><path clip-path="url(#clip340)" d="M862.154 27.2059 L869.608 27.2059 L878.925 62.6108 L888.202 27.2059 L896.992 27.2059 L906.309 62.6108 L915.586 27.2059 L923.039 27.2059 L911.17 72.576 L902.38 72.576 L892.617 35.3887 L882.814 72.576 L874.023 72.576 L862.154 27.2059 Z" fill="#000000" fill-rule="evenodd" fill-opacity="1"></path><path clip-path="url(#clip340)" d="M934.341 27.2059 L941.795 27.2059 L941.795 72.576 L934.341 72.576 L934.341 27.2059 M934.341 9.54393 L941.795 9.54393 L941.795 18.9825 L934.341 18.9825 L934.341 9.54393 Z" fill="#000000" fill-rule="evenodd" fill-opacity="1"></path><path clip-path="url(#clip340)" d="M964.764 14.324 L964.764 27.2059 L980.117 27.2059 L980.117 32.9987 L964.764 32.9987 L964.764 57.6282 Q964.764 63.1779 966.262 64.7578 Q967.802 66.3376 972.46 66.3376 L980.117 66.3376 L980.117 72.576 L972.46 72.576 Q963.832 72.576 960.551 69.3758 Q957.269 66.1351 957.269 57.6282 L957.269 32.9987 L951.801 32.9987 L951.801 27.2059 L957.269 27.2059 L957.269 14.324 L964.764 14.324 Z" fill="#000000" fill-rule="evenodd" fill-opacity="1"></path><path clip-path="url(#clip340)" d="M1027.63 45.1919 L1027.63 72.576 L1020.18 72.576 L1020.18 45.4349 Q1020.18 38.994 1017.67 35.7938 Q1015.16 32.5936 1010.13 32.5936 Q1004.1 32.5936 1000.61 36.4419 Q997.13 40.2903 997.13 46.9338 L997.13 72.576 L989.636 72.576 L989.636 9.54393 L997.13 9.54393 L997.13 34.2544 Q999.804 30.163 1003.41 28.1376 Q1007.06 26.1121 1011.79 26.1121 Q1019.61 26.1121 1023.62 30.9732 Q1027.63 35.7938 1027.63 45.1919 Z" fill="#000000" fill-rule="evenodd" fill-opacity="1"></path><path clip-path="url(#clip340)" d="M1071.34 65.6895 L1084.71 65.6895 L1084.71 19.5497 L1070.17 22.4663 L1070.17 15.0127 L1084.63 12.096 L1092.81 12.096 L1092.81 65.6895 L1106.18 65.6895 L1106.18 72.576 L1071.34 72.576 L1071.34 65.6895 Z" fill="#000000" fill-rule="evenodd" fill-opacity="1"></path><path clip-path="url(#clip340)" d="M1140.21 17.4837 Q1133.89 17.4837 1130.69 23.7221 Q1127.53 29.92 1127.53 42.3968 Q1127.53 54.833 1130.69 61.0714 Q1133.89 67.2693 1140.21 67.2693 Q1146.57 67.2693 1149.73 61.0714 Q1152.93 54.833 1152.93 42.3968 Q1152.93 29.92 1149.73 23.7221 Q1146.57 17.4837 1140.21 17.4837 M1140.21 11.0023 Q1150.38 11.0023 1155.72 19.0636 Q1161.11 27.0843 1161.11 42.3968 Q1161.11 57.6687 1155.72 65.73 Q1150.38 73.7508 1140.21 73.7508 Q1130.04 73.7508 1124.65 65.73 Q1119.31 57.6687 1119.31 42.3968 Q1119.31 27.0843 1124.65 19.0636 Q1130.04 11.0023 1140.21 11.0023 Z" fill="#000000" fill-rule="evenodd" fill-opacity="1"></path><path clip-path="url(#clip340)" d="M1233.46 28.9478 L1233.46 35.9153 Q1230.3 34.1734 1227.1 33.3227 Q1223.94 32.4315 1220.7 32.4315 Q1213.45 32.4315 1209.44 37.0496 Q1205.43 41.6271 1205.43 49.9314 Q1205.43 58.2358 1209.44 62.8538 Q1213.45 67.4314 1220.7 67.4314 Q1223.94 67.4314 1227.1 66.5807 Q1230.3 65.6895 1233.46 63.9476 L1233.46 70.8341 Q1230.34 72.2924 1226.98 73.0216 Q1223.66 73.7508 1219.89 73.7508 Q1209.64 73.7508 1203.6 67.3098 Q1197.57 60.8689 1197.57 49.9314 Q1197.57 38.832 1203.65 32.472 Q1209.76 26.1121 1220.38 26.1121 Q1223.82 26.1121 1227.1 26.8413 Q1230.38 27.5299 1233.46 28.9478 Z" fill="#000000" fill-rule="evenodd" fill-opacity="1"></path><path clip-path="url(#clip340)" d="M1264 32.4315 Q1258.01 32.4315 1254.52 37.1306 Q1251.04 41.7891 1251.04 49.9314 Q1251.04 58.0738 1254.48 62.7728 Q1257.97 67.4314 1264 67.4314 Q1269.96 67.4314 1273.44 62.7323 Q1276.93 58.0333 1276.93 49.9314 Q1276.93 41.8701 1273.44 37.1711 Q1269.96 32.4315 1264 32.4315 M1264 26.1121 Q1273.73 26.1121 1279.28 32.4315 Q1284.83 38.7509 1284.83 49.9314 Q1284.83 61.0714 1279.28 67.4314 Q1273.73 73.7508 1264 73.7508 Q1254.24 73.7508 1248.69 67.4314 Q1243.18 61.0714 1243.18 49.9314 Q1243.18 38.7509 1248.69 32.4315 Q1254.24 26.1121 1264 26.1121 Z" fill="#000000" fill-rule="evenodd" fill-opacity="1"></path><path clip-path="url(#clip340)" d="M1323.47 34.1734 Q1322.22 33.4443 1320.72 33.1202 Q1319.26 32.7556 1317.48 32.7556 Q1311.16 32.7556 1307.75 36.8875 Q1304.39 40.9789 1304.39 48.6757 L1304.39 72.576 L1296.9 72.576 L1296.9 27.2059 L1304.39 27.2059 L1304.39 34.2544 Q1306.74 30.1225 1310.51 28.1376 Q1314.28 26.1121 1319.66 26.1121 Q1320.43 26.1121 1321.36 26.2337 Q1322.3 26.3147 1323.43 26.5172 L1323.47 34.1734 Z" fill="#000000" fill-rule="evenodd" fill-opacity="1"></path><path clip-path="url(#clip340)" d="M1356.12 34.1734 Q1354.87 33.4443 1353.37 33.1202 Q1351.91 32.7556 1350.13 32.7556 Q1343.81 32.7556 1340.4 36.8875 Q1337.04 40.9789 1337.04 48.6757 L1337.04 72.576 L1329.55 72.576 L1329.55 27.2059 L1337.04 27.2059 L1337.04 34.2544 Q1339.39 30.1225 1343.16 28.1376 Q1346.93 26.1121 1352.31 26.1121 Q1353.08 26.1121 1354.02 26.2337 Q1354.95 26.3147 1356.08 26.5172 L1356.12 34.1734 Z" fill="#000000" fill-rule="evenodd" fill-opacity="1"></path><path clip-path="url(#clip340)" d="M1400.92 48.0275 L1400.92 51.6733 L1366.65 51.6733 Q1367.14 59.3701 1371.27 63.421 Q1375.44 67.4314 1382.86 67.4314 Q1387.15 67.4314 1391.16 66.3781 Q1395.21 65.3249 1399.18 63.2184 L1399.18 70.267 Q1395.17 71.9684 1390.96 72.8596 Q1386.75 73.7508 1382.41 73.7508 Q1371.56 73.7508 1365.2 67.4314 Q1358.88 61.1119 1358.88 50.3365 Q1358.88 39.1965 1364.87 32.6746 Q1370.91 26.1121 1381.12 26.1121 Q1390.27 26.1121 1395.58 32.0264 Q1400.92 37.9003 1400.92 48.0275 M1393.47 45.84 Q1393.39 39.7232 1390.03 36.0774 Q1386.71 32.4315 1381.2 32.4315 Q1374.96 32.4315 1371.19 35.9558 Q1367.46 39.4801 1366.9 45.8805 L1393.47 45.84 Z" fill="#000000" fill-rule="evenodd" fill-opacity="1"></path><path clip-path="url(#clip340)" d="M1445.81 28.9478 L1445.81 35.9153 Q1442.65 34.1734 1439.45 33.3227 Q1436.29 32.4315 1433.05 32.4315 Q1425.8 32.4315 1421.79 37.0496 Q1417.78 41.6271 1417.78 49.9314 Q1417.78 58.2358 1421.79 62.8538 Q1425.8 67.4314 1433.05 67.4314 Q1436.29 67.4314 1439.45 66.5807 Q1442.65 65.6895 1445.81 63.9476 L1445.81 70.8341 Q1442.69 72.2924 1439.33 73.0216 Q1436.01 73.7508 1432.24 73.7508 Q1421.99 73.7508 1415.95 67.3098 Q1409.92 60.8689 1409.92 49.9314 Q1409.92 38.832 1415.99 32.472 Q1422.11 26.1121 1432.72 26.1121 Q1436.17 26.1121 1439.45 26.8413 Q1442.73 27.5299 1445.81 28.9478 Z" fill="#000000" fill-rule="evenodd" fill-opacity="1"></path><path clip-path="url(#clip340)" d="M1466.14 14.324 L1466.14 27.2059 L1481.5 27.2059 L1481.5 32.9987 L1466.14 32.9987 L1466.14 57.6282 Q1466.14 63.1779 1467.64 64.7578 Q1469.18 66.3376 1473.84 66.3376 L1481.5 66.3376 L1481.5 72.576 L1473.84 72.576 Q1465.21 72.576 1461.93 69.3758 Q1458.65 66.1351 1458.65 57.6282 L1458.65 32.9987 L1453.18 32.9987 L1453.18 27.2059 L1458.65 27.2059 L1458.65 14.324 L1466.14 14.324 Z" fill="#000000" fill-rule="evenodd" fill-opacity="1"></path><path clip-path="url(#clip340)" d="M1491.3 27.2059 L1498.75 27.2059 L1498.75 72.576 L1491.3 72.576 L1491.3 27.2059 M1491.3 9.54393 L1498.75 9.54393 L1498.75 18.9825 L1491.3 18.9825 L1491.3 9.54393 Z" fill="#000000" fill-rule="evenodd" fill-opacity="1"></path><path clip-path="url(#clip340)" d="M1531.93 32.4315 Q1525.94 32.4315 1522.45 37.1306 Q1518.97 41.7891 1518.97 49.9314 Q1518.97 58.0738 1522.41 62.7728 Q1525.89 67.4314 1531.93 67.4314 Q1537.89 67.4314 1541.37 62.7323 Q1544.85 58.0333 1544.85 49.9314 Q1544.85 41.8701 1541.37 37.1711 Q1537.89 32.4315 1531.93 32.4315 M1531.93 26.1121 Q1541.65 26.1121 1547.2 32.4315 Q1552.75 38.7509 1552.75 49.9314 Q1552.75 61.0714 1547.2 67.4314 Q1541.65 73.7508 1531.93 73.7508 Q1522.17 73.7508 1516.62 67.4314 Q1511.11 61.0714 1511.11 49.9314 Q1511.11 38.7509 1516.62 32.4315 Q1522.17 26.1121 1531.93 26.1121 Z" fill="#000000" fill-rule="evenodd" fill-opacity="1"></path><path clip-path="url(#clip340)" d="M1602.82 45.1919 L1602.82 72.576 L1595.37 72.576 L1595.37 45.4349 Q1595.37 38.994 1592.86 35.7938 Q1590.34 32.5936 1585.32 32.5936 Q1579.29 32.5936 1575.8 36.4419 Q1572.32 40.2903 1572.32 46.9338 L1572.32 72.576 L1564.82 72.576 L1564.82 27.2059 L1572.32 27.2059 L1572.32 34.2544 Q1574.99 30.163 1578.6 28.1376 Q1582.24 26.1121 1586.98 26.1121 Q1594.8 26.1121 1598.81 30.9732 Q1602.82 35.7938 1602.82 45.1919 Z" fill="#000000" fill-rule="evenodd" fill-opacity="1"></path><path clip-path="url(#clip340)" d="M1646.61 28.5427 L1646.61 35.5912 Q1643.45 33.9709 1640.05 33.1607 Q1636.65 32.3505 1633 32.3505 Q1627.45 32.3505 1624.66 34.0519 Q1621.9 35.7533 1621.9 39.156 Q1621.9 41.7486 1623.89 43.2475 Q1625.87 44.7058 1631.87 46.0426 L1634.42 46.6097 Q1642.36 48.3111 1645.68 51.4303 Q1649.04 54.509 1649.04 60.0587 Q1649.04 66.3781 1644.02 70.0644 Q1639.04 73.7508 1630.29 73.7508 Q1626.64 73.7508 1622.67 73.0216 Q1618.74 72.3329 1614.37 70.9151 L1614.37 63.2184 Q1618.5 65.3654 1622.51 66.4591 Q1626.52 67.5124 1630.45 67.5124 Q1635.71 67.5124 1638.55 65.73 Q1641.39 63.9071 1641.39 60.6258 Q1641.39 57.5877 1639.32 55.9673 Q1637.29 54.3469 1630.37 52.8481 L1627.78 52.2405 Q1620.85 50.7821 1617.77 47.7845 Q1614.69 44.7463 1614.69 39.4801 Q1614.69 33.0797 1619.23 29.5959 Q1623.76 26.1121 1632.11 26.1121 Q1636.24 26.1121 1639.89 26.7198 Q1643.53 27.3274 1646.61 28.5427 Z" fill="#000000" fill-rule="evenodd" fill-opacity="1"></path><polyline clip-path="url(#clip342)" style="stroke:#009af9; stroke-linecap:round; stroke-linejoin:round; stroke-width:4; stroke-opacity:1; fill:none" stroke-dasharray="16, 10" points="
  278.06,1343.75 290.035,1342.59 302.011,1341.44 313.986,1340.28 325.961,1339.13 337.936,1337.97 349.911,1336.82 361.886,1335.66 373.862,1334.51 385.837,1333.35 
  397.812,1332.2 409.787,1331.04 421.762,1329.89 433.737,1328.73 445.713,1327.58 457.688,1326.42 469.663,1325.27 481.638,1324.11 493.613,1322.96 505.588,1321.8 
  517.564,1320.65 529.539,1319.5 541.514,1318.34 553.489,1317.19 565.464,1316.03 577.439,1314.88 589.415,1313.72 601.39,1312.57 613.365,1311.41 625.34,1310.26 
  637.315,1309.1 649.29,1307.95 661.266,1306.79 673.241,1305.64 685.216,1304.48 697.191,1303.33 709.166,1302.17 721.141,1301.02 733.117,1299.86 745.092,1298.71 
  757.067,1297.55 769.042,1296.4 781.017,1295.24 792.992,1294.09 804.968,1292.93 816.943,1291.78 828.918,1290.62 840.893,1289.47 852.868,1288.31 864.843,1287.16 
  876.819,1286 888.794,1284.85 900.769,1283.69 912.744,1282.54 924.719,1281.38 936.694,1280.23 948.67,1279.07 960.645,1277.92 972.62,1276.76 984.595,1275.61 
  996.57,1274.45 1008.55,1273.3 1020.52,1272.14 1032.5,1270.99 1044.47,1269.83 1056.45,1268.68 1068.42,1267.52 1080.4,1266.37 1092.37,1265.21 1104.35,1264.06 
  1116.32,1262.9 1128.3,1261.75 1140.27,1260.59 1152.25,1259.44 1164.22,1258.28 1176.2,1257.13 1188.17,1255.97 1200.15,1254.82 1212.12,1253.67 1224.1,1252.51 
  1236.07,1251.36 1248.05,1250.2 1260.02,1249.05 1272,1247.89 1283.97,1246.74 1295.95,1245.58 1307.92,1244.43 1319.9,1243.27 1331.87,1242.12 1343.85,1240.96 
  1355.83,1239.81 1367.8,1238.65 1379.78,1237.5 1391.75,1236.34 1403.73,1235.19 1415.7,1234.03 1427.68,1232.88 1439.65,1231.72 1451.63,1230.57 1463.6,1229.41 
  
  "></polyline>
<polyline clip-path="url(#clip342)" style="stroke:#e26f46; stroke-linecap:round; stroke-linejoin:round; stroke-width:4; stroke-opacity:1; fill:none" stroke-dasharray="16, 10" points="
  278.06,1343.75 290.035,1331.04 302.011,1318.34 313.986,1305.64 325.961,1292.93 337.936,1280.23 349.911,1267.52 361.886,1254.82 373.862,1242.12 385.837,1229.41 
  397.812,1216.71 409.787,1204 421.762,1191.3 433.737,1178.6 445.713,1165.89 457.688,1153.19 469.663,1140.48 481.638,1127.78 493.613,1115.08 505.588,1102.37 
  517.564,1089.67 529.539,1076.96 541.514,1064.26 553.489,1051.56 565.464,1038.85 577.439,1026.15 589.415,1013.44 601.39,1000.74 613.365,988.035 625.34,975.331 
  637.315,962.627 649.29,949.923 661.266,937.219 673.241,924.515 685.216,911.811 697.191,899.107 709.166,886.403 721.141,873.699 733.117,860.995 745.092,848.291 
  757.067,835.586 769.042,822.882 781.017,810.178 792.992,797.474 804.968,784.77 816.943,772.066 828.918,759.362 840.893,746.658 852.868,733.954 864.843,721.25 
  876.819,708.546 888.794,695.842 900.769,683.138 912.744,670.434 924.719,657.73 936.694,645.026 948.67,632.322 960.645,619.618 972.62,606.914 984.595,594.21 
  996.57,581.506 1008.55,568.802 1020.52,556.097 1032.5,543.393 1044.47,530.689 1056.45,517.985 1068.42,505.281 1080.4,492.577 1092.37,479.873 1104.35,467.169 
  1116.32,454.465 1128.3,441.761 1140.27,429.057 1152.25,416.353 1164.22,403.649 1176.2,390.945 1188.17,378.241 1200.15,365.537 1212.12,352.833 1224.1,340.129 
  1236.07,327.425 1248.05,314.721 1260.02,302.017 1272,289.313 1283.97,276.609 1295.95,263.904 1307.92,251.2 1319.9,238.496 1331.87,225.792 1343.85,213.088 
  1355.83,200.384 1367.8,187.68 1379.78,174.976 1391.75,162.272 1403.73,149.568 1415.7,136.864 1427.68,124.16 1439.65,111.456 1451.63,98.7519 1463.6,86.0478 
  
  "></polyline>
<polyline clip-path="url(#clip342)" style="stroke:#3da44d; stroke-linecap:round; stroke-linejoin:round; stroke-width:4; stroke-opacity:1; fill:none" points="
  1475.58,160.256 1169.06,331.486 989.764,638.483 862.549,848.106 763.873,1033.24 683.25,1370.77 615.083,1087.15 556.035,1241.12 503.95,1207.15 457.359,1292.82 
  415.213,1328.69 376.736,1386.4 341.34,1323.68 308.569,1201.72 278.06,1123.24 
  "></polyline>
<polyline clip-path="url(#clip342)" style="stroke:#c271d2; stroke-linecap:round; stroke-linejoin:round; stroke-width:4; stroke-opacity:1; fill:none" points="
  -967.466,2675.08 2750.99,-1080.62 
  "></polyline>
<path clip-path="url(#clip340)" d="
M1581.86 425.996 L2352.76 425.996 L2352.76 166.796 L1581.86 166.796  Z
  " fill="#ffffff" fill-rule="evenodd" fill-opacity="1"></path>
<polyline clip-path="url(#clip340)" style="stroke:#000000; stroke-linecap:round; stroke-linejoin:round; stroke-width:4; stroke-opacity:1; fill:none" points="
  1581.86,425.996 2352.76,425.996 2352.76,166.796 1581.86,166.796 1581.86,425.996 
  "></polyline>
<polyline clip-path="url(#clip340)" style="stroke:#009af9; stroke-linecap:round; stroke-linejoin:round; stroke-width:4; stroke-opacity:1; fill:none" stroke-dasharray="16, 10" points="
  1605.31,218.636 1746.02,218.636 
  "></polyline>
<path clip-path="url(#clip340)" d="M1785.49 204.527 Q1780.39 204.527 1777.38 208.323 Q1774.4 212.12 1774.4 218.67 Q1774.4 225.198 1777.38 228.994 Q1780.39 232.791 1785.49 232.791 Q1790.58 232.791 1793.54 228.994 Q1796.53 225.198 1796.53 218.67 Q1796.53 212.12 1793.54 208.323 Q1790.58 204.527 1785.49 204.527 M1785.49 200.731 Q1792.75 200.731 1797.11 205.615 Q1801.46 210.476 1801.46 218.67 Q1801.46 226.842 1797.11 231.726 Q1792.75 236.587 1785.49 236.587 Q1778.19 236.587 1773.82 231.726 Q1769.47 226.865 1769.47 218.67 Q1769.47 210.476 1773.82 205.615 Q1778.19 200.731 1785.49 200.731 Z" fill="#000000" fill-rule="evenodd" fill-opacity="1"></path><path clip-path="url(#clip340)" d="M1823.61 213.971 Q1822.89 213.555 1822.04 213.37 Q1821.2 213.161 1820.18 213.161 Q1816.57 213.161 1814.63 215.522 Q1812.71 217.86 1812.71 222.258 L1812.71 235.916 L1808.43 235.916 L1808.43 209.99 L1812.71 209.99 L1812.71 214.018 Q1814.05 211.657 1816.2 210.522 Q1818.36 209.365 1821.43 209.365 Q1821.87 209.365 1822.41 209.434 Q1822.94 209.481 1823.59 209.596 L1823.61 213.971 Z" fill="#000000" fill-rule="evenodd" fill-opacity="1"></path><path clip-path="url(#clip340)" d="M1844.3 213.925 L1844.3 199.897 L1848.56 199.897 L1848.56 235.916 L1844.3 235.916 L1844.3 232.027 Q1842.96 234.342 1840.9 235.476 Q1838.86 236.587 1835.99 236.587 Q1831.3 236.587 1828.33 232.837 Q1825.39 229.087 1825.39 222.976 Q1825.39 216.865 1828.33 213.115 Q1831.3 209.365 1835.99 209.365 Q1838.86 209.365 1840.9 210.499 Q1842.96 211.61 1844.3 213.925 M1829.79 222.976 Q1829.79 227.675 1831.71 230.36 Q1833.66 233.022 1837.04 233.022 Q1840.42 233.022 1842.36 230.36 Q1844.3 227.675 1844.3 222.976 Q1844.3 218.277 1842.36 215.615 Q1840.42 212.93 1837.04 212.93 Q1833.66 212.93 1831.71 215.615 Q1829.79 218.277 1829.79 222.976 Z" fill="#000000" fill-rule="evenodd" fill-opacity="1"></path><path clip-path="url(#clip340)" d="M1879.51 221.888 L1879.51 223.971 L1859.93 223.971 Q1860.21 228.369 1862.57 230.684 Q1864.95 232.976 1869.19 232.976 Q1871.64 232.976 1873.93 232.374 Q1876.25 231.772 1878.52 230.569 L1878.52 234.596 Q1876.23 235.568 1873.82 236.078 Q1871.41 236.587 1868.93 236.587 Q1862.73 236.587 1859.1 232.976 Q1855.49 229.365 1855.49 223.207 Q1855.49 216.842 1858.91 213.115 Q1862.36 209.365 1868.19 209.365 Q1873.42 209.365 1876.46 212.745 Q1879.51 216.101 1879.51 221.888 M1875.25 220.638 Q1875.21 217.143 1873.29 215.059 Q1871.39 212.976 1868.24 212.976 Q1864.68 212.976 1862.52 214.99 Q1860.39 217.004 1860.07 220.661 L1875.25 220.638 Z" fill="#000000" fill-rule="evenodd" fill-opacity="1"></path><path clip-path="url(#clip340)" d="M1901.53 213.971 Q1900.81 213.555 1899.95 213.37 Q1899.12 213.161 1898.1 213.161 Q1894.49 213.161 1892.55 215.522 Q1890.62 217.86 1890.62 222.258 L1890.62 235.916 L1886.34 235.916 L1886.34 209.99 L1890.62 209.99 L1890.62 214.018 Q1891.97 211.657 1894.12 210.522 Q1896.27 209.365 1899.35 209.365 Q1899.79 209.365 1900.32 209.434 Q1900.86 209.481 1901.5 209.596 L1901.53 213.971 Z" fill="#000000" fill-rule="evenodd" fill-opacity="1"></path><path clip-path="url(#clip340)" d="M1922.48 231.981 L1930.11 231.981 L1930.11 205.615 L1921.8 207.282 L1921.8 203.022 L1930.07 201.356 L1934.74 201.356 L1934.74 231.981 L1942.38 231.981 L1942.38 235.916 L1922.48 235.916 L1922.48 231.981 Z" fill="#000000" fill-rule="evenodd" fill-opacity="1"></path><path clip-path="url(#clip340)" d="M1970.51 202.629 L1970.51 209.99 L1979.28 209.99 L1979.28 213.3 L1970.51 213.3 L1970.51 227.374 Q1970.51 230.545 1971.36 231.448 Q1972.24 232.351 1974.91 232.351 L1979.28 232.351 L1979.28 235.916 L1974.91 235.916 Q1969.98 235.916 1968.1 234.087 Q1966.23 232.235 1966.23 227.374 L1966.23 213.3 L1963.1 213.3 L1963.1 209.99 L1966.23 209.99 L1966.23 202.629 L1970.51 202.629 Z" fill="#000000" fill-rule="evenodd" fill-opacity="1"></path><path clip-path="url(#clip340)" d="M2007.06 221.888 L2007.06 223.971 L1987.48 223.971 Q1987.75 228.369 1990.11 230.684 Q1992.5 232.976 1996.73 232.976 Q1999.19 232.976 2001.48 232.374 Q2003.79 231.772 2006.06 230.569 L2006.06 234.596 Q2003.77 235.568 2001.36 236.078 Q1998.96 236.587 1996.48 236.587 Q1990.28 236.587 1986.64 232.976 Q1983.03 229.365 1983.03 223.207 Q1983.03 216.842 1986.46 213.115 Q1989.91 209.365 1995.74 209.365 Q2000.97 209.365 2004 212.745 Q2007.06 216.101 2007.06 221.888 M2002.8 220.638 Q2002.75 217.143 2000.83 215.059 Q1998.93 212.976 1995.79 212.976 Q1992.22 212.976 1990.07 214.99 Q1987.94 217.004 1987.61 220.661 L2002.8 220.638 Z" fill="#000000" fill-rule="evenodd" fill-opacity="1"></path><path clip-path="url(#clip340)" d="M2030.58 210.754 L2030.58 214.782 Q2028.77 213.856 2026.83 213.393 Q2024.88 212.93 2022.8 212.93 Q2019.63 212.93 2018.03 213.902 Q2016.46 214.874 2016.46 216.819 Q2016.46 218.3 2017.59 219.157 Q2018.73 219.99 2022.15 220.754 L2023.61 221.078 Q2028.15 222.05 2030.04 223.832 Q2031.97 225.592 2031.97 228.763 Q2031.97 232.374 2029.1 234.481 Q2026.25 236.587 2021.25 236.587 Q2019.16 236.587 2016.9 236.17 Q2014.65 235.777 2012.15 234.967 L2012.15 230.569 Q2014.51 231.795 2016.8 232.42 Q2019.1 233.022 2021.34 233.022 Q2024.35 233.022 2025.97 232.004 Q2027.59 230.962 2027.59 229.087 Q2027.59 227.351 2026.41 226.425 Q2025.25 225.499 2021.29 224.643 L2019.81 224.295 Q2015.85 223.462 2014.1 221.749 Q2012.34 220.013 2012.34 217.004 Q2012.34 213.346 2014.93 211.356 Q2017.52 209.365 2022.29 209.365 Q2024.65 209.365 2026.73 209.712 Q2028.82 210.059 2030.58 210.754 Z" fill="#000000" fill-rule="evenodd" fill-opacity="1"></path><path clip-path="url(#clip340)" d="M2042.96 202.629 L2042.96 209.99 L2051.73 209.99 L2051.73 213.3 L2042.96 213.3 L2042.96 227.374 Q2042.96 230.545 2043.82 231.448 Q2044.7 232.351 2047.36 232.351 L2051.73 232.351 L2051.73 235.916 L2047.36 235.916 Q2042.43 235.916 2040.55 234.087 Q2038.68 232.235 2038.68 227.374 L2038.68 213.3 L2035.55 213.3 L2035.55 209.99 L2038.68 209.99 L2038.68 202.629 L2042.96 202.629 Z" fill="#000000" fill-rule="evenodd" fill-opacity="1"></path><path clip-path="url(#clip340)" d="M2072.41 199.897 L2076.66 199.897 L2076.66 235.916 L2072.41 235.916 L2072.41 199.897 Z" fill="#000000" fill-rule="evenodd" fill-opacity="1"></path><path clip-path="url(#clip340)" d="M2085.58 209.99 L2089.84 209.99 L2089.84 235.916 L2085.58 235.916 L2085.58 209.99 M2085.58 199.897 L2089.84 199.897 L2089.84 205.291 L2085.58 205.291 L2085.58 199.897 Z" fill="#000000" fill-rule="evenodd" fill-opacity="1"></path><path clip-path="url(#clip340)" d="M2120.3 220.268 L2120.3 235.916 L2116.04 235.916 L2116.04 220.407 Q2116.04 216.726 2114.6 214.897 Q2113.17 213.069 2110.3 213.069 Q2106.85 213.069 2104.86 215.268 Q2102.87 217.467 2102.87 221.263 L2102.87 235.916 L2098.59 235.916 L2098.59 209.99 L2102.87 209.99 L2102.87 214.018 Q2104.4 211.68 2106.46 210.522 Q2108.54 209.365 2111.25 209.365 Q2115.72 209.365 2118.01 212.143 Q2120.3 214.897 2120.3 220.268 Z" fill="#000000" fill-rule="evenodd" fill-opacity="1"></path><path clip-path="url(#clip340)" d="M2150.97 221.888 L2150.97 223.971 L2131.39 223.971 Q2131.66 228.369 2134.03 230.684 Q2136.41 232.976 2140.65 232.976 Q2143.1 232.976 2145.39 232.374 Q2147.71 231.772 2149.97 230.569 L2149.97 234.596 Q2147.68 235.568 2145.28 236.078 Q2142.87 236.587 2140.39 236.587 Q2134.19 236.587 2130.55 232.976 Q2126.94 229.365 2126.94 223.207 Q2126.94 216.842 2130.37 213.115 Q2133.82 209.365 2139.65 209.365 Q2144.88 209.365 2147.91 212.745 Q2150.97 216.101 2150.97 221.888 M2146.71 220.638 Q2146.66 217.143 2144.74 215.059 Q2142.84 212.976 2139.7 212.976 Q2136.13 212.976 2133.98 214.99 Q2131.85 217.004 2131.53 220.661 L2146.71 220.638 Z" fill="#000000" fill-rule="evenodd" fill-opacity="1"></path><polyline clip-path="url(#clip340)" style="stroke:#e26f46; stroke-linecap:round; stroke-linejoin:round; stroke-width:4; stroke-opacity:1; fill:none" stroke-dasharray="16, 10" points="
  1605.31,270.476 1746.02,270.476 
  "></polyline>
<path clip-path="url(#clip340)" d="M1785.49 256.367 Q1780.39 256.367 1777.38 260.163 Q1774.4 263.96 1774.4 270.51 Q1774.4 277.038 1777.38 280.834 Q1780.39 284.631 1785.49 284.631 Q1790.58 284.631 1793.54 280.834 Q1796.53 277.038 1796.53 270.51 Q1796.53 263.96 1793.54 260.163 Q1790.58 256.367 1785.49 256.367 M1785.49 252.571 Q1792.75 252.571 1797.11 257.455 Q1801.46 262.316 1801.46 270.51 Q1801.46 278.682 1797.11 283.566 Q1792.75 288.427 1785.49 288.427 Q1778.19 288.427 1773.82 283.566 Q1769.47 278.705 1769.47 270.51 Q1769.47 262.316 1773.82 257.455 Q1778.19 252.571 1785.49 252.571 Z" fill="#000000" fill-rule="evenodd" fill-opacity="1"></path><path clip-path="url(#clip340)" d="M1823.61 265.811 Q1822.89 265.395 1822.04 265.21 Q1821.2 265.001 1820.18 265.001 Q1816.57 265.001 1814.63 267.362 Q1812.71 269.7 1812.71 274.098 L1812.71 287.756 L1808.43 287.756 L1808.43 261.83 L1812.71 261.83 L1812.71 265.858 Q1814.05 263.497 1816.2 262.362 Q1818.36 261.205 1821.43 261.205 Q1821.87 261.205 1822.41 261.274 Q1822.94 261.321 1823.59 261.436 L1823.61 265.811 Z" fill="#000000" fill-rule="evenodd" fill-opacity="1"></path><path clip-path="url(#clip340)" d="M1844.3 265.765 L1844.3 251.737 L1848.56 251.737 L1848.56 287.756 L1844.3 287.756 L1844.3 283.867 Q1842.96 286.182 1840.9 287.316 Q1838.86 288.427 1835.99 288.427 Q1831.3 288.427 1828.33 284.677 Q1825.39 280.927 1825.39 274.816 Q1825.39 268.705 1828.33 264.955 Q1831.3 261.205 1835.99 261.205 Q1838.86 261.205 1840.9 262.339 Q1842.96 263.45 1844.3 265.765 M1829.79 274.816 Q1829.79 279.515 1831.71 282.2 Q1833.66 284.862 1837.04 284.862 Q1840.42 284.862 1842.36 282.2 Q1844.3 279.515 1844.3 274.816 Q1844.3 270.117 1842.36 267.455 Q1840.42 264.77 1837.04 264.77 Q1833.66 264.77 1831.71 267.455 Q1829.79 270.117 1829.79 274.816 Z" fill="#000000" fill-rule="evenodd" fill-opacity="1"></path><path clip-path="url(#clip340)" d="M1879.51 273.728 L1879.51 275.811 L1859.93 275.811 Q1860.21 280.209 1862.57 282.524 Q1864.95 284.816 1869.19 284.816 Q1871.64 284.816 1873.93 284.214 Q1876.25 283.612 1878.52 282.409 L1878.52 286.436 Q1876.23 287.408 1873.82 287.918 Q1871.41 288.427 1868.93 288.427 Q1862.73 288.427 1859.1 284.816 Q1855.49 281.205 1855.49 275.047 Q1855.49 268.682 1858.91 264.955 Q1862.36 261.205 1868.19 261.205 Q1873.42 261.205 1876.46 264.585 Q1879.51 267.941 1879.51 273.728 M1875.25 272.478 Q1875.21 268.983 1873.29 266.899 Q1871.39 264.816 1868.24 264.816 Q1864.68 264.816 1862.52 266.83 Q1860.39 268.844 1860.07 272.501 L1875.25 272.478 Z" fill="#000000" fill-rule="evenodd" fill-opacity="1"></path><path clip-path="url(#clip340)" d="M1901.53 265.811 Q1900.81 265.395 1899.95 265.21 Q1899.12 265.001 1898.1 265.001 Q1894.49 265.001 1892.55 267.362 Q1890.62 269.7 1890.62 274.098 L1890.62 287.756 L1886.34 287.756 L1886.34 261.83 L1890.62 261.83 L1890.62 265.858 Q1891.97 263.497 1894.12 262.362 Q1896.27 261.205 1899.35 261.205 Q1899.79 261.205 1900.32 261.274 Q1900.86 261.321 1901.5 261.436 L1901.53 265.811 Z" fill="#000000" fill-rule="evenodd" fill-opacity="1"></path><path clip-path="url(#clip340)" d="M1922.48 283.821 L1930.11 283.821 L1930.11 257.455 L1921.8 259.122 L1921.8 254.862 L1930.07 253.196 L1934.74 253.196 L1934.74 283.821 L1942.38 283.821 L1942.38 287.756 L1922.48 287.756 L1922.48 283.821 Z" fill="#000000" fill-rule="evenodd" fill-opacity="1"></path><path clip-path="url(#clip340)" d="M1952.64 283.821 L1960.28 283.821 L1960.28 257.455 L1951.97 259.122 L1951.97 254.862 L1960.23 253.196 L1964.91 253.196 L1964.91 283.821 L1972.54 283.821 L1972.54 287.756 L1952.64 287.756 L1952.64 283.821 Z" fill="#000000" fill-rule="evenodd" fill-opacity="1"></path><path clip-path="url(#clip340)" d="M2000.67 254.469 L2000.67 261.83 L2009.44 261.83 L2009.44 265.14 L2000.67 265.14 L2000.67 279.214 Q2000.67 282.385 2001.53 283.288 Q2002.41 284.191 2005.07 284.191 L2009.44 284.191 L2009.44 287.756 L2005.07 287.756 Q2000.14 287.756 1998.26 285.927 Q1996.39 284.075 1996.39 279.214 L1996.39 265.14 L1993.26 265.14 L1993.26 261.83 L1996.39 261.83 L1996.39 254.469 L2000.67 254.469 Z" fill="#000000" fill-rule="evenodd" fill-opacity="1"></path><path clip-path="url(#clip340)" d="M2037.22 273.728 L2037.22 275.811 L2017.64 275.811 Q2017.91 280.209 2020.28 282.524 Q2022.66 284.816 2026.9 284.816 Q2029.35 284.816 2031.64 284.214 Q2033.96 283.612 2036.23 282.409 L2036.23 286.436 Q2033.93 287.408 2031.53 287.918 Q2029.12 288.427 2026.64 288.427 Q2020.44 288.427 2016.8 284.816 Q2013.19 281.205 2013.19 275.047 Q2013.19 268.682 2016.62 264.955 Q2020.07 261.205 2025.9 261.205 Q2031.13 261.205 2034.16 264.585 Q2037.22 267.941 2037.22 273.728 M2032.96 272.478 Q2032.91 268.983 2030.99 266.899 Q2029.1 264.816 2025.95 264.816 Q2022.38 264.816 2020.23 266.83 Q2018.1 268.844 2017.78 272.501 L2032.96 272.478 Z" fill="#000000" fill-rule="evenodd" fill-opacity="1"></path><path clip-path="url(#clip340)" d="M2060.74 262.594 L2060.74 266.622 Q2058.93 265.696 2056.99 265.233 Q2055.04 264.77 2052.96 264.77 Q2049.79 264.77 2048.19 265.742 Q2046.62 266.714 2046.62 268.659 Q2046.62 270.14 2047.75 270.997 Q2048.89 271.83 2052.31 272.594 L2053.77 272.918 Q2058.31 273.89 2060.21 275.672 Q2062.13 277.432 2062.13 280.603 Q2062.13 284.214 2059.26 286.321 Q2056.41 288.427 2051.41 288.427 Q2049.33 288.427 2047.06 288.01 Q2044.81 287.617 2042.31 286.807 L2042.31 282.409 Q2044.67 283.635 2046.97 284.26 Q2049.26 284.862 2051.5 284.862 Q2054.51 284.862 2056.13 283.844 Q2057.75 282.802 2057.75 280.927 Q2057.75 279.191 2056.57 278.265 Q2055.41 277.339 2051.46 276.483 L2049.97 276.135 Q2046.02 275.302 2044.26 273.589 Q2042.5 271.853 2042.5 268.844 Q2042.5 265.186 2045.09 263.196 Q2047.68 261.205 2052.45 261.205 Q2054.81 261.205 2056.9 261.552 Q2058.98 261.899 2060.74 262.594 Z" fill="#000000" fill-rule="evenodd" fill-opacity="1"></path><path clip-path="url(#clip340)" d="M2073.12 254.469 L2073.12 261.83 L2081.9 261.83 L2081.9 265.14 L2073.12 265.14 L2073.12 279.214 Q2073.12 282.385 2073.98 283.288 Q2074.86 284.191 2077.52 284.191 L2081.9 284.191 L2081.9 287.756 L2077.52 287.756 Q2072.59 287.756 2070.72 285.927 Q2068.84 284.075 2068.84 279.214 L2068.84 265.14 L2065.72 265.14 L2065.72 261.83 L2068.84 261.83 L2068.84 254.469 L2073.12 254.469 Z" fill="#000000" fill-rule="evenodd" fill-opacity="1"></path><path clip-path="url(#clip340)" d="M2102.57 251.737 L2106.83 251.737 L2106.83 287.756 L2102.57 287.756 L2102.57 251.737 Z" fill="#000000" fill-rule="evenodd" fill-opacity="1"></path><path clip-path="url(#clip340)" d="M2115.74 261.83 L2120 261.83 L2120 287.756 L2115.74 287.756 L2115.74 261.83 M2115.74 251.737 L2120 251.737 L2120 257.131 L2115.74 257.131 L2115.74 251.737 Z" fill="#000000" fill-rule="evenodd" fill-opacity="1"></path><path clip-path="url(#clip340)" d="M2150.46 272.108 L2150.46 287.756 L2146.2 287.756 L2146.2 272.247 Q2146.2 268.566 2144.77 266.737 Q2143.33 264.909 2140.46 264.909 Q2137.01 264.909 2135.02 267.108 Q2133.03 269.307 2133.03 273.103 L2133.03 287.756 L2128.75 287.756 L2128.75 261.83 L2133.03 261.83 L2133.03 265.858 Q2134.56 263.52 2136.62 262.362 Q2138.7 261.205 2141.41 261.205 Q2145.88 261.205 2148.17 263.983 Q2150.46 266.737 2150.46 272.108 Z" fill="#000000" fill-rule="evenodd" fill-opacity="1"></path><path clip-path="url(#clip340)" d="M2181.13 273.728 L2181.13 275.811 L2161.55 275.811 Q2161.83 280.209 2164.19 282.524 Q2166.57 284.816 2170.81 284.816 Q2173.26 284.816 2175.55 284.214 Q2177.87 283.612 2180.14 282.409 L2180.14 286.436 Q2177.84 287.408 2175.44 287.918 Q2173.03 288.427 2170.55 288.427 Q2164.35 288.427 2160.72 284.816 Q2157.1 281.205 2157.1 275.047 Q2157.1 268.682 2160.53 264.955 Q2163.98 261.205 2169.81 261.205 Q2175.04 261.205 2178.08 264.585 Q2181.13 267.941 2181.13 273.728 M2176.87 272.478 Q2176.83 268.983 2174.9 266.899 Q2173.01 264.816 2169.86 264.816 Q2166.29 264.816 2164.14 266.83 Q2162.01 268.844 2161.69 272.501 L2176.87 272.478 Z" fill="#000000" fill-rule="evenodd" fill-opacity="1"></path><polyline clip-path="url(#clip340)" style="stroke:#3da44d; stroke-linecap:round; stroke-linejoin:round; stroke-width:4; stroke-opacity:1; fill:none" points="
  1605.31,322.316 1746.02,322.316 
  "></polyline>
<path clip-path="url(#clip340)" d="M1795.02 334.665 L1795.02 325.383 L1787.38 325.383 L1787.38 321.54 L1799.65 321.54 L1799.65 336.378 Q1796.94 338.299 1793.68 339.295 Q1790.42 340.267 1786.71 340.267 Q1778.61 340.267 1774.03 335.545 Q1769.47 330.799 1769.47 322.35 Q1769.47 313.878 1774.03 309.156 Q1778.61 304.411 1786.71 304.411 Q1790.09 304.411 1793.12 305.244 Q1796.18 306.077 1798.75 307.698 L1798.75 312.675 Q1796.16 310.476 1793.24 309.364 Q1790.32 308.253 1787.11 308.253 Q1780.76 308.253 1777.57 311.795 Q1774.4 315.337 1774.4 322.35 Q1774.4 329.341 1777.57 332.883 Q1780.76 336.424 1787.11 336.424 Q1789.58 336.424 1791.53 336.008 Q1793.47 335.568 1795.02 334.665 Z" fill="#000000" fill-rule="evenodd" fill-opacity="1"></path><path clip-path="url(#clip340)" d="M1808.01 303.577 L1812.27 303.577 L1812.27 339.596 L1808.01 339.596 L1808.01 303.577 Z" fill="#000000" fill-rule="evenodd" fill-opacity="1"></path><path clip-path="url(#clip340)" d="M1831.23 316.656 Q1827.8 316.656 1825.81 319.341 Q1823.82 322.003 1823.82 326.656 Q1823.82 331.309 1825.79 333.994 Q1827.78 336.656 1831.23 336.656 Q1834.63 336.656 1836.62 333.971 Q1838.61 331.286 1838.61 326.656 Q1838.61 322.05 1836.62 319.364 Q1834.63 316.656 1831.23 316.656 M1831.23 313.045 Q1836.78 313.045 1839.95 316.656 Q1843.12 320.267 1843.12 326.656 Q1843.12 333.022 1839.95 336.656 Q1836.78 340.267 1831.23 340.267 Q1825.65 340.267 1822.48 336.656 Q1819.33 333.022 1819.33 326.656 Q1819.33 320.267 1822.48 316.656 Q1825.65 313.045 1831.23 313.045 Z" fill="#000000" fill-rule="evenodd" fill-opacity="1"></path><path clip-path="url(#clip340)" d="M1868.8 326.656 Q1868.8 321.957 1866.85 319.295 Q1864.93 316.61 1861.55 316.61 Q1858.17 316.61 1856.23 319.295 Q1854.3 321.957 1854.3 326.656 Q1854.3 331.355 1856.23 334.04 Q1858.17 336.702 1861.55 336.702 Q1864.93 336.702 1866.85 334.04 Q1868.8 331.355 1868.8 326.656 M1854.3 317.605 Q1855.65 315.29 1857.68 314.179 Q1859.74 313.045 1862.59 313.045 Q1867.31 313.045 1870.25 316.795 Q1873.22 320.545 1873.22 326.656 Q1873.22 332.767 1870.25 336.517 Q1867.31 340.267 1862.59 340.267 Q1859.74 340.267 1857.68 339.156 Q1855.65 338.022 1854.3 335.707 L1854.3 339.596 L1850.02 339.596 L1850.02 303.577 L1854.3 303.577 L1854.3 317.605 Z" fill="#000000" fill-rule="evenodd" fill-opacity="1"></path><path clip-path="url(#clip340)" d="M1892.06 326.563 Q1886.9 326.563 1884.91 327.744 Q1882.92 328.924 1882.92 331.772 Q1882.92 334.04 1884.4 335.383 Q1885.9 336.702 1888.47 336.702 Q1892.01 336.702 1894.14 334.202 Q1896.3 331.679 1896.3 327.512 L1896.3 326.563 L1892.06 326.563 M1900.55 324.804 L1900.55 339.596 L1896.3 339.596 L1896.3 335.661 Q1894.84 338.022 1892.66 339.156 Q1890.49 340.267 1887.34 340.267 Q1883.36 340.267 1880.99 338.045 Q1878.66 335.799 1878.66 332.049 Q1878.66 327.674 1881.57 325.452 Q1884.51 323.23 1890.32 323.23 L1896.3 323.23 L1896.3 322.813 Q1896.3 319.874 1894.35 318.276 Q1892.43 316.656 1888.93 316.656 Q1886.71 316.656 1884.61 317.188 Q1882.5 317.721 1880.55 318.786 L1880.55 314.85 Q1882.89 313.948 1885.09 313.508 Q1887.29 313.045 1889.37 313.045 Q1895 313.045 1897.78 315.962 Q1900.55 318.878 1900.55 324.804 Z" fill="#000000" fill-rule="evenodd" fill-opacity="1"></path><path clip-path="url(#clip340)" d="M1909.33 303.577 L1913.59 303.577 L1913.59 339.596 L1909.33 339.596 L1909.33 303.577 Z" fill="#000000" fill-rule="evenodd" fill-opacity="1"></path><path clip-path="url(#clip340)" d="M1959.74 325.568 L1959.74 327.651 L1940.16 327.651 Q1940.44 332.049 1942.8 334.364 Q1945.18 336.656 1949.42 336.656 Q1951.87 336.656 1954.17 336.054 Q1956.48 335.452 1958.75 334.249 L1958.75 338.276 Q1956.46 339.248 1954.05 339.758 Q1951.64 340.267 1949.17 340.267 Q1942.96 340.267 1939.33 336.656 Q1935.72 333.045 1935.72 326.887 Q1935.72 320.522 1939.14 316.795 Q1942.59 313.045 1948.42 313.045 Q1953.66 313.045 1956.69 316.425 Q1959.74 319.781 1959.74 325.568 M1955.48 324.318 Q1955.44 320.823 1953.52 318.739 Q1951.62 316.656 1948.47 316.656 Q1944.91 316.656 1942.75 318.67 Q1940.62 320.684 1940.3 324.341 L1955.48 324.318 Z" fill="#000000" fill-rule="evenodd" fill-opacity="1"></path><path clip-path="url(#clip340)" d="M1981.76 317.651 Q1981.04 317.235 1980.18 317.05 Q1979.35 316.841 1978.33 316.841 Q1974.72 316.841 1972.78 319.202 Q1970.86 321.54 1970.86 325.938 L1970.86 339.596 L1966.57 339.596 L1966.57 313.67 L1970.86 313.67 L1970.86 317.698 Q1972.2 315.337 1974.35 314.202 Q1976.5 313.045 1979.58 313.045 Q1980.02 313.045 1980.55 313.114 Q1981.09 313.161 1981.73 313.276 L1981.76 317.651 Z" fill="#000000" fill-rule="evenodd" fill-opacity="1"></path><path clip-path="url(#clip340)" d="M2000.42 317.651 Q1999.7 317.235 1998.84 317.05 Q1998.01 316.841 1996.99 316.841 Q1993.38 316.841 1991.43 319.202 Q1989.51 321.54 1989.51 325.938 L1989.51 339.596 L1985.23 339.596 L1985.23 313.67 L1989.51 313.67 L1989.51 317.698 Q1990.85 315.337 1993.01 314.202 Q1995.16 313.045 1998.24 313.045 Q1998.68 313.045 1999.21 313.114 Q1999.74 313.161 2000.39 313.276 L2000.42 317.651 Z" fill="#000000" fill-rule="evenodd" fill-opacity="1"></path><path clip-path="url(#clip340)" d="M2013.89 316.656 Q2010.46 316.656 2008.47 319.341 Q2006.48 322.003 2006.48 326.656 Q2006.48 331.309 2008.45 333.994 Q2010.44 336.656 2013.89 336.656 Q2017.29 336.656 2019.28 333.971 Q2021.27 331.286 2021.27 326.656 Q2021.27 322.05 2019.28 319.364 Q2017.29 316.656 2013.89 316.656 M2013.89 313.045 Q2019.44 313.045 2022.61 316.656 Q2025.79 320.267 2025.79 326.656 Q2025.79 333.022 2022.61 336.656 Q2019.44 340.267 2013.89 340.267 Q2008.31 340.267 2005.14 336.656 Q2001.99 333.022 2001.99 326.656 Q2001.99 320.267 2005.14 316.656 Q2008.31 313.045 2013.89 313.045 Z" fill="#000000" fill-rule="evenodd" fill-opacity="1"></path><path clip-path="url(#clip340)" d="M2047.87 317.651 Q2047.15 317.235 2046.29 317.05 Q2045.46 316.841 2044.44 316.841 Q2040.83 316.841 2038.89 319.202 Q2036.97 321.54 2036.97 325.938 L2036.97 339.596 L2032.68 339.596 L2032.68 313.67 L2036.97 313.67 L2036.97 317.698 Q2038.31 315.337 2040.46 314.202 Q2042.61 313.045 2045.69 313.045 Q2046.13 313.045 2046.66 313.114 Q2047.2 313.161 2047.85 313.276 L2047.87 317.651 Z" fill="#000000" fill-rule="evenodd" fill-opacity="1"></path><polyline clip-path="url(#clip340)" style="stroke:#c271d2; stroke-linecap:round; stroke-linejoin:round; stroke-width:4; stroke-opacity:1; fill:none" points="
  1605.31,374.156 1746.02,374.156 
  "></polyline>
<path clip-path="url(#clip340)" d="M1795.02 386.505 L1795.02 377.223 L1787.38 377.223 L1787.38 373.38 L1799.65 373.38 L1799.65 388.218 Q1796.94 390.139 1793.68 391.135 Q1790.42 392.107 1786.71 392.107 Q1778.61 392.107 1774.03 387.385 Q1769.47 382.639 1769.47 374.19 Q1769.47 365.718 1774.03 360.996 Q1778.61 356.251 1786.71 356.251 Q1790.09 356.251 1793.12 357.084 Q1796.18 357.917 1798.75 359.538 L1798.75 364.515 Q1796.16 362.316 1793.24 361.204 Q1790.32 360.093 1787.11 360.093 Q1780.76 360.093 1777.57 363.635 Q1774.4 367.177 1774.4 374.19 Q1774.4 381.181 1777.57 384.723 Q1780.76 388.264 1787.11 388.264 Q1789.58 388.264 1791.53 387.848 Q1793.47 387.408 1795.02 386.505 Z" fill="#000000" fill-rule="evenodd" fill-opacity="1"></path><path clip-path="url(#clip340)" d="M1808.01 355.417 L1812.27 355.417 L1812.27 391.436 L1808.01 391.436 L1808.01 355.417 Z" fill="#000000" fill-rule="evenodd" fill-opacity="1"></path><path clip-path="url(#clip340)" d="M1831.23 368.496 Q1827.8 368.496 1825.81 371.181 Q1823.82 373.843 1823.82 378.496 Q1823.82 383.149 1825.79 385.834 Q1827.78 388.496 1831.23 388.496 Q1834.63 388.496 1836.62 385.811 Q1838.61 383.126 1838.61 378.496 Q1838.61 373.89 1836.62 371.204 Q1834.63 368.496 1831.23 368.496 M1831.23 364.885 Q1836.78 364.885 1839.95 368.496 Q1843.12 372.107 1843.12 378.496 Q1843.12 384.862 1839.95 388.496 Q1836.78 392.107 1831.23 392.107 Q1825.65 392.107 1822.48 388.496 Q1819.33 384.862 1819.33 378.496 Q1819.33 372.107 1822.48 368.496 Q1825.65 364.885 1831.23 364.885 Z" fill="#000000" fill-rule="evenodd" fill-opacity="1"></path><path clip-path="url(#clip340)" d="M1868.8 378.496 Q1868.8 373.797 1866.85 371.135 Q1864.93 368.45 1861.55 368.45 Q1858.17 368.45 1856.23 371.135 Q1854.3 373.797 1854.3 378.496 Q1854.3 383.195 1856.23 385.88 Q1858.17 388.542 1861.55 388.542 Q1864.93 388.542 1866.85 385.88 Q1868.8 383.195 1868.8 378.496 M1854.3 369.445 Q1855.65 367.13 1857.68 366.019 Q1859.74 364.885 1862.59 364.885 Q1867.31 364.885 1870.25 368.635 Q1873.22 372.385 1873.22 378.496 Q1873.22 384.607 1870.25 388.357 Q1867.31 392.107 1862.59 392.107 Q1859.74 392.107 1857.68 390.996 Q1855.65 389.862 1854.3 387.547 L1854.3 391.436 L1850.02 391.436 L1850.02 355.417 L1854.3 355.417 L1854.3 369.445 Z" fill="#000000" fill-rule="evenodd" fill-opacity="1"></path><path clip-path="url(#clip340)" d="M1892.06 378.403 Q1886.9 378.403 1884.91 379.584 Q1882.92 380.764 1882.92 383.612 Q1882.92 385.88 1884.4 387.223 Q1885.9 388.542 1888.47 388.542 Q1892.01 388.542 1894.14 386.042 Q1896.3 383.519 1896.3 379.352 L1896.3 378.403 L1892.06 378.403 M1900.55 376.644 L1900.55 391.436 L1896.3 391.436 L1896.3 387.501 Q1894.84 389.862 1892.66 390.996 Q1890.49 392.107 1887.34 392.107 Q1883.36 392.107 1880.99 389.885 Q1878.66 387.639 1878.66 383.889 Q1878.66 379.514 1881.57 377.292 Q1884.51 375.07 1890.32 375.07 L1896.3 375.07 L1896.3 374.653 Q1896.3 371.714 1894.35 370.116 Q1892.43 368.496 1888.93 368.496 Q1886.71 368.496 1884.61 369.028 Q1882.5 369.561 1880.55 370.626 L1880.55 366.69 Q1882.89 365.788 1885.09 365.348 Q1887.29 364.885 1889.37 364.885 Q1895 364.885 1897.78 367.802 Q1900.55 370.718 1900.55 376.644 Z" fill="#000000" fill-rule="evenodd" fill-opacity="1"></path><path clip-path="url(#clip340)" d="M1909.33 355.417 L1913.59 355.417 L1913.59 391.436 L1909.33 391.436 L1909.33 355.417 Z" fill="#000000" fill-rule="evenodd" fill-opacity="1"></path><path clip-path="url(#clip340)" d="M1959.74 377.408 L1959.74 379.491 L1940.16 379.491 Q1940.44 383.889 1942.8 386.204 Q1945.18 388.496 1949.42 388.496 Q1951.87 388.496 1954.17 387.894 Q1956.48 387.292 1958.75 386.089 L1958.75 390.116 Q1956.46 391.088 1954.05 391.598 Q1951.64 392.107 1949.17 392.107 Q1942.96 392.107 1939.33 388.496 Q1935.72 384.885 1935.72 378.727 Q1935.72 372.362 1939.14 368.635 Q1942.59 364.885 1948.42 364.885 Q1953.66 364.885 1956.69 368.265 Q1959.74 371.621 1959.74 377.408 M1955.48 376.158 Q1955.44 372.663 1953.52 370.579 Q1951.62 368.496 1948.47 368.496 Q1944.91 368.496 1942.75 370.51 Q1940.62 372.524 1940.3 376.181 L1955.48 376.158 Z" fill="#000000" fill-rule="evenodd" fill-opacity="1"></path><path clip-path="url(#clip340)" d="M1981.76 369.491 Q1981.04 369.075 1980.18 368.89 Q1979.35 368.681 1978.33 368.681 Q1974.72 368.681 1972.78 371.042 Q1970.86 373.38 1970.86 377.778 L1970.86 391.436 L1966.57 391.436 L1966.57 365.51 L1970.86 365.51 L1970.86 369.538 Q1972.2 367.177 1974.35 366.042 Q1976.5 364.885 1979.58 364.885 Q1980.02 364.885 1980.55 364.954 Q1981.09 365.001 1981.73 365.116 L1981.76 369.491 Z" fill="#000000" fill-rule="evenodd" fill-opacity="1"></path><path clip-path="url(#clip340)" d="M2000.42 369.491 Q1999.7 369.075 1998.84 368.89 Q1998.01 368.681 1996.99 368.681 Q1993.38 368.681 1991.43 371.042 Q1989.51 373.38 1989.51 377.778 L1989.51 391.436 L1985.23 391.436 L1985.23 365.51 L1989.51 365.51 L1989.51 369.538 Q1990.85 367.177 1993.01 366.042 Q1995.16 364.885 1998.24 364.885 Q1998.68 364.885 1999.21 364.954 Q1999.74 365.001 2000.39 365.116 L2000.42 369.491 Z" fill="#000000" fill-rule="evenodd" fill-opacity="1"></path><path clip-path="url(#clip340)" d="M2013.89 368.496 Q2010.46 368.496 2008.47 371.181 Q2006.48 373.843 2006.48 378.496 Q2006.48 383.149 2008.45 385.834 Q2010.44 388.496 2013.89 388.496 Q2017.29 388.496 2019.28 385.811 Q2021.27 383.126 2021.27 378.496 Q2021.27 373.89 2019.28 371.204 Q2017.29 368.496 2013.89 368.496 M2013.89 364.885 Q2019.44 364.885 2022.61 368.496 Q2025.79 372.107 2025.79 378.496 Q2025.79 384.862 2022.61 388.496 Q2019.44 392.107 2013.89 392.107 Q2008.31 392.107 2005.14 388.496 Q2001.99 384.862 2001.99 378.496 Q2001.99 372.107 2005.14 368.496 Q2008.31 364.885 2013.89 364.885 Z" fill="#000000" fill-rule="evenodd" fill-opacity="1"></path><path clip-path="url(#clip340)" d="M2047.87 369.491 Q2047.15 369.075 2046.29 368.89 Q2045.46 368.681 2044.44 368.681 Q2040.83 368.681 2038.89 371.042 Q2036.97 373.38 2036.97 377.778 L2036.97 391.436 L2032.68 391.436 L2032.68 365.51 L2036.97 365.51 L2036.97 369.538 Q2038.31 367.177 2040.46 366.042 Q2042.61 364.885 2045.69 364.885 Q2046.13 364.885 2046.66 364.954 Q2047.2 365.001 2047.85 365.116 L2047.87 369.491 Z" fill="#000000" fill-rule="evenodd" fill-opacity="1"></path><path clip-path="url(#clip340)" d="M2082.43 369.491 Q2081.71 369.075 2080.85 368.89 Q2080.02 368.681 2079 368.681 Q2075.39 368.681 2073.45 371.042 Q2071.53 373.38 2071.53 377.778 L2071.53 391.436 L2067.24 391.436 L2067.24 365.51 L2071.53 365.51 L2071.53 369.538 Q2072.87 367.177 2075.02 366.042 Q2077.17 364.885 2080.25 364.885 Q2080.69 364.885 2081.22 364.954 Q2081.76 365.001 2082.41 365.116 L2082.43 369.491 Z" fill="#000000" fill-rule="evenodd" fill-opacity="1"></path><path clip-path="url(#clip340)" d="M2108.03 377.408 L2108.03 379.491 L2088.45 379.491 Q2088.72 383.889 2091.09 386.204 Q2093.47 388.496 2097.71 388.496 Q2100.16 388.496 2102.45 387.894 Q2104.77 387.292 2107.03 386.089 L2107.03 390.116 Q2104.74 391.088 2102.34 391.598 Q2099.93 392.107 2097.45 392.107 Q2091.25 392.107 2087.61 388.496 Q2084 384.885 2084 378.727 Q2084 372.362 2087.43 368.635 Q2090.88 364.885 2096.71 364.885 Q2101.94 364.885 2104.97 368.265 Q2108.03 371.621 2108.03 377.408 M2103.77 376.158 Q2103.72 372.663 2101.8 370.579 Q2099.91 368.496 2096.76 368.496 Q2093.19 368.496 2091.04 370.51 Q2088.91 372.524 2088.59 376.181 L2103.77 376.158 Z" fill="#000000" fill-rule="evenodd" fill-opacity="1"></path><path clip-path="url(#clip340)" d="M2132.08 378.172 Q2132.08 373.542 2130.16 370.996 Q2128.26 368.45 2124.81 368.45 Q2121.39 368.45 2119.47 370.996 Q2117.57 373.542 2117.57 378.172 Q2117.57 382.778 2119.47 385.325 Q2121.39 387.871 2124.81 387.871 Q2128.26 387.871 2130.16 385.325 Q2132.08 382.778 2132.08 378.172 M2136.34 388.218 Q2136.34 394.838 2133.4 398.056 Q2130.46 401.297 2124.4 401.297 Q2122.15 401.297 2120.16 400.95 Q2118.17 400.625 2116.29 399.931 L2116.29 395.788 Q2118.17 396.806 2120 397.292 Q2121.83 397.778 2123.72 397.778 Q2127.91 397.778 2130 395.579 Q2132.08 393.403 2132.08 388.982 L2132.08 386.876 Q2130.76 389.167 2128.7 390.301 Q2126.64 391.436 2123.77 391.436 Q2119 391.436 2116.09 387.801 Q2113.17 384.167 2113.17 378.172 Q2113.17 372.153 2116.09 368.519 Q2119 364.885 2123.77 364.885 Q2126.64 364.885 2128.7 366.019 Q2130.76 367.153 2132.08 369.445 L2132.08 365.51 L2136.34 365.51 L2136.34 388.218 Z" fill="#000000" fill-rule="evenodd" fill-opacity="1"></path><path clip-path="url(#clip340)" d="M2160.14 369.491 Q2159.42 369.075 2158.56 368.89 Q2157.73 368.681 2156.71 368.681 Q2153.1 368.681 2151.15 371.042 Q2149.23 373.38 2149.23 377.778 L2149.23 391.436 L2144.95 391.436 L2144.95 365.51 L2149.23 365.51 L2149.23 369.538 Q2150.58 367.177 2152.73 366.042 Q2154.88 364.885 2157.96 364.885 Q2158.4 364.885 2158.93 364.954 Q2159.47 365.001 2160.11 365.116 L2160.14 369.491 Z" fill="#000000" fill-rule="evenodd" fill-opacity="1"></path><path clip-path="url(#clip340)" d="M2185.74 377.408 L2185.74 379.491 L2166.15 379.491 Q2166.43 383.889 2168.79 386.204 Q2171.18 388.496 2175.41 388.496 Q2177.87 388.496 2180.16 387.894 Q2182.47 387.292 2184.74 386.089 L2184.74 390.116 Q2182.45 391.088 2180.04 391.598 Q2177.64 392.107 2175.16 392.107 Q2168.96 392.107 2165.32 388.496 Q2161.71 384.885 2161.71 378.727 Q2161.71 372.362 2165.14 368.635 Q2168.59 364.885 2174.42 364.885 Q2179.65 364.885 2182.68 368.265 Q2185.74 371.621 2185.74 377.408 M2181.48 376.158 Q2181.43 372.663 2179.51 370.579 Q2177.61 368.496 2174.47 368.496 Q2170.9 368.496 2168.75 370.51 Q2166.62 372.524 2166.29 376.181 L2181.48 376.158 Z" fill="#000000" fill-rule="evenodd" fill-opacity="1"></path><path clip-path="url(#clip340)" d="M2209.26 366.274 L2209.26 370.302 Q2207.45 369.376 2205.51 368.913 Q2203.56 368.45 2201.48 368.45 Q2198.31 368.45 2196.71 369.422 Q2195.14 370.394 2195.14 372.339 Q2195.14 373.82 2196.27 374.677 Q2197.4 375.51 2200.83 376.274 L2202.29 376.598 Q2206.83 377.57 2208.72 379.352 Q2210.65 381.112 2210.65 384.283 Q2210.65 387.894 2207.78 390.001 Q2204.93 392.107 2199.93 392.107 Q2197.84 392.107 2195.58 391.69 Q2193.33 391.297 2190.83 390.487 L2190.83 386.089 Q2193.19 387.315 2195.48 387.94 Q2197.78 388.542 2200.02 388.542 Q2203.03 388.542 2204.65 387.524 Q2206.27 386.482 2206.27 384.607 Q2206.27 382.871 2205.09 381.945 Q2203.93 381.019 2199.97 380.163 L2198.49 379.815 Q2194.53 378.982 2192.78 377.269 Q2191.02 375.533 2191.02 372.524 Q2191.02 368.866 2193.61 366.876 Q2196.2 364.885 2200.97 364.885 Q2203.33 364.885 2205.41 365.232 Q2207.5 365.579 2209.26 366.274 Z" fill="#000000" fill-rule="evenodd" fill-opacity="1"></path><path clip-path="url(#clip340)" d="M2233.96 366.274 L2233.96 370.302 Q2232.15 369.376 2230.21 368.913 Q2228.26 368.45 2226.18 368.45 Q2223.01 368.45 2221.41 369.422 Q2219.84 370.394 2219.84 372.339 Q2219.84 373.82 2220.97 374.677 Q2222.1 375.51 2225.53 376.274 L2226.99 376.598 Q2231.52 377.57 2233.42 379.352 Q2235.34 381.112 2235.34 384.283 Q2235.34 387.894 2232.47 390.001 Q2229.63 392.107 2224.63 392.107 Q2222.54 392.107 2220.27 391.69 Q2218.03 391.297 2215.53 390.487 L2215.53 386.089 Q2217.89 387.315 2220.18 387.94 Q2222.47 388.542 2224.72 388.542 Q2227.73 388.542 2229.35 387.524 Q2230.97 386.482 2230.97 384.607 Q2230.97 382.871 2229.79 381.945 Q2228.63 381.019 2224.67 380.163 L2223.19 379.815 Q2219.23 378.982 2217.47 377.269 Q2215.71 375.533 2215.71 372.524 Q2215.71 368.866 2218.31 366.876 Q2220.9 364.885 2225.67 364.885 Q2228.03 364.885 2230.11 365.232 Q2232.2 365.579 2233.96 366.274 Z" fill="#000000" fill-rule="evenodd" fill-opacity="1"></path><path clip-path="url(#clip340)" d="M2242.13 365.51 L2246.39 365.51 L2246.39 391.436 L2242.13 391.436 L2242.13 365.51 M2242.13 355.417 L2246.39 355.417 L2246.39 360.811 L2242.13 360.811 L2242.13 355.417 Z" fill="#000000" fill-rule="evenodd" fill-opacity="1"></path><path clip-path="url(#clip340)" d="M2265.34 368.496 Q2261.92 368.496 2259.93 371.181 Q2257.94 373.843 2257.94 378.496 Q2257.94 383.149 2259.9 385.834 Q2261.9 388.496 2265.34 388.496 Q2268.75 388.496 2270.74 385.811 Q2272.73 383.126 2272.73 378.496 Q2272.73 373.89 2270.74 371.204 Q2268.75 368.496 2265.34 368.496 M2265.34 364.885 Q2270.9 364.885 2274.07 368.496 Q2277.24 372.107 2277.24 378.496 Q2277.24 384.862 2274.07 388.496 Q2270.9 392.107 2265.34 392.107 Q2259.77 392.107 2256.59 388.496 Q2253.45 384.862 2253.45 378.496 Q2253.45 372.107 2256.59 368.496 Q2259.77 364.885 2265.34 364.885 Z" fill="#000000" fill-rule="evenodd" fill-opacity="1"></path><path clip-path="url(#clip340)" d="M2305.85 375.788 L2305.85 391.436 L2301.59 391.436 L2301.59 375.927 Q2301.59 372.246 2300.16 370.417 Q2298.72 368.589 2295.85 368.589 Q2292.4 368.589 2290.41 370.788 Q2288.42 372.987 2288.42 376.783 L2288.42 391.436 L2284.14 391.436 L2284.14 365.51 L2288.42 365.51 L2288.42 369.538 Q2289.95 367.2 2292.01 366.042 Q2294.09 364.885 2296.8 364.885 Q2301.27 364.885 2303.56 367.663 Q2305.85 370.417 2305.85 375.788 Z" fill="#000000" fill-rule="evenodd" fill-opacity="1"></path></svg>